<?xml version="1.0" standalone="no"?>
<!DOCTYPE svg PUBLIC "-//W3C//DTD SVG 1.1//EN" "http://www.w3.org/Graphics/SVG/1.1/DTD/svg11.dtd" >
<svg xmlns="http://www.w3.org/2000/svg" xmlns:xlink="http://www.w3.org/1999/xlink" version="1.1">
<metadata>
Created by FontForge 20161116 at Tue Apr 24 10:21:23 2012
 By Jimmy Wärting
Copyright (c) 2003 - 2012 Linotype GmbH, www.linotype.com. All rights reserved. This font software may not be reproduced, modified, disclosed or transferred without the express written approval of Linotype GmbH. Avenir is a trademark of Linotype GmbH registered in the U.S. Patent and Trademark Office and may be registered in certain other jurisdictions. This typeface is original artwork of Adrian Frutiger and Akira Kobayashi. The design may be protected in certain jurisdictions.
</metadata>
<defs>
<font id="AvenirNextCyr-Heavy" horiz-adv-x="360" >
  <font-face 
    font-family="Avenir Next Cyr Heavy"
    font-weight="800"
    font-stretch="normal"
    units-per-em="1000"
    panose-1="2 11 9 3 2 2 2 2 2 4"
    ascent="756"
    descent="-244"
    x-height="526"
    cap-height="708"
    bbox="-163 -250 1237 971"
    underline-thickness="50"
    underline-position="-100"
    stemh="144"
    stemv="55"
    unicode-range="U+000D-FB04"
  />
<missing-glyph horiz-adv-x="512" 
d="M278 117h-56v67h56v-67zM271 234h-46l-2 17c0 37 4 64 13 81s24 37 46 59c43 41 50 58 50 83c0 48 -35 85 -76 85s-74 -27 -82 -95l-50 8c9 95 63 137 135 137c71 0 124 -52 124 -131c0 -43 -12 -73 -63 -120c-25 -22 -39 -39 -43 -52s-6 -37 -6 -72zM50 50h412v617h-412
v-617zM0 718h512v-718h-512v718z" />
    <glyph glyph-name="napostrophe" unicode="&#x22;n" horiz-adv-x="831" 
d="M218 0v526h225v-58h2c26 39 83 72 150 72c148 0 188 -116 188 -220v-320h-232v280c0 53 -17 72 -50 72c-30 0 -52 -26 -52 -72v-280h-231zM59 708h189l-87 -177h-164z" />
    <glyph glyph-name="fi" unicode="fi" horiz-adv-x="756" 
d="M471 0v526h231v-526h-231zM467 678c0 64 55 118 121 118c63 0 118 -54 118 -118c0 -66 -55 -117 -118 -117c-66 0 -121 51 -121 117zM426 598c-12 5 -29 9 -45 9c-45 0 -61 -32 -61 -74v-7h111v-165h-111v-361h-230v361h-90v165h90v12c0 132 54 248 246 248
c31 0 77 -4 105 -15z" />
    <glyph glyph-name="fl" unicode="fl" horiz-adv-x="759" 
d="M470 0v756h236v-756h-236zM426 598c-12 5 -29 9 -45 9c-45 0 -61 -32 -61 -74v-7h111v-165h-111v-361h-230v361h-90v165h90v12c0 132 54 248 246 248c31 0 77 -4 105 -15z" />
    <glyph glyph-name="f_f_l" unicode="ffl" horiz-adv-x="1147" 
d="M814 598c-12 5 -29 9 -45 9c-45 0 -61 -32 -61 -74v-7h111v-165h-111v-361h-230v361h-158v-361h-230v361h-90v165h90v12c0 132 54 248 246 248c31 0 77 -4 105 -15l-15 -173c-12 5 -29 9 -45 9c-45 0 -61 -32 -61 -74v-7h158v12c0 132 54 248 246 248c31 0 77 -4 105 -15
zM858 0v756h236v-756h-236z" />
    <glyph glyph-name="f_f_i" unicode="ffi" horiz-adv-x="1144" 
d="M814 598c-12 5 -29 9 -45 9c-45 0 -61 -32 -61 -74v-7h111v-165h-111v-361h-230v361h-158v-361h-230v361h-90v165h90v12c0 132 54 248 246 248c31 0 77 -4 105 -15l-15 -173c-12 5 -29 9 -45 9c-45 0 -61 -32 -61 -74v-7h158v12c0 132 54 248 246 248c31 0 77 -4 105 -15
zM859 0v526h231v-526h-231zM855 678c0 64 55 118 121 118c63 0 118 -54 118 -118c0 -66 -55 -117 -118 -117c-66 0 -121 51 -121 117z" />
    <glyph glyph-name="f_f" unicode="ff" horiz-adv-x="812" 
d="M814 598c-12 5 -29 9 -45 9c-45 0 -61 -32 -61 -74v-7h111v-165h-111v-361h-230v361h-158v-361h-230v361h-90v165h90v12c0 132 54 248 246 248c31 0 77 -4 105 -15l-15 -173c-12 5 -29 9 -45 9c-45 0 -61 -32 -61 -74v-7h158v12c0 132 54 248 246 248c31 0 77 -4 105 -15
z" />
    <glyph glyph-name=".notdef" horiz-adv-x="512" 
d="M278 117h-56v67h56v-67zM271 234h-46l-2 17c0 37 4 64 13 81s24 37 46 59c43 41 50 58 50 83c0 48 -35 85 -76 85s-74 -27 -82 -95l-50 8c9 95 63 137 135 137c71 0 124 -52 124 -131c0 -43 -12 -73 -63 -120c-25 -22 -39 -39 -43 -52s-6 -37 -6 -72zM50 50h412v617h-412
v-617zM0 718h512v-718h-512v718z" />
    <glyph glyph-name=".null" horiz-adv-x="500" 
 />
    <glyph glyph-name=".null" horiz-adv-x="500" 
 />
    <glyph glyph-name="CR" unicode="&#xd;" horiz-adv-x="0" 
 />
    <glyph glyph-name="space" unicode=" " horiz-adv-x="250" 
 />
    <glyph glyph-name="exclam" unicode="!" horiz-adv-x="448" 
d="M224 -16c-69 0 -124 53 -124 121c0 66 55 121 124 121s124 -55 124 -121c0 -68 -55 -121 -124 -121zM104 260v448h240v-448h-240z" />
    <glyph glyph-name="quotedbl" unicode="&#x22;" horiz-adv-x="556" 
d="M303 426v282h172v-282h-172zM81 426v282h173v-282h-173z" />
    <glyph glyph-name="numbersign" unicode="#" horiz-adv-x="620" 
d="M480 387l-9 -66h77v-134h-95l-27 -187h-145l26 187h-40l-27 -187h-145l26 187h-76v134h95l10 66h-77v134h95l26 187h146l-27 -187h41l27 187h145l-27 -187h76v-134h-95zM294 387l-9 -66h41l10 66h-42z" />
    <glyph glyph-name="dollar" unicode="$" horiz-adv-x="700" 
d="M401 714c87 -5 180 -40 248 -100l-148 -147c-32 39 -85 59 -122 59c-35 0 -58 -9 -58 -31c0 -21 21 -27 70 -43c102 -32 239 -76 239 -218c0 -149 -115 -231 -240 -241v-76h-102v75c-93 7 -186 46 -248 99l145 154c33 -35 94 -67 152 -67c27 0 53 8 53 32
c0 26 -25 35 -125 67c-96 32 -183 81 -183 202c0 141 104 215 217 233v74h102v-72z" />
    <glyph glyph-name="percent" unicode="%" horiz-adv-x="935" 
d="M224 333c-108 0 -197 86 -197 193c0 109 89 194 197 194s196 -85 196 -194c0 -107 -88 -193 -196 -193zM224 586c-32 0 -60 -27 -60 -60c0 -32 28 -58 60 -58c31 0 59 26 59 58c0 33 -28 60 -59 60zM711 -12c-108 0 -197 86 -197 193c0 109 89 194 197 194
s196 -85 196 -194c0 -107 -88 -193 -196 -193zM711 241c-32 0 -60 -27 -60 -60c0 -32 28 -58 60 -58c31 0 59 26 59 58c0 33 -28 60 -59 60zM306 -37l-98 53l420 723l97 -55z" />
    <glyph glyph-name="ampersand" unicode="&#x26;" horiz-adv-x="840" 
d="M569 0l-49 51c-43 -37 -109 -65 -200 -65c-135 0 -280 61 -280 219c0 92 62 156 139 189c-39 34 -69 84 -69 145c0 138 139 189 254 189c117 0 245 -53 245 -192c0 -88 -63 -138 -137 -179l49 -46l55 79h249l-170 -207l192 -183h-278zM366 575c-30 0 -46 -22 -46 -46
c0 -22 14 -43 37 -60c30 12 53 34 53 60s-15 46 -44 46zM304 273c-18 -7 -39 -23 -39 -55c0 -39 37 -55 67 -55c25 0 49 9 60 21z" />
    <glyph glyph-name="quotesingle" unicode="'" horiz-adv-x="334" 
d="M81 426v282h172v-282h-172z" />
    <glyph glyph-name="parenleft" unicode="(" 
d="M18 288c0 162 50 334 149 470l153 -56c-88 -122 -133 -259 -133 -414s45 -292 133 -414l-153 -56c-99 136 -149 308 -149 470z" />
    <glyph glyph-name="parenright" unicode=")" 
d="M342 288c0 -162 -50 -334 -149 -470l-153 56c88 122 133 259 133 414s-45 292 -133 414l153 56c99 -136 149 -308 149 -470z" />
    <glyph glyph-name="asterisk" unicode="*" horiz-adv-x="527" 
d="M385 467l72 -93l-121 -83l-74 95l-71 -90l-120 83l74 89l-117 37l48 130l114 -38v111h149v-112l116 35l44 -130z" />
    <glyph glyph-name="plus" unicode="+" horiz-adv-x="666" 
d="M49 378h204v198h158v-198h206v-150h-204v-198h-158v198h-206v150z" />
    <glyph glyph-name="comma" unicode="," 
d="M200 -120h-186l82 313h218z" />
    <glyph glyph-name="hyphen" unicode="-" horiz-adv-x="336" 
d="M30 199v172h276v-172h-276z" />
    <glyph glyph-name="period" unicode="." 
d="M48 113c0 71 61 130 134 130c70 0 130 -59 130 -130c0 -73 -60 -129 -130 -129c-73 0 -134 56 -134 129z" />
    <glyph glyph-name="slash" unicode="/" horiz-adv-x="455" 
d="M154 -59l-157 48l303 778l158 -48z" />
    <glyph glyph-name="zero" unicode="0" horiz-adv-x="700" 
d="M350 -20c-260 0 -318 220 -318 378s58 370 318 370c261 0 318 -212 318 -370s-57 -378 -318 -378zM350 523c-59 0 -72 -90 -72 -165c0 -78 13 -171 72 -171c60 0 72 93 72 171c0 75 -12 165 -72 165z" />
    <glyph glyph-name="one" unicode="1" horiz-adv-x="700" 
d="M288 0v456l-119 -82l-112 174l251 160h220v-708h-240z" />
    <glyph glyph-name="two" unicode="2" horiz-adv-x="700" 
d="M66 185l280 224c22 17 39 39 39 62c0 26 -16 50 -52 50c-38 0 -66 -33 -69 -85l-227 26c18 184 165 266 316 266c140 0 285 -65 285 -231c0 -117 -67 -174 -138 -224l-104 -74h244v-199h-574v185z" />
    <glyph glyph-name="three" unicode="3" horiz-adv-x="700" 
d="M533 375v-4c73 -23 121 -90 121 -157c0 -166 -152 -234 -296 -234c-145 0 -287 66 -325 218l222 52c8 -35 41 -70 90 -70c27 0 62 12 62 48c0 43 -41 52 -103 52h-68v164h76c51 0 84 11 84 51c0 31 -30 41 -56 41c-33 0 -65 -21 -72 -61l-221 47c47 154 187 206 313 206
s281 -60 281 -209c0 -80 -49 -127 -108 -144z" />
    <glyph glyph-name="four" unicode="4" horiz-adv-x="700" 
d="M588 125v-125h-216v125h-341v194l268 389h288v-397h96v-186h-95zM375 490h-4l-118 -179h122v179z" />
    <glyph glyph-name="five" unicode="5" horiz-adv-x="700" 
d="M650 238c0 -196 -159 -258 -295 -258c-144 0 -287 79 -314 218l220 56c8 -39 42 -72 86 -72c34 0 66 14 66 54c0 48 -68 60 -126 60c-43 0 -124 -9 -185 -21l25 433h481v-198h-280l-4 -51c19 3 39 5 53 5c146 0 273 -68 273 -226z" />
    <glyph glyph-name="six" unicode="6" horiz-adv-x="700" 
d="M407 486h11c122 0 242 -85 242 -236c0 -178 -145 -270 -310 -270s-310 86 -310 268c0 89 41 168 88 233l162 227h289l-163 -211zM350 320c-43 0 -73 -31 -73 -71c0 -41 30 -73 73 -73c45 0 75 32 75 73c0 40 -30 71 -75 71z" />
    <glyph glyph-name="seven" unicode="7" horiz-adv-x="700" 
d="M392 0h-276l269 510h-304v198h564v-169z" />
    <glyph glyph-name="eight" unicode="8" horiz-adv-x="700" 
d="M350 551c-36 0 -58 -27 -58 -52c0 -27 22 -54 58 -54s58 27 58 54c0 25 -22 52 -58 52zM350 277c-41 0 -62 -28 -62 -59s21 -58 62 -58s62 27 62 58s-21 59 -62 59zM526 371v-3c67 -25 118 -85 118 -164c0 -161 -148 -224 -294 -224c-147 0 -294 62 -294 223
c0 77 48 135 118 164v3c-58 22 -106 76 -106 149c0 148 140 209 282 209c140 0 282 -61 282 -209c0 -73 -43 -127 -106 -148z" />
    <glyph glyph-name="nine" unicode="9" horiz-adv-x="700" 
d="M293 222h-11c-122 0 -242 85 -242 236c0 178 145 270 310 270s310 -86 310 -268c0 -89 -41 -168 -88 -233l-162 -227h-289l167 216zM350 390c43 0 73 31 73 71c0 41 -30 73 -73 73c-45 0 -75 -32 -75 -73c0 -40 30 -71 75 -71z" />
    <glyph glyph-name="colon" unicode=":" horiz-adv-x="380" 
d="M66 115c0 67 57 122 126 122c65 0 122 -55 122 -122c0 -68 -57 -121 -122 -121c-69 0 -126 53 -126 121zM66 409c0 67 57 122 126 122c65 0 122 -55 122 -122c0 -68 -57 -121 -122 -121c-69 0 -126 53 -126 121z" />
    <glyph glyph-name="semicolon" unicode=";" horiz-adv-x="380" 
d="M199 -120h-186l82 313h218zM66 409c0 67 57 122 126 122c65 0 122 -55 122 -122c0 -68 -57 -121 -122 -121c-69 0 -126 53 -126 121z" />
    <glyph glyph-name="less" unicode="&#x3c;" horiz-adv-x="666" 
d="M588 32l-510 203v134l510 203v-162c-91 -38 -183 -73 -274 -111l274 -103v-164z" />
    <glyph glyph-name="equal" unicode="=" horiz-adv-x="666" 
d="M56 472h554v-144h-554v144zM56 282h554v-144h-554v144z" />
    <glyph glyph-name="greater" unicode="&#x3e;" horiz-adv-x="666" 
d="M78 572l510 -203v-134l-510 -203v164l274 103c-91 38 -183 73 -274 111v162z" />
    <glyph glyph-name="question" unicode="?" horiz-adv-x="587" 
d="M304 -16c-69 0 -124 53 -124 121c0 66 55 121 124 121s124 -55 124 -121c0 -68 -55 -121 -124 -121zM446 328c-28 -17 -36 -33 -36 -50v-26h-213v37c0 79 41 117 98 157l17 12c21 15 33 28 33 44c0 28 -19 38 -42 38c-44 0 -61 -37 -61 -78l-215 28
c17 172 144 238 280 238c124 0 270 -52 270 -210c0 -92 -50 -141 -131 -190z" />
    <glyph glyph-name="at" unicode="@" horiz-adv-x="800" 
d="M481 534h136l-19 -108c-11 -54 -18 -93 -18 -113c0 -15 5 -30 24 -30c23 0 58 23 58 113c0 149 -100 224 -247 224c-155 0 -262 -113 -262 -266c0 -161 115 -262 278 -262c75 0 153 25 205 68l75 -85c-76 -63 -171 -93 -294 -93c-224 0 -392 153 -392 371
c0 213 176 373 389 373c196 0 368 -116 368 -332c0 -140 -78 -234 -215 -234c-53 0 -92 21 -106 59h-2c-14 -28 -55 -59 -113 -59c-91 0 -149 77 -149 179c0 114 72 223 186 223c52 0 83 -28 91 -52h2zM405 443c-32 0 -60 -49 -60 -100c0 -35 12 -60 41 -60
c38 0 60 53 60 97c0 35 -8 63 -41 63z" />
    <glyph glyph-name="A" unicode="A" horiz-adv-x="776" 
d="M-16 0l279 708h253l276 -708h-259l-37 104h-225l-35 -104h-252zM443 286l-57 175l-58 -175h115z" />
    <glyph glyph-name="B" unicode="B" horiz-adv-x="693" 
d="M347 523h-59v-87h64c33 0 57 15 57 47c0 27 -25 40 -62 40zM349 283h-61v-96h71c37 0 63 17 63 49c0 38 -44 47 -73 47zM529 371v-3c68 -16 133 -73 133 -161c0 -155 -137 -207 -275 -207h-321v708h291c115 0 276 -24 276 -188c0 -76 -42 -125 -104 -149z" />
    <glyph glyph-name="C" unicode="C" horiz-adv-x="696" 
d="M34 354c0 227 171 374 385 374c109 0 212 -38 277 -98l-146 -176c-26 35 -68 53 -117 53c-79 0 -143 -59 -143 -153c0 -92 66 -151 143 -151c54 0 95 26 117 57l146 -175c-63 -63 -159 -105 -277 -105c-214 0 -385 151 -385 374z" />
    <glyph glyph-name="D" unicode="D" horiz-adv-x="788" 
d="M350 0h-284v708h264c223 0 424 -79 424 -350c0 -249 -194 -358 -404 -358zM348 506h-53v-302h44c111 0 174 46 174 156c0 91 -65 146 -165 146z" />
    <glyph glyph-name="E" unicode="E" horiz-adv-x="603" 
d="M66 0v708h487v-198h-263v-61h247v-185h-247v-66h280v-198h-504z" />
    <glyph glyph-name="F" unicode="F" horiz-adv-x="581" 
d="M299 509v-75h216v-194h-215v-240h-234v708h478v-199h-245z" />
    <glyph glyph-name="G" unicode="G" horiz-adv-x="762" 
d="M426 -18c-223 0 -392 145 -392 372s171 374 384 374c110 0 217 -39 279 -101l-139 -167c-29 35 -68 57 -126 57c-78 0 -152 -65 -152 -163c0 -99 49 -167 162 -167c20 0 44 4 56 10v54h-114v187h325v-387c-66 -39 -177 -69 -283 -69z" />
    <glyph glyph-name="H" unicode="H" horiz-adv-x="802" 
d="M498 0v269h-194v-269h-238v708h237v-240h194v240h239v-708h-238z" />
    <glyph glyph-name="I" unicode="I" horiz-adv-x="372" 
d="M66 0v708h240v-708h-240z" />
    <glyph glyph-name="J" unicode="J" horiz-adv-x="573" 
d="M248 -20c-127 0 -235 78 -263 180l204 78c5 -21 19 -41 43 -41c30 0 39 23 39 55v456h239v-446c0 -127 -46 -282 -262 -282z" />
    <glyph glyph-name="K" unicode="K" horiz-adv-x="763" 
d="M489 0l-189 282h-2v-282h-232v708h231v-261h2l189 261h280l-266 -324l279 -384h-292z" />
    <glyph glyph-name="L" unicode="L" horiz-adv-x="549" 
d="M66 0v708h240v-504h235v-204h-475z" />
    <glyph glyph-name="M" unicode="M" horiz-adv-x="1008" 
d="M282 400h-5l11 -400h-222v708h311l128 -381h5l111 381h321v-708h-231l7 398l-6 1l-132 -399h-168z" />
    <glyph glyph-name="N" unicode="N" horiz-adv-x="791" 
d="M66 0v708h237l202 -359h4l-10 359h226v-708h-243l-196 338h-4l10 -338h-226z" />
    <glyph glyph-name="O" unicode="O" horiz-adv-x="855" 
d="M34 358c0 227 169 370 393 370s394 -143 394 -370s-170 -378 -394 -378s-393 151 -393 378zM287 358c0 -92 59 -158 140 -158c80 0 140 66 140 158s-60 152 -140 152c-81 0 -140 -60 -140 -152z" />
    <glyph glyph-name="P" unicode="P" horiz-adv-x="684" 
d="M370 228h-67v-228h-237v708h304c144 0 290 -55 290 -238c0 -175 -143 -242 -290 -242zM353 523h-50v-114h50c36 0 72 17 72 59c0 45 -36 55 -72 55z" />
    <glyph glyph-name="Q" unicode="Q" horiz-adv-x="864" 
d="M740 184v-4l112 7v-187h-438c-224 0 -380 127 -380 362c0 217 169 366 393 366s387 -148 387 -357c0 -81 -39 -157 -74 -187zM287 358c0 -92 59 -158 140 -158c80 0 140 66 140 158s-60 152 -140 152c-81 0 -140 -60 -140 -152z" />
    <glyph glyph-name="R" unicode="R" horiz-adv-x="714" 
d="M66 0v708h305c140 0 286 -50 286 -230c0 -86 -45 -155 -124 -191l180 -287h-274l-136 253h-7v-253h-230zM294 523v-114h47c33 0 83 8 83 59c0 50 -43 55 -73 55h-57z" />
    <glyph glyph-name="S" unicode="S" horiz-adv-x="617" 
d="M298 -20c-114 0 -226 43 -298 107l145 158c33 -36 94 -69 152 -69c27 0 53 8 53 33c0 26 -25 36 -125 69c-96 32 -183 83 -183 207c0 176 158 243 297 243c93 0 197 -38 270 -105l-148 -151c-32 40 -85 61 -122 61c-35 0 -58 -9 -58 -32c0 -21 21 -28 70 -44
c102 -33 239 -78 239 -224c0 -171 -149 -253 -292 -253z" />
    <glyph glyph-name="T" unicode="T" horiz-adv-x="600" 
d="M419 507v-507h-238v507h-174v201h586v-201h-174z" />
    <glyph glyph-name="U" unicode="U" horiz-adv-x="775" 
d="M384 -20c-221 0 -328 130 -328 298v430h238v-404c0 -67 34 -108 94 -108s94 41 94 108v404h237v-430c0 -168 -114 -298 -335 -298z" />
    <glyph glyph-name="V" unicode="V" horiz-adv-x="739" 
d="M235 0l-251 708h269l117 -438h4l112 438h269l-256 -708h-264z" />
    <glyph glyph-name="W" unicode="W" horiz-adv-x="1077" 
d="M536 400l-103 -400h-240l-193 708h252l76 -398h4l82 398h249l89 -398h4l77 398h244l-197 -708h-240l-100 400h-4z" />
    <glyph glyph-name="X" unicode="X" horiz-adv-x="800" 
d="M521 0l-128 207l-123 -207h-282l253 369l-240 339h287l112 -186l107 186h280l-236 -336l261 -372h-291z" />
    <glyph glyph-name="Y" unicode="Y" horiz-adv-x="738" 
d="M481 290v-290h-238v290l-267 418h287l112 -208l107 208h280z" />
    <glyph glyph-name="Z" unicode="Z" horiz-adv-x="672" 
d="M44 0v199l265 312h-254v197h565v-172l-282 -333h290v-203h-584z" />
    <glyph glyph-name="bracketleft" unicode="[" 
d="M42 -156v888h252v-137h-87v-614h87v-137h-252z" />
    <glyph glyph-name="backslash" unicode="\" horiz-adv-x="455" 
d="M301 -59l-304 778l158 48l303 -778z" />
    <glyph glyph-name="bracketright" unicode="]" 
d="M318 732v-888h-252v137h87v614h-87v137h252z" />
    <glyph glyph-name="asciicircum" unicode="^" horiz-adv-x="714" 
d="M255 343h-178l203 365h154c68 -122 133 -243 201 -365h-178l-101 187z" />
    <glyph glyph-name="underscore" unicode="_" horiz-adv-x="500" 
d="M0 -185v110h500v-110h-500z" />
    <glyph glyph-name="grave" unicode="`" 
d="M118 584l-154 144h212l111 -144h-169z" />
    <glyph glyph-name="a" unicode="a" horiz-adv-x="591" 
d="M347 218h-13c-68 0 -113 -12 -113 -52c0 -29 31 -41 53 -41c44 0 73 31 73 75v18zM332 332v2c0 32 -24 47 -60 47c-42 0 -82 -21 -111 -45l-115 114c63 61 157 96 250 96c200 0 253 -121 253 -269v-277h-209v42h-2c-26 -40 -83 -56 -129 -56c-82 0 -183 44 -183 169
c0 147 167 177 306 177z" />
    <glyph glyph-name="b" unicode="b" horiz-adv-x="694" 
d="M662 265c0 -139 -83 -279 -240 -279c-65 0 -130 27 -160 69h-2v-55h-207v756h230v-272h2c31 36 87 56 137 56c157 0 240 -140 240 -275zM448 265c0 46 -31 87 -86 87c-54 0 -90 -41 -90 -87c0 -49 36 -89 90 -89c55 0 86 39 86 89z" />
    <glyph glyph-name="c" unicode="c" horiz-adv-x="526" 
d="M339 -20c-178 0 -307 111 -307 283c0 171 134 283 310 283c72 0 151 -26 191 -57l-115 -166c-16 19 -45 29 -69 29c-44 0 -90 -30 -90 -89s46 -87 90 -87c27 0 54 11 70 28l116 -162c-44 -35 -119 -62 -196 -62z" />
    <glyph glyph-name="d" unicode="d" horiz-adv-x="694" 
d="M32 265c0 135 83 275 240 275c50 0 106 -20 137 -56h2v272h230v-756h-207v55h-2c-30 -42 -95 -69 -160 -69c-157 0 -240 140 -240 279zM246 265c0 -50 31 -89 86 -89c54 0 90 40 90 89c0 46 -36 87 -90 87c-55 0 -86 -41 -86 -87z" />
    <glyph glyph-name="e" unicode="e" horiz-adv-x="630" 
d="M244 333h159c0 37 -30 64 -76 64c-51 0 -79 -35 -83 -64zM602 258c0 -17 -1 -37 -2 -49h-354c4 -37 48 -60 90 -60s72 19 86 37l164 -83c-46 -75 -139 -123 -256 -123c-153 0 -298 97 -298 283c0 174 131 283 293 283c165 0 277 -122 277 -288z" />
    <glyph glyph-name="f" unicode="f" horiz-adv-x="424" 
d="M426 598c-12 5 -29 9 -45 9c-45 0 -61 -32 -61 -74v-7h111v-165h-111v-361h-230v361h-90v165h90v12c0 132 54 248 246 248c31 0 77 -4 105 -15z" />
    <glyph glyph-name="g" unicode="g" horiz-adv-x="697" 
d="M32 265c0 135 83 275 240 275c55 0 115 -21 149 -67h3v53h217v-472c0 -230 -164 -294 -328 -294c-100 0 -207 27 -281 77l101 153c50 -39 110 -56 160 -56c67 0 124 35 124 99v23h-3c-25 -29 -78 -56 -142 -56c-162 0 -240 123 -240 265zM246 265c0 -50 31 -89 86 -89
c54 0 90 40 90 89c0 46 -36 87 -90 87c-55 0 -86 -41 -86 -87z" />
    <glyph glyph-name="h" unicode="h" horiz-adv-x="666" 
d="M430 540c148 0 188 -116 188 -220v-320h-232v280c0 53 -17 72 -50 72c-27 0 -52 -22 -52 -73v-279h-231v756h231v-288h2c26 39 78 72 144 72z" />
    <glyph glyph-name="i" unicode="i" horiz-adv-x="339" 
d="M54 0v526h231v-526h-231zM50 678c0 64 55 118 121 118c63 0 118 -54 118 -118c0 -66 -55 -117 -118 -117c-66 0 -121 51 -121 117z" />
    <glyph glyph-name="j" unicode="j" horiz-adv-x="346" 
d="M292 12c0 -135 -50 -252 -237 -252c-26 0 -69 4 -96 12l12 188c14 -4 28 -5 37 -5c35 0 53 18 53 64v507h231v-514zM57 678c0 64 55 118 120 118c64 0 119 -54 119 -118c0 -66 -55 -117 -119 -117c-65 0 -120 51 -120 117z" />
    <glyph glyph-name="k" unicode="k" horiz-adv-x="670" 
d="M287 229h-3v-229h-231v756h231v-431h3l125 201h268l-170 -237l169 -289h-269z" />
    <glyph glyph-name="l" unicode="l" horiz-adv-x="342" 
d="M53 0v756h236v-756h-236z" />
    <glyph glyph-name="m" unicode="m" horiz-adv-x="976" 
d="M606 0h-231v276c0 53 -12 76 -43 76c-22 0 -48 -18 -48 -73v-279h-231v526h225v-58h2c26 34 78 72 149 72c69 0 121 -24 150 -76c34 43 83 76 160 76c150 0 189 -133 189 -220v-320h-231v280c0 57 -14 72 -43 72c-27 0 -48 -25 -48 -73v-279z" />
    <glyph glyph-name="n" unicode="n" horiz-adv-x="666" 
d="M53 0v526h225v-58h2c26 39 83 72 150 72c148 0 188 -116 188 -220v-320h-232v280c0 53 -17 72 -50 72c-30 0 -52 -26 -52 -72v-280h-231z" />
    <glyph glyph-name="o" unicode="o" horiz-adv-x="664" 
d="M632 265c0 -182 -142 -285 -301 -285c-158 0 -299 103 -299 285c0 180 141 281 299 281c159 0 301 -101 301 -281zM331 352c-50 0 -85 -41 -85 -87c0 -49 36 -89 86 -89s86 40 86 89c0 46 -37 87 -87 87z" />
    <glyph glyph-name="p" unicode="p" horiz-adv-x="694" 
d="M423 -14c-52 0 -107 20 -139 55h-2v-281h-229v766h217v-53h2c39 44 98 67 150 67c157 0 240 -140 240 -275c0 -139 -82 -279 -239 -279zM448 265c0 46 -31 87 -86 87c-54 0 -90 -41 -90 -87c0 -49 36 -89 90 -89c55 0 86 39 86 89z" />
    <glyph glyph-name="q" unicode="q" horiz-adv-x="694" 
d="M271 -14c-157 0 -239 140 -239 279c0 135 83 275 240 275c52 0 111 -23 150 -67h2v53h217v-766h-229v281h-2c-32 -35 -87 -55 -139 -55zM246 265c0 -50 31 -89 86 -89c54 0 90 40 90 89c0 46 -36 87 -90 87c-55 0 -86 -41 -86 -87z" />
    <glyph glyph-name="r" unicode="r" horiz-adv-x="445" 
d="M53 0v526h222v-60h2c23 42 69 74 129 74c17 0 34 -2 44 -5l-18 -196c-14 4 -34 6 -49 6c-60 0 -99 -40 -99 -90v-255h-231z" />
    <glyph glyph-name="s" unicode="s" horiz-adv-x="513" 
d="M484 167c0 -141 -135 -187 -233 -187c-90 0 -184 27 -247 75l113 131c32 -29 79 -49 119 -49c16 0 33 5 33 21c0 17 -22 25 -83 39c-66 15 -148 59 -148 160c0 137 135 189 231 189c81 0 165 -25 229 -68l-108 -129c-33 21 -69 34 -102 34c-22 0 -39 -5 -39 -22
c0 -13 10 -18 70 -30c83 -17 165 -63 165 -164z" />
    <glyph glyph-name="t" unicode="t" horiz-adv-x="421" 
d="M282 -14c-140 0 -208 60 -208 187v188h-74v165h73v118h224v-118h114v-165h-114v-140c0 -51 23 -65 62 -65c15 0 33 3 42 6v-158c-24 -10 -71 -18 -119 -18z" />
    <glyph glyph-name="u" unicode="u" horiz-adv-x="663" 
d="M610 526v-526h-225v58h-2c-26 -39 -83 -72 -150 -72c-148 0 -188 116 -188 220v320h232v-278c0 -53 17 -72 50 -72c30 0 52 26 52 72v278h231z" />
    <glyph glyph-name="v" unicode="v" horiz-adv-x="638" 
d="M192 0l-200 526h256l75 -284h4l72 284h247l-203 -526h-251z" />
    <glyph glyph-name="w" unicode="w" horiz-adv-x="973" 
d="M483 270l-79 -270h-229l-180 526h247l66 -272h4l68 272h222l73 -272h3l64 272h236l-182 -526h-230l-81 270h-2z" />
    <glyph glyph-name="x" unicode="x" horiz-adv-x="675" 
d="M419 0l-81 119l-86 -119h-260l203 270l-189 256h262l76 -110l75 110h254l-189 -256l199 -270h-264z" />
    <glyph glyph-name="y" unicode="y" horiz-adv-x="638" 
d="M201 9l4 11l-213 506h256l78 -277h4l69 277h247l-216 -558c-51 -131 -121 -208 -276 -208c-48 0 -104 9 -131 16l29 190c17 -6 45 -12 65 -12c51 0 72 23 84 55z" />
    <glyph glyph-name="z" unicode="z" horiz-adv-x="557" 
d="M33 0v161l197 194h-192v171h479v-150l-213 -205h219v-171h-490z" />
    <glyph glyph-name="braceleft" unicode="{" 
d="M0 217v142c40 0 66 13 66 70v132c0 90 42 171 148 171h96v-137h-34c-39 0 -51 -31 -51 -60v-135c0 -78 -53 -107 -85 -111v-2c32 -4 85 -33 85 -111v-135c0 -29 12 -60 51 -60h34v-137h-96c-106 0 -148 81 -148 171v132c0 57 -26 70 -66 70z" />
    <glyph glyph-name="bar" unicode="|" horiz-adv-x="269" 
d="M49 -250v1000h172v-1000h-172z" />
    <glyph glyph-name="braceright" unicode="}" 
d="M360 359v-142c-40 0 -65 -13 -65 -70v-132c0 -90 -43 -171 -149 -171h-96v137h34c39 0 50 31 50 60v135c0 78 53 107 85 111v2c-32 4 -85 33 -85 111v135c0 29 -11 60 -50 60h-34v137h96c106 0 149 -81 149 -171v-132c0 -57 25 -70 65 -70z" />
    <glyph glyph-name="asciitilde" unicode="~" horiz-adv-x="666" 
d="M355 384c56 -36 66 -35 94 -35c32 0 63 27 84 67l74 -135c-47 -77 -106 -106 -159 -106c-43 0 -77 10 -121 38c-53 33 -72 34 -93 34c-28 0 -76 -19 -101 -66l-74 135c49 81 124 106 176 106c49 0 79 -11 120 -38z" />
    <glyph glyph-name="uni00A0" unicode="&#xa0;" horiz-adv-x="250" 
 />
    <glyph glyph-name="Agrave" unicode="&#xc0;" horiz-adv-x="776" 
d="M-16 0l279 708h253l276 -708h-259l-37 104h-225l-35 -104h-252zM443 286l-57 175l-58 -175h115zM331 764l-154 144h212l111 -144h-169z" />
    <glyph glyph-name="Aacute" unicode="&#xc1;" horiz-adv-x="776" 
d="M-16 0l279 708h253l276 -708h-259l-37 104h-225l-35 -104h-252zM443 286l-57 175l-58 -175h115zM447 764h-169l111 144h212z" />
    <glyph glyph-name="Acircumflex" unicode="&#xc2;" horiz-adv-x="776" 
d="M-16 0l279 708h253l276 -708h-259l-37 104h-225l-35 -104h-252zM443 286l-57 175l-58 -175h115zM456 764l-67 68l-67 -68h-152l137 144h169l134 -144h-154z" />
    <glyph glyph-name="Atilde" unicode="&#xc3;" horiz-adv-x="776" 
d="M-16 0l279 708h253l276 -708h-259l-37 104h-225l-35 -104h-252zM443 286l-57 175l-58 -175h115zM578 900c-4 -79 -45 -139 -114 -139c-28 0 -53 8 -81 23c-32 17 -43 22 -63 22c-21 0 -33 -16 -37 -36h-80c4 76 44 136 113 136c30 0 54 -9 83 -24c31 -16 44 -22 65 -22
s30 13 35 40h79z" />
    <glyph glyph-name="Adieresis" unicode="&#xc4;" horiz-adv-x="776" 
d="M-16 0l279 708h253l276 -708h-259l-37 104h-225l-35 -104h-252zM443 286l-57 175l-58 -175h115zM415 858c0 54 46 99 101 99c53 0 99 -45 99 -99c0 -55 -46 -98 -99 -98c-55 0 -101 43 -101 98zM166 858c0 54 46 99 101 99c53 0 99 -45 99 -99c0 -55 -46 -98 -99 -98
c-55 0 -101 43 -101 98z" />
    <glyph glyph-name="Amacron" unicode="&#x100;" horiz-adv-x="776" 
d="M-16 0l279 708h253l276 -708h-259l-37 104h-225l-35 -104h-252zM443 286l-57 175l-58 -175h115zM206 791v96h360v-96h-360z" />
    <glyph glyph-name="Abreve" unicode="&#x102;" horiz-adv-x="776" 
d="M-16 0l279 708h253l276 -708h-259l-37 104h-225l-35 -104h-252zM443 286l-57 175l-58 -175h115zM385 764c-87 0 -172 31 -180 144h110c3 -33 43 -39 70 -39c28 0 67 6 70 39h110c-8 -113 -92 -144 -180 -144z" />
    <glyph glyph-name="Aring" unicode="&#xc5;" horiz-adv-x="776" 
d="M-16 0l279 708h253l276 -708h-259l-37 104h-225l-35 -104h-252zM443 286l-57 175l-58 -175h115zM504 857c0 -65 -53 -114 -115 -114s-115 49 -115 114s53 114 115 114s115 -49 115 -114zM449 857c0 33 -27 59 -60 59s-60 -26 -60 -59s27 -59 60 -59s60 26 60 59z" />
    <glyph glyph-name="Aogonek" unicode="&#x104;" horiz-adv-x="776" 
d="M541 -240c-54 0 -127 19 -127 94c0 64 65 111 119 146l-37 104h-225l-35 -104h-252l279 708h253l276 -708h-122c-85 -60 -113 -88 -113 -112c0 -15 8 -20 23 -20c19 0 36 6 56 18l44 -83c-37 -24 -88 -43 -139 -43zM443 286l-57 175l-58 -175h115z" />
    <glyph glyph-name="AE" unicode="&#xc6;" horiz-adv-x="1014" 
d="M492 0v104h-177l-49 -104h-266l354 708h610v-198h-253v-61h237v-185h-237v-66h270v-198h-489zM488 510l-102 -224h106v224h-4z" />
    <glyph glyph-name="Cacute" unicode="&#x106;" horiz-adv-x="696" 
d="M34 354c0 227 171 374 385 374c109 0 212 -38 277 -98l-146 -176c-26 35 -68 53 -117 53c-79 0 -143 -59 -143 -153c0 -92 66 -151 143 -151c54 0 95 26 117 57l146 -175c-63 -63 -159 -105 -277 -105c-214 0 -385 151 -385 374zM484 764h-169l111 144h212z" />
    <glyph glyph-name="Ccircumflex" unicode="&#x108;" horiz-adv-x="696" 
d="M34 354c0 227 171 374 385 374c109 0 212 -38 277 -98l-146 -176c-26 35 -68 53 -117 53c-79 0 -143 -59 -143 -153c0 -92 66 -151 143 -151c54 0 95 26 117 57l146 -175c-63 -63 -159 -105 -277 -105c-214 0 -385 151 -385 374zM499 764l-67 68l-67 -68h-152l137 144
h169l134 -144h-154z" />
    <glyph glyph-name="Ccaron" unicode="&#x10c;" horiz-adv-x="696" 
d="M34 354c0 227 171 374 385 374c109 0 212 -38 277 -98l-146 -176c-26 35 -68 53 -117 53c-79 0 -143 -59 -143 -153c0 -92 66 -151 143 -151c54 0 95 26 117 57l146 -175c-63 -63 -159 -105 -277 -105c-214 0 -385 151 -385 374zM500 908h154l-134 -144h-169l-137 144
h152l67 -68z" />
    <glyph glyph-name="Cdotaccent" unicode="&#x10a;" horiz-adv-x="696" 
d="M34 354c0 227 171 374 385 374c109 0 212 -38 277 -98l-146 -176c-26 35 -68 53 -117 53c-79 0 -143 -59 -143 -153c0 -92 66 -151 143 -151c54 0 95 26 117 57l146 -175c-63 -63 -159 -105 -277 -105c-214 0 -385 151 -385 374zM318 858c0 58 49 106 109 106
c57 0 106 -48 106 -106c0 -59 -49 -105 -106 -105c-60 0 -109 46 -109 105z" />
    <glyph glyph-name="Ccedilla" unicode="&#xc7;" horiz-adv-x="696" 
d="M389 -240c-42 0 -98 9 -133 23l34 78c23 -10 60 -16 85 -16c20 0 40 5 40 21c0 14 -19 18 -37 18c-14 0 -29 -2 -41 -6l-44 34l62 73c-183 26 -321 168 -321 369c0 227 171 374 385 374c109 0 212 -38 277 -98l-146 -176c-26 35 -68 53 -117 53c-79 0 -143 -59 -143 -153
c0 -92 66 -151 143 -151c54 0 95 26 117 57l146 -175c-54 -54 -132 -92 -228 -102l-33 -36c5 1 10 1 16 1c45 0 102 -17 102 -85c0 -82 -98 -103 -164 -103z" />
    <glyph glyph-name="Dcaron" unicode="&#x10e;" horiz-adv-x="788" 
d="M350 0h-284v708h264c223 0 424 -79 424 -350c0 -249 -194 -358 -404 -358zM348 506h-53v-302h44c111 0 174 46 174 156c0 91 -65 146 -165 146zM427 908h154l-134 -144h-169l-137 144h152l67 -68z" />
    <glyph glyph-name="Dcroat" unicode="&#x110;" horiz-adv-x="788" 
d="M66 286h-54v142h54v280h264c223 0 424 -79 424 -350c0 -249 -194 -358 -404 -358h-284v286zM295 428h128v-142h-128v-82h44c111 0 174 46 174 156c0 91 -65 146 -165 146h-53v-78z" />
    <glyph glyph-name="Eth" unicode="&#xd0;" horiz-adv-x="788" 
d="M66 286h-54v142h54v280h264c223 0 424 -79 424 -350c0 -249 -194 -358 -404 -358h-284v286zM295 428h128v-142h-128v-82h44c111 0 174 46 174 156c0 91 -65 146 -165 146h-53v-78z" />
    <glyph glyph-name="Egrave" unicode="&#xc8;" horiz-adv-x="603" 
d="M66 0v708h487v-198h-263v-61h247v-185h-247v-66h280v-198h-504zM262 764l-154 144h212l111 -144h-169z" />
    <glyph glyph-name="Eacute" unicode="&#xc9;" horiz-adv-x="603" 
d="M66 0v708h487v-198h-263v-61h247v-185h-247v-66h280v-198h-504zM361 764h-169l111 144h212z" />
    <glyph glyph-name="Ecircumflex" unicode="&#xca;" horiz-adv-x="603" 
d="M66 0v708h487v-198h-263v-61h247v-185h-247v-66h280v-198h-504zM378 764l-67 68l-67 -68h-152l137 144h169l134 -144h-154z" />
    <glyph glyph-name="Ecaron" unicode="&#x11a;" horiz-adv-x="603" 
d="M66 0v708h487v-198h-263v-61h247v-185h-247v-66h280v-198h-504zM379 908h154l-134 -144h-169l-137 144h152l67 -68z" />
    <glyph glyph-name="Edieresis" unicode="&#xcb;" horiz-adv-x="603" 
d="M66 0v708h487v-198h-263v-61h247v-185h-247v-66h280v-198h-504zM336 858c0 54 46 99 101 99c53 0 99 -45 99 -99c0 -55 -46 -98 -99 -98c-55 0 -101 43 -101 98zM87 858c0 54 46 99 101 99c53 0 99 -45 99 -99c0 -55 -46 -98 -99 -98c-55 0 -101 43 -101 98z" />
    <glyph glyph-name="Emacron" unicode="&#x112;" horiz-adv-x="603" 
d="M66 0v708h487v-198h-263v-61h247v-185h-247v-66h280v-198h-504zM126 791v96h360v-96h-360z" />
    <glyph glyph-name="Ebreve" unicode="&#x114;" horiz-adv-x="603" 
d="M66 0v708h487v-198h-263v-61h247v-185h-247v-66h280v-198h-504zM313 764c-87 0 -172 31 -180 144h110c3 -33 43 -39 70 -39c28 0 67 6 70 39h110c-8 -113 -92 -144 -180 -144z" />
    <glyph glyph-name="Edotaccent" unicode="&#x116;" horiz-adv-x="603" 
d="M66 0v708h487v-198h-263v-61h247v-185h-247v-66h280v-198h-504zM207 858c0 58 49 106 109 106c57 0 106 -48 106 -106c0 -59 -49 -105 -106 -105c-60 0 -109 46 -109 105z" />
    <glyph glyph-name="Eogonek" unicode="&#x118;" horiz-adv-x="603" 
d="M66 0v708h487v-198h-263v-61h247v-185h-247v-66h280v-198h-22c-85 -60 -113 -88 -113 -112c0 -15 8 -20 23 -20c19 0 36 6 56 18l44 -83c-37 -24 -88 -43 -139 -43c-54 0 -127 19 -127 94c0 64 65 111 119 146h-345z" />
    <glyph glyph-name="Gcircumflex" unicode="&#x11c;" horiz-adv-x="762" 
d="M426 -18c-223 0 -392 145 -392 372s171 374 384 374c110 0 217 -39 279 -101l-139 -167c-29 35 -68 57 -126 57c-78 0 -152 -65 -152 -163c0 -99 49 -167 162 -167c20 0 44 4 56 10v54h-114v187h325v-387c-66 -39 -177 -69 -283 -69zM497 764l-67 68l-67 -68h-152
l137 144h169l134 -144h-154z" />
    <glyph glyph-name="Gbreve" unicode="&#x11e;" horiz-adv-x="762" 
d="M426 -18c-223 0 -392 145 -392 372s171 374 384 374c110 0 217 -39 279 -101l-139 -167c-29 35 -68 57 -126 57c-78 0 -152 -65 -152 -163c0 -99 49 -167 162 -167c20 0 44 4 56 10v54h-114v187h325v-387c-66 -39 -177 -69 -283 -69zM421 764c-87 0 -172 31 -180 144h110
c3 -33 43 -39 70 -39c28 0 67 6 70 39h110c-8 -113 -92 -144 -180 -144z" />
    <glyph glyph-name="Gdotaccent" unicode="&#x120;" horiz-adv-x="762" 
d="M426 -18c-223 0 -392 145 -392 372s171 374 384 374c110 0 217 -39 279 -101l-139 -167c-29 35 -68 57 -126 57c-78 0 -152 -65 -152 -163c0 -99 49 -167 162 -167c20 0 44 4 56 10v54h-114v187h325v-387c-66 -39 -177 -69 -283 -69zM309 858c0 58 49 106 109 106
c57 0 106 -48 106 -106c0 -59 -49 -105 -106 -105c-60 0 -109 46 -109 105z" />
    <glyph glyph-name="Gcommaaccent" unicode="&#x122;" horiz-adv-x="762" 
d="M426 -18c-223 0 -392 145 -392 372s171 374 384 374c110 0 217 -39 279 -101l-139 -167c-29 35 -68 57 -126 57c-78 0 -152 -65 -152 -163c0 -99 49 -167 162 -167c20 0 44 4 56 10v54h-114v187h325v-387c-66 -39 -177 -69 -283 -69zM337 -45h189l-93 -195h-164z" />
    <glyph glyph-name="Hcircumflex" unicode="&#x124;" horiz-adv-x="802" 
d="M498 0v269h-194v-269h-238v708h237v-240h194v240h239v-708h-238zM468 764l-67 68l-67 -68h-152l137 144h169l134 -144h-154z" />
    <glyph glyph-name="Hbar" unicode="&#x126;" horiz-adv-x="802" 
d="M498 0v269h-194v-269h-238v708h237v-78h194v78h239v-708h-238zM303 468h194v52h-194v-52z" />
    <glyph glyph-name="Igrave" unicode="&#xcc;" horiz-adv-x="372" 
d="M66 0v708h240v-708h-240zM136 764l-154 144h212l111 -144h-169z" />
    <glyph glyph-name="Iacute" unicode="&#xcd;" horiz-adv-x="372" 
d="M66 0v708h240v-708h-240zM235 764h-169l111 144h212z" />
    <glyph glyph-name="Icircumflex" unicode="&#xce;" horiz-adv-x="372" 
d="M66 0v708h240v-708h-240zM254 764l-67 68l-67 -68h-152l137 144h169l134 -144h-154z" />
    <glyph glyph-name="Itilde" unicode="&#x128;" horiz-adv-x="372" 
d="M66 0v708h240v-708h-240zM374 900c-4 -79 -45 -139 -114 -139c-28 0 -53 8 -81 23c-32 17 -43 22 -63 22c-21 0 -33 -16 -37 -36h-80c4 76 44 136 113 136c30 0 54 -9 83 -24c31 -16 44 -22 65 -22s30 13 35 40h79z" />
    <glyph glyph-name="Idieresis" unicode="&#xcf;" horiz-adv-x="372" 
d="M66 0v708h240v-708h-240zM213 858c0 54 46 99 101 99c53 0 99 -45 99 -99c0 -55 -46 -98 -99 -98c-55 0 -101 43 -101 98zM-36 858c0 54 46 99 101 99c53 0 99 -45 99 -99c0 -55 -46 -98 -99 -98c-55 0 -101 43 -101 98z" />
    <glyph glyph-name="Imacron" unicode="&#x12a;" horiz-adv-x="372" 
d="M66 0v708h240v-708h-240zM6 791v96h360v-96h-360z" />
    <glyph glyph-name="Idotaccent" unicode="&#x130;" horiz-adv-x="372" 
d="M66 0v708h240v-708h-240zM78 858c0 58 49 106 109 106c57 0 106 -48 106 -106c0 -59 -49 -105 -106 -105c-60 0 -109 46 -109 105z" />
    <glyph glyph-name="Ibreve" unicode="&#x12c;" horiz-adv-x="372" 
d="M66 0v708h240v-708h-240zM186 764c-87 0 -172 31 -180 144h110c3 -33 43 -39 70 -39c28 0 67 6 70 39h110c-8 -113 -92 -144 -180 -144z" />
    <glyph glyph-name="Iogonek" unicode="&#x12e;" horiz-adv-x="372" 
d="M66 0v708h240v-708h-18c-85 -60 -113 -88 -113 -112c0 -15 8 -20 23 -20c19 0 36 6 56 18l44 -83c-37 -24 -88 -43 -139 -43c-54 0 -127 19 -127 94c0 64 65 111 119 146h-85z" />
    <glyph glyph-name="Jcircumflex" unicode="&#x134;" horiz-adv-x="573" 
d="M248 -20c-127 0 -235 78 -263 180l204 78c5 -21 19 -41 43 -41c30 0 39 23 39 55v456h239v-446c0 -127 -46 -282 -262 -282zM457 764l-67 68l-67 -68h-152l137 144h169l134 -144h-154z" />
    <glyph glyph-name="Kcommaaccent" unicode="&#x136;" horiz-adv-x="763" 
d="M489 0l-189 282h-2v-282h-232v708h231v-261h2l189 261h280l-266 -324l279 -384h-292zM317 -45h189l-93 -195h-164z" />
    <glyph glyph-name="Lacute" unicode="&#x139;" horiz-adv-x="549" 
d="M66 0v708h240v-504h235v-204h-475zM267 764h-169l111 144h212z" />
    <glyph glyph-name="Lcaron" unicode="&#x13d;" horiz-adv-x="549" 
d="M66 0v708h240v-504h235v-204h-475zM396 708h189l-87 -177h-164z" />
    <glyph glyph-name="Lcommaaccent" unicode="&#x13b;" horiz-adv-x="549" 
d="M66 0v708h240v-504h235v-204h-475zM220 -45h189l-93 -195h-164z" />
    <glyph glyph-name="Lslash" unicode="&#x141;" horiz-adv-x="549" 
d="M66 142l-55 -48v190l55 48v376h240v-204l170 146v-189l-170 -145v-112h235v-204h-475v142z" />
    <glyph glyph-name="Ldot" unicode="&#x13f;" horiz-adv-x="549" 
d="M66 0v708h240v-504h235v-204h-475zM347 458c0 58 49 106 109 106c57 0 106 -48 106 -106c0 -59 -49 -105 -106 -105c-60 0 -109 46 -109 105z" />
    <glyph glyph-name="Nacute" unicode="&#x143;" horiz-adv-x="791" 
d="M66 0v708h237l202 -359h4l-10 359h226v-708h-243l-196 338h-4l10 -338h-226zM457 764h-169l111 144h212z" />
    <glyph glyph-name="Ncaron" unicode="&#x147;" horiz-adv-x="791" 
d="M66 0v708h237l202 -359h4l-10 359h226v-708h-243l-196 338h-4l10 -338h-226zM464 908h154l-134 -144h-169l-137 144h152l67 -68z" />
    <glyph glyph-name="Ntilde" unicode="&#xd1;" horiz-adv-x="791" 
d="M66 0v708h237l202 -359h4l-10 359h226v-708h-243l-196 338h-4l10 -338h-226zM587 900c-4 -79 -45 -139 -114 -139c-28 0 -53 8 -81 23c-32 17 -43 22 -63 22c-21 0 -33 -16 -37 -36h-80c4 76 44 136 113 136c30 0 54 -9 83 -24c31 -16 44 -22 65 -22s30 13 35 40h79z" />
    <glyph glyph-name="Ncommaaccent" unicode="&#x145;" horiz-adv-x="791" 
d="M66 0v708h237l202 -359h4l-10 359h226v-708h-243l-196 338h-4l10 -338h-226zM315 -45h189l-93 -195h-164z" />
    <glyph glyph-name="Eng" unicode="&#x14a;" horiz-adv-x="791" 
d="M66 0v708h237l202 -351h4l-10 351h226v-708c0 -130 -56 -240 -237 -240c-26 0 -69 4 -96 12l12 188c14 -4 28 -5 37 -5c29 0 45 11 52 42l-207 341h-4l10 -338h-226z" />
    <glyph glyph-name="Ograve" unicode="&#xd2;" horiz-adv-x="855" 
d="M34 358c0 227 169 370 393 370s394 -143 394 -370s-170 -378 -394 -378s-393 151 -393 378zM287 358c0 -92 59 -158 140 -158c80 0 140 66 140 158s-60 152 -140 152c-81 0 -140 -60 -140 -152zM369 764l-154 144h212l111 -144h-169z" />
    <glyph glyph-name="Oacute" unicode="&#xd3;" horiz-adv-x="855" 
d="M34 358c0 227 169 370 393 370s394 -143 394 -370s-170 -378 -394 -378s-393 151 -393 378zM287 358c0 -92 59 -158 140 -158c80 0 140 66 140 158s-60 152 -140 152c-81 0 -140 -60 -140 -152zM488 764h-169l111 144h212z" />
    <glyph glyph-name="Ocircumflex" unicode="&#xd4;" horiz-adv-x="855" 
d="M34 358c0 227 169 370 393 370s394 -143 394 -370s-170 -378 -394 -378s-393 151 -393 378zM287 358c0 -92 59 -158 140 -158c80 0 140 66 140 158s-60 152 -140 152c-81 0 -140 -60 -140 -152zM493 764l-67 68l-67 -68h-152l137 144h169l134 -144h-154z" />
    <glyph glyph-name="Otilde" unicode="&#xd5;" horiz-adv-x="855" 
d="M34 358c0 227 169 370 393 370s394 -143 394 -370s-170 -378 -394 -378s-393 151 -393 378zM287 358c0 -92 59 -158 140 -158c80 0 140 66 140 158s-60 152 -140 152c-81 0 -140 -60 -140 -152zM615 900c-4 -79 -45 -139 -114 -139c-28 0 -53 8 -81 23
c-32 17 -43 22 -63 22c-21 0 -33 -16 -37 -36h-80c4 76 44 136 113 136c30 0 54 -9 83 -24c31 -16 44 -22 65 -22s30 13 35 40h79z" />
    <glyph glyph-name="Odieresis" unicode="&#xd6;" horiz-adv-x="855" 
d="M34 358c0 227 169 370 393 370s394 -143 394 -370s-170 -378 -394 -378s-393 151 -393 378zM287 358c0 -92 59 -158 140 -158c80 0 140 66 140 158s-60 152 -140 152c-81 0 -140 -60 -140 -152zM452 858c0 54 46 99 101 99c53 0 99 -45 99 -99c0 -55 -46 -98 -99 -98
c-55 0 -101 43 -101 98zM203 858c0 54 46 99 101 99c53 0 99 -45 99 -99c0 -55 -46 -98 -99 -98c-55 0 -101 43 -101 98z" />
    <glyph glyph-name="Omacron" unicode="&#x14c;" horiz-adv-x="855" 
d="M34 358c0 227 169 370 393 370s394 -143 394 -370s-170 -378 -394 -378s-393 151 -393 378zM287 358c0 -92 59 -158 140 -158c80 0 140 66 140 158s-60 152 -140 152c-81 0 -140 -60 -140 -152zM248 791v96h360v-96h-360z" />
    <glyph glyph-name="Obreve" unicode="&#x14e;" horiz-adv-x="855" 
d="M34 358c0 227 169 370 393 370s394 -143 394 -370s-170 -378 -394 -378s-393 151 -393 378zM287 358c0 -92 59 -158 140 -158c80 0 140 66 140 158s-60 152 -140 152c-81 0 -140 -60 -140 -152zM427 764c-87 0 -172 31 -180 144h110c3 -33 43 -39 70 -39c28 0 67 6 70 39
h110c-8 -113 -92 -144 -180 -144z" />
    <glyph glyph-name="Ohungarumlaut" unicode="&#x150;" horiz-adv-x="855" 
d="M34 358c0 227 169 370 393 370s394 -143 394 -370s-170 -378 -394 -378s-393 151 -393 378zM287 358c0 -92 59 -158 140 -158c80 0 140 66 140 158s-60 152 -140 152c-81 0 -140 -60 -140 -152zM395 764h-169l111 144h212zM638 764h-169l111 144h212z" />
    <glyph glyph-name="Oslash" unicode="&#xd8;" horiz-adv-x="855" 
d="M427 -20c-82 0 -162 20 -214 60l-93 -101l-94 80l92 100c-54 62 -84 145 -84 239c0 227 169 370 394 370c79 0 150 -19 210 -53l90 102l94 -81l-89 -96c59 -65 88 -144 88 -242c0 -227 -170 -378 -394 -378zM427 522c-102 0 -153 -80 -153 -167c0 -25 3 -47 9 -62
l201 220c-15 6 -36 9 -57 9zM425 191c102 0 153 79 153 166c0 25 -4 48 -10 63l-201 -220c15 -6 37 -9 58 -9z" />
    <glyph glyph-name="OE" unicode="&#x152;" horiz-adv-x="1007" 
d="M452 708h505v-198h-253v-61h238v-185h-238v-66h270v-198h-522c-223 0 -418 85 -418 356c0 249 195 352 418 352zM444 198h43v312h-34c-103 0 -168 -52 -168 -162c0 -91 67 -150 159 -150z" />
    <glyph glyph-name="Racute" unicode="&#x154;" horiz-adv-x="714" 
d="M66 0v708h305c140 0 286 -50 286 -230c0 -86 -45 -155 -124 -191l180 -287h-274l-136 253h-7v-253h-230zM294 523v-114h47c33 0 83 8 83 59c0 50 -43 55 -73 55h-57zM400 764h-169l111 144h212z" />
    <glyph glyph-name="Rcaron" unicode="&#x158;" horiz-adv-x="714" 
d="M66 0v708h305c140 0 286 -50 286 -230c0 -86 -45 -155 -124 -191l180 -287h-274l-136 253h-7v-253h-230zM294 523v-114h47c33 0 83 8 83 59c0 50 -43 55 -73 55h-57zM406 908h154l-134 -144h-169l-137 144h152l67 -68z" />
    <glyph glyph-name="Rcommaaccent" unicode="&#x156;" horiz-adv-x="714" 
d="M66 0v708h305c140 0 286 -50 286 -230c0 -86 -45 -155 -124 -191l180 -287h-274l-136 253h-7v-253h-230zM294 523v-114h47c33 0 83 8 83 59c0 50 -43 55 -73 55h-57zM282 -45h189l-93 -195h-164z" />
    <glyph glyph-name="Sacute" unicode="&#x15a;" horiz-adv-x="617" 
d="M298 -20c-114 0 -226 43 -298 107l145 158c33 -36 94 -69 152 -69c27 0 53 8 53 33c0 26 -25 36 -125 69c-96 32 -183 83 -183 207c0 176 158 243 297 243c93 0 197 -38 270 -105l-148 -151c-32 40 -85 61 -122 61c-35 0 -58 -9 -58 -32c0 -21 21 -28 70 -44
c102 -33 239 -78 239 -224c0 -171 -149 -253 -292 -253zM396 764h-169l111 144h212z" />
    <glyph glyph-name="Scircumflex" unicode="&#x15c;" horiz-adv-x="617" 
d="M298 -20c-114 0 -226 43 -298 107l145 158c33 -36 94 -69 152 -69c27 0 53 8 53 33c0 26 -25 36 -125 69c-96 32 -183 83 -183 207c0 176 158 243 297 243c93 0 197 -38 270 -105l-148 -151c-32 40 -85 61 -122 61c-35 0 -58 -9 -58 -32c0 -21 21 -28 70 -44
c102 -33 239 -78 239 -224c0 -171 -149 -253 -292 -253zM404 764l-67 68l-67 -68h-152l137 144h169l134 -144h-154z" />
    <glyph glyph-name="Scaron" unicode="&#x160;" horiz-adv-x="617" 
d="M298 -20c-114 0 -226 43 -298 107l145 158c33 -36 94 -69 152 -69c27 0 53 8 53 33c0 26 -25 36 -125 69c-96 32 -183 83 -183 207c0 176 158 243 297 243c93 0 197 -38 270 -105l-148 -151c-32 40 -85 61 -122 61c-35 0 -58 -9 -58 -32c0 -21 21 -28 70 -44
c102 -33 239 -78 239 -224c0 -171 -149 -253 -292 -253zM404 908h154l-134 -144h-169l-137 144h152l67 -68z" />
    <glyph glyph-name="Scedilla" unicode="&#x15e;" horiz-adv-x="617" 
d="M273 -240c-42 0 -98 9 -133 23l34 78c23 -10 60 -16 85 -16c20 0 40 5 40 21c0 14 -19 18 -37 18c-14 0 -29 -2 -41 -6l-44 34l61 72c-92 12 -179 50 -238 103l145 158c33 -36 94 -69 152 -69c27 0 53 8 53 33c0 26 -25 36 -125 69c-96 32 -183 83 -183 207
c0 176 158 243 297 243c93 0 197 -38 270 -105l-148 -151c-32 40 -85 61 -122 61c-35 0 -58 -9 -58 -32c0 -21 21 -28 70 -44c102 -33 239 -78 239 -224c0 -149 -113 -230 -236 -248l-35 -38c5 1 10 1 16 1c45 0 102 -17 102 -85c0 -82 -98 -103 -164 -103z" />
    <glyph glyph-name="Scommaaccent" unicode="&#x218;" horiz-adv-x="617" 
d="M298 -20c-114 0 -226 43 -298 107l145 158c33 -36 94 -69 152 -69c27 0 53 8 53 33c0 26 -25 36 -125 69c-96 32 -183 83 -183 207c0 176 158 243 297 243c93 0 197 -38 270 -105l-148 -151c-32 40 -85 61 -122 61c-35 0 -58 -9 -58 -32c0 -21 21 -28 70 -44
c102 -33 239 -78 239 -224c0 -171 -149 -253 -292 -253zM225 -45h189l-93 -195h-164z" />
    <glyph glyph-name="Tcaron" unicode="&#x164;" horiz-adv-x="600" 
d="M419 507v-507h-238v507h-174v201h586v-201h-174zM367 908h154l-134 -144h-169l-137 144h152l67 -68z" />
    <glyph glyph-name="uni0162" unicode="&#x162;" horiz-adv-x="600" 
d="M419 507v-507h-238v507h-174v201h586v-201h-174zM218 -45h189l-93 -195h-164z" />
    <glyph glyph-name="uni021A" unicode="&#x21a;" horiz-adv-x="600" 
d="M419 507v-507h-238v507h-174v201h586v-201h-174zM218 -45h189l-93 -195h-164z" />
    <glyph glyph-name="Tbar" unicode="&#x166;" horiz-adv-x="600" 
d="M76 321v110h105v76h-174v201h586v-201h-174v-76h103v-110h-103v-321h-238v321h-105z" />
    <glyph glyph-name="Thorn" unicode="&#xde;" horiz-adv-x="684" 
d="M370 127h-67v-127h-237v708h237v-101h67c144 0 290 -55 290 -238c0 -175 -143 -242 -290 -242zM353 422h-50v-114h50c36 0 72 17 72 59c0 45 -36 55 -72 55z" />
    <glyph glyph-name="Ugrave" unicode="&#xd9;" horiz-adv-x="775" 
d="M384 -20c-221 0 -328 130 -328 298v430h238v-404c0 -67 34 -108 94 -108s94 41 94 108v404h237v-430c0 -168 -114 -298 -335 -298zM329 764l-154 144h212l111 -144h-169z" />
    <glyph glyph-name="Uacute" unicode="&#xda;" horiz-adv-x="775" 
d="M384 -20c-221 0 -328 130 -328 298v430h238v-404c0 -67 34 -108 94 -108s94 41 94 108v404h237v-430c0 -168 -114 -298 -335 -298zM449 764h-169l111 144h212z" />
    <glyph glyph-name="Ucircumflex" unicode="&#xdb;" horiz-adv-x="775" 
d="M384 -20c-221 0 -328 130 -328 298v430h238v-404c0 -67 34 -108 94 -108s94 41 94 108v404h237v-430c0 -168 -114 -298 -335 -298zM455 764l-67 68l-67 -68h-152l137 144h169l134 -144h-154z" />
    <glyph glyph-name="Utilde" unicode="&#x168;" horiz-adv-x="775" 
d="M384 -20c-221 0 -328 130 -328 298v430h238v-404c0 -67 34 -108 94 -108s94 41 94 108v404h237v-430c0 -168 -114 -298 -335 -298zM577 900c-4 -79 -45 -139 -114 -139c-28 0 -53 8 -81 23c-32 17 -43 22 -63 22c-21 0 -33 -16 -37 -36h-80c4 76 44 136 113 136
c30 0 54 -9 83 -24c31 -16 44 -22 65 -22s30 13 35 40h79z" />
    <glyph glyph-name="Udieresis" unicode="&#xdc;" horiz-adv-x="775" 
d="M384 -20c-221 0 -328 130 -328 298v430h238v-404c0 -67 34 -108 94 -108s94 41 94 108v404h237v-430c0 -168 -114 -298 -335 -298zM414 858c0 54 46 99 101 99c53 0 99 -45 99 -99c0 -55 -46 -98 -99 -98c-55 0 -101 43 -101 98zM165 858c0 54 46 99 101 99
c53 0 99 -45 99 -99c0 -55 -46 -98 -99 -98c-55 0 -101 43 -101 98z" />
    <glyph glyph-name="Umacron" unicode="&#x16a;" horiz-adv-x="775" 
d="M384 -20c-221 0 -328 130 -328 298v430h238v-404c0 -67 34 -108 94 -108s94 41 94 108v404h237v-430c0 -168 -114 -298 -335 -298zM208 791v96h360v-96h-360z" />
    <glyph glyph-name="Ubreve" unicode="&#x16c;" horiz-adv-x="775" 
d="M384 -20c-221 0 -328 130 -328 298v430h238v-404c0 -67 34 -108 94 -108s94 41 94 108v404h237v-430c0 -168 -114 -298 -335 -298zM388 764c-87 0 -172 31 -180 144h110c3 -33 43 -39 70 -39c28 0 67 6 70 39h110c-8 -113 -92 -144 -180 -144z" />
    <glyph glyph-name="Uring" unicode="&#x16e;" horiz-adv-x="775" 
d="M384 -20c-221 0 -328 130 -328 298v430h238v-404c0 -67 34 -108 94 -108s94 41 94 108v404h237v-430c0 -168 -114 -298 -335 -298zM504 857c0 -65 -53 -114 -115 -114s-115 49 -115 114s53 114 115 114s115 -49 115 -114zM449 857c0 33 -27 59 -60 59s-60 -26 -60 -59
s27 -59 60 -59s60 26 60 59z" />
    <glyph glyph-name="Uhungarumlaut" unicode="&#x170;" horiz-adv-x="775" 
d="M384 -20c-221 0 -328 130 -328 298v430h238v-404c0 -67 34 -108 94 -108s94 41 94 108v404h237v-430c0 -168 -114 -298 -335 -298zM349 764h-169l111 144h212zM592 764h-169l111 144h212z" />
    <glyph glyph-name="Uogonek" unicode="&#x172;" horiz-adv-x="775" 
d="M375 -240c-54 0 -127 19 -127 94c0 54 45 96 91 128c-191 17 -283 139 -283 296v430h238v-404c0 -67 34 -108 94 -108s94 41 94 108v404h237v-430c0 -138 -77 -250 -226 -285c-77 -55 -102 -82 -102 -105c0 -15 8 -20 23 -20c19 0 36 6 56 18l44 -83
c-37 -24 -88 -43 -139 -43z" />
    <glyph glyph-name="Wcircumflex" unicode="&#x174;" horiz-adv-x="1077" 
d="M536 400l-103 -400h-240l-193 708h252l76 -398h4l82 398h249l89 -398h4l77 398h244l-197 -708h-240l-100 400h-4zM604 764l-67 68l-67 -68h-152l137 144h169l134 -144h-154z" />
    <glyph glyph-name="Wacute" unicode="&#x1e82;" horiz-adv-x="1077" 
d="M536 400l-103 -400h-240l-193 708h252l76 -398h4l82 398h249l89 -398h4l77 398h244l-197 -708h-240l-100 400h-4zM601 764h-169l111 144h212z" />
    <glyph glyph-name="Wdieresis" unicode="&#x1e84;" horiz-adv-x="1077" 
d="M536 400l-103 -400h-240l-193 708h252l76 -398h4l82 398h249l89 -398h4l77 398h244l-197 -708h-240l-100 400h-4zM563 858c0 54 46 99 101 99c53 0 99 -45 99 -99c0 -55 -46 -98 -99 -98c-55 0 -101 43 -101 98zM314 858c0 54 46 99 101 99c53 0 99 -45 99 -99
c0 -55 -46 -98 -99 -98c-55 0 -101 43 -101 98z" />
    <glyph glyph-name="Wgrave" unicode="&#x1e80;" horiz-adv-x="1077" 
d="M536 400l-103 -400h-240l-193 708h252l76 -398h4l82 398h249l89 -398h4l77 398h244l-197 -708h-240l-100 400h-4zM476 764l-154 144h212l111 -144h-169z" />
    <glyph glyph-name="Yacute" unicode="&#xdd;" horiz-adv-x="738" 
d="M481 290v-290h-238v290l-267 418h287l112 -208l107 208h280zM455 764h-169l111 144h212z" />
    <glyph glyph-name="Ycircumflex" unicode="&#x176;" horiz-adv-x="738" 
d="M481 290v-290h-238v290l-267 418h287l112 -208l107 208h280zM441 764l-67 68l-67 -68h-152l137 144h169l134 -144h-154z" />
    <glyph glyph-name="Ydieresis" unicode="&#x178;" horiz-adv-x="738" 
d="M481 290v-290h-238v290l-267 418h287l112 -208l107 208h280zM400 858c0 54 46 99 101 99c53 0 99 -45 99 -99c0 -55 -46 -98 -99 -98c-55 0 -101 43 -101 98zM151 858c0 54 46 99 101 99c53 0 99 -45 99 -99c0 -55 -46 -98 -99 -98c-55 0 -101 43 -101 98z" />
    <glyph glyph-name="Ygrave" unicode="&#x1ef2;" horiz-adv-x="738" 
d="M481 290v-290h-238v290l-267 418h287l112 -208l107 208h280zM296 764l-154 144h212l111 -144h-169z" />
    <glyph glyph-name="Zacute" unicode="&#x179;" horiz-adv-x="672" 
d="M44 0v199l265 312h-254v197h565v-172l-282 -333h290v-203h-584zM411 764h-169l111 144h212z" />
    <glyph glyph-name="Zcaron" unicode="&#x17d;" horiz-adv-x="672" 
d="M44 0v199l265 312h-254v197h565v-172l-282 -333h290v-203h-584zM410 908h154l-134 -144h-169l-137 144h152l67 -68z" />
    <glyph glyph-name="Zdotaccent" unicode="&#x17b;" horiz-adv-x="672" 
d="M44 0v199l265 312h-254v197h565v-172l-282 -333h290v-203h-584zM232 858c0 58 49 106 109 106c57 0 106 -48 106 -106c0 -59 -49 -105 -106 -105c-60 0 -109 46 -109 105z" />
    <glyph glyph-name="agrave" unicode="&#xe0;" horiz-adv-x="591" 
d="M347 218h-13c-68 0 -113 -12 -113 -52c0 -29 31 -41 53 -41c44 0 73 31 73 75v18zM332 332v2c0 32 -24 47 -60 47c-42 0 -82 -21 -111 -45l-115 114c63 61 157 96 250 96c200 0 253 -121 253 -269v-277h-209v42h-2c-26 -40 -83 -56 -129 -56c-82 0 -183 44 -183 169
c0 147 167 177 306 177zM240 584l-154 144h212l111 -144h-169z" />
    <glyph glyph-name="aacute" unicode="&#xe1;" horiz-adv-x="591" 
d="M347 218h-13c-68 0 -113 -12 -113 -52c0 -29 31 -41 53 -41c44 0 73 31 73 75v18zM332 332v2c0 32 -24 47 -60 47c-42 0 -82 -21 -111 -45l-115 114c63 61 157 96 250 96c200 0 253 -121 253 -269v-277h-209v42h-2c-26 -40 -83 -56 -129 -56c-82 0 -183 44 -183 169
c0 147 167 177 306 177zM360 584h-169l111 144h212z" />
    <glyph glyph-name="acircumflex" unicode="&#xe2;" horiz-adv-x="591" 
d="M347 218h-13c-68 0 -113 -12 -113 -52c0 -29 31 -41 53 -41c44 0 73 31 73 75v18zM332 332v2c0 32 -24 47 -60 47c-42 0 -82 -21 -111 -45l-115 114c63 61 157 96 250 96c200 0 253 -121 253 -269v-277h-209v42h-2c-26 -40 -83 -56 -129 -56c-82 0 -183 44 -183 169
c0 147 167 177 306 177zM367 584l-67 68l-67 -68h-152l137 144h169l134 -144h-154z" />
    <glyph glyph-name="atilde" unicode="&#xe3;" horiz-adv-x="591" 
d="M347 218h-13c-68 0 -113 -12 -113 -52c0 -29 31 -41 53 -41c44 0 73 31 73 75v18zM332 332v2c0 32 -24 47 -60 47c-42 0 -82 -21 -111 -45l-115 114c63 61 157 96 250 96c200 0 253 -121 253 -269v-277h-209v42h-2c-26 -40 -83 -56 -129 -56c-82 0 -183 44 -183 169
c0 147 167 177 306 177zM489 720c-4 -79 -45 -139 -114 -139c-28 0 -53 8 -81 23c-32 17 -43 22 -63 22c-21 0 -33 -16 -37 -36h-80c4 76 44 136 113 136c30 0 54 -9 83 -24c31 -16 44 -22 65 -22s30 13 35 40h79z" />
    <glyph glyph-name="adieresis" unicode="&#xe4;" horiz-adv-x="591" 
d="M347 218h-13c-68 0 -113 -12 -113 -52c0 -29 31 -41 53 -41c44 0 73 31 73 75v18zM332 332v2c0 32 -24 47 -60 47c-42 0 -82 -21 -111 -45l-115 114c63 61 157 96 250 96c200 0 253 -121 253 -269v-277h-209v42h-2c-26 -40 -83 -56 -129 -56c-82 0 -183 44 -183 169
c0 147 167 177 306 177zM326 678c0 54 46 99 101 99c53 0 99 -45 99 -99c0 -55 -46 -98 -99 -98c-55 0 -101 43 -101 98zM77 678c0 54 46 99 101 99c53 0 99 -45 99 -99c0 -55 -46 -98 -99 -98c-55 0 -101 43 -101 98z" />
    <glyph glyph-name="amacron" unicode="&#x101;" horiz-adv-x="591" 
d="M347 218h-13c-68 0 -113 -12 -113 -52c0 -29 31 -41 53 -41c44 0 73 31 73 75v18zM332 332v2c0 32 -24 47 -60 47c-42 0 -82 -21 -111 -45l-115 114c63 61 157 96 250 96c200 0 253 -121 253 -269v-277h-209v42h-2c-26 -40 -83 -56 -129 -56c-82 0 -183 44 -183 169
c0 147 167 177 306 177zM123 611v96h360v-96h-360z" />
    <glyph glyph-name="abreve" unicode="&#x103;" horiz-adv-x="591" 
d="M347 218h-13c-68 0 -113 -12 -113 -52c0 -29 31 -41 53 -41c44 0 73 31 73 75v18zM332 332v2c0 32 -24 47 -60 47c-42 0 -82 -21 -111 -45l-115 114c63 61 157 96 250 96c200 0 253 -121 253 -269v-277h-209v42h-2c-26 -40 -83 -56 -129 -56c-82 0 -183 44 -183 169
c0 147 167 177 306 177zM305 584c-87 0 -172 31 -180 144h110c3 -33 43 -39 70 -39c28 0 67 6 70 39h110c-8 -113 -92 -144 -180 -144z" />
    <glyph glyph-name="aring" unicode="&#xe5;" horiz-adv-x="591" 
d="M347 218h-13c-68 0 -113 -12 -113 -52c0 -29 31 -41 53 -41c44 0 73 31 73 75v18zM332 332v2c0 32 -24 47 -60 47c-42 0 -82 -21 -111 -45l-115 114c63 61 157 96 250 96c200 0 253 -121 253 -269v-277h-209v42h-2c-26 -40 -83 -56 -129 -56c-82 0 -183 44 -183 169
c0 147 167 177 306 177zM416 677c0 -65 -53 -114 -115 -114s-115 49 -115 114s53 114 115 114s115 -49 115 -114zM361 677c0 33 -27 59 -60 59s-60 -26 -60 -59s27 -59 60 -59s60 26 60 59z" />
    <glyph glyph-name="aogonek" unicode="&#x105;" horiz-adv-x="591" 
d="M347 -240c-54 0 -127 19 -127 94c0 64 65 111 119 146h1v42h-2c-26 -40 -83 -56 -129 -56c-82 0 -183 44 -183 169c0 147 167 177 306 177v2c0 32 -24 47 -60 47c-42 0 -82 -21 -111 -45l-115 114c63 61 157 96 250 96c200 0 253 -121 253 -269v-277h-73
c-85 -60 -113 -88 -113 -112c0 -15 8 -20 23 -20c19 0 36 6 56 18l44 -83c-37 -24 -88 -43 -139 -43zM347 218h-13c-68 0 -113 -12 -113 -52c0 -29 31 -41 53 -41c44 0 73 31 73 75v18z" />
    <glyph glyph-name="ae" unicode="&#xe6;" horiz-adv-x="916" 
d="M616 -20c-67 0 -144 31 -183 82c-36 -46 -94 -76 -204 -76c-93 0 -203 44 -203 169c0 147 167 177 306 177v2c0 32 -24 47 -60 47c-42 0 -83 -21 -111 -45l-115 114c63 61 157 96 250 96c82 0 132 -28 158 -61c37 34 93 61 157 61c165 0 277 -122 277 -288
c0 -17 -1 -37 -2 -49h-354c4 -37 48 -60 90 -60s72 19 86 37l164 -83c-46 -75 -139 -123 -256 -123zM345 216h-12c-66 0 -109 -11 -109 -50c0 -27 30 -39 51 -39c42 0 70 30 70 72v17zM530 333h159c0 37 -30 64 -76 64c-51 0 -79 -35 -83 -64z" />
    <glyph glyph-name="cacute" unicode="&#x107;" horiz-adv-x="526" 
d="M339 -20c-178 0 -307 111 -307 283c0 171 134 283 310 283c72 0 151 -26 191 -57l-115 -166c-16 19 -45 29 -69 29c-44 0 -90 -30 -90 -89s46 -87 90 -87c27 0 54 11 70 28l116 -162c-44 -35 -119 -62 -196 -62zM401 584h-169l111 144h212z" />
    <glyph glyph-name="ccircumflex" unicode="&#x109;" horiz-adv-x="526" 
d="M339 -20c-178 0 -307 111 -307 283c0 171 134 283 310 283c72 0 151 -26 191 -57l-115 -166c-16 19 -45 29 -69 29c-44 0 -90 -30 -90 -89s46 -87 90 -87c27 0 54 11 70 28l116 -162c-44 -35 -119 -62 -196 -62zM406 584l-67 68l-67 -68h-152l137 144h169l134 -144h-154z
" />
    <glyph glyph-name="ccaron" unicode="&#x10d;" horiz-adv-x="526" 
d="M339 -20c-178 0 -307 111 -307 283c0 171 134 283 310 283c72 0 151 -26 191 -57l-115 -166c-16 19 -45 29 -69 29c-44 0 -90 -30 -90 -89s46 -87 90 -87c27 0 54 11 70 28l116 -162c-44 -35 -119 -62 -196 -62zM406 728h154l-134 -144h-169l-137 144h152l67 -68z" />
    <glyph glyph-name="cdotaccent" unicode="&#x10b;" horiz-adv-x="526" 
d="M339 -20c-178 0 -307 111 -307 283c0 171 134 283 310 283c72 0 151 -26 191 -57l-115 -166c-16 19 -45 29 -69 29c-44 0 -90 -30 -90 -89s46 -87 90 -87c27 0 54 11 70 28l116 -162c-44 -35 -119 -62 -196 -62zM232 678c0 58 49 106 109 106c57 0 106 -48 106 -106
c0 -59 -49 -105 -106 -105c-60 0 -109 46 -109 105z" />
    <glyph glyph-name="ccedilla" unicode="&#xe7;" horiz-adv-x="526" 
d="M283 -240c-42 0 -98 9 -133 23l34 78c23 -10 60 -16 85 -16c20 0 40 5 40 21c0 14 -19 18 -37 18c-14 0 -29 -2 -41 -6l-44 34l66 78c-132 29 -221 130 -221 273c0 171 134 283 310 283c72 0 151 -26 191 -57l-115 -166c-16 19 -45 29 -69 29c-44 0 -90 -30 -90 -89
s46 -87 90 -87c27 0 54 11 70 28l116 -162c-40 -32 -105 -57 -174 -61l-32 -34c5 1 10 1 16 1c45 0 102 -17 102 -85c0 -82 -98 -103 -164 -103z" />
    <glyph glyph-name="dcaron" unicode="&#x10f;" horiz-adv-x="882" 
d="M32 265c0 135 83 275 240 275c50 0 106 -20 137 -56h2v272h230v-756h-207v55h-2c-30 -42 -95 -69 -160 -69c-157 0 -240 140 -240 279zM246 265c0 -50 31 -89 86 -89c54 0 90 40 90 89c0 46 -36 87 -90 87c-55 0 -86 -41 -86 -87zM720 708h189l-87 -177h-164z" />
    <glyph glyph-name="dcroat" unicode="&#x111;" horiz-adv-x="694" 
d="M293 570v110h118v76h230v-76h33v-110h-33v-570h-207v55h-2c-30 -42 -95 -69 -160 -69c-157 0 -240 140 -240 279c0 135 83 275 240 275c50 0 106 -20 137 -56h2v86h-118zM246 265c0 -50 31 -89 86 -89c54 0 90 40 90 89c0 46 -36 87 -90 87c-55 0 -86 -41 -86 -87z" />
    <glyph glyph-name="eth" unicode="&#xf0;" horiz-adv-x="664" 
d="M331 352c-50 0 -85 -41 -85 -87c0 -49 36 -89 86 -89s86 40 86 89c0 46 -37 87 -87 87zM349 531l2 1c-20 20 -39 36 -55 49l-107 -43l-110 89l107 43c-11 9 -43 32 -70 49l176 94c38 -27 63 -48 85 -68l112 45l121 -94l-127 -49c94 -99 149 -205 149 -350
c0 -216 -142 -317 -301 -317c-158 0 -299 103 -299 285c0 172 123 270 281 270c8 0 20 -1 36 -4z" />
    <glyph glyph-name="egrave" unicode="&#xe8;" horiz-adv-x="630" 
d="M244 333h159c0 37 -30 64 -76 64c-51 0 -79 -35 -83 -64zM602 258c0 -17 -1 -37 -2 -49h-354c4 -37 48 -60 90 -60s72 19 86 37l164 -83c-46 -75 -139 -123 -256 -123c-153 0 -298 97 -298 283c0 174 131 283 293 283c165 0 277 -122 277 -288zM268 584l-154 144h212
l111 -144h-169z" />
    <glyph glyph-name="eacute" unicode="&#xe9;" horiz-adv-x="630" 
d="M244 333h159c0 37 -30 64 -76 64c-51 0 -79 -35 -83 -64zM602 258c0 -17 -1 -37 -2 -49h-354c4 -37 48 -60 90 -60s72 19 86 37l164 -83c-46 -75 -139 -123 -256 -123c-153 0 -298 97 -298 283c0 174 131 283 293 283c165 0 277 -122 277 -288zM388 584h-169l111 144h212
z" />
    <glyph glyph-name="ecircumflex" unicode="&#xea;" horiz-adv-x="630" 
d="M244 333h159c0 37 -30 64 -76 64c-51 0 -79 -35 -83 -64zM602 258c0 -17 -1 -37 -2 -49h-354c4 -37 48 -60 90 -60s72 19 86 37l164 -83c-46 -75 -139 -123 -256 -123c-153 0 -298 97 -298 283c0 174 131 283 293 283c165 0 277 -122 277 -288zM399 584l-67 68l-67 -68
h-152l137 144h169l134 -144h-154z" />
    <glyph glyph-name="ecaron" unicode="&#x11b;" horiz-adv-x="630" 
d="M244 333h159c0 37 -30 64 -76 64c-51 0 -79 -35 -83 -64zM602 258c0 -17 -1 -37 -2 -49h-354c4 -37 48 -60 90 -60s72 19 86 37l164 -83c-46 -75 -139 -123 -256 -123c-153 0 -298 97 -298 283c0 174 131 283 293 283c165 0 277 -122 277 -288zM397 728h154l-134 -144
h-169l-137 144h152l67 -68z" />
    <glyph glyph-name="edieresis" unicode="&#xeb;" horiz-adv-x="630" 
d="M244 333h159c0 37 -30 64 -76 64c-51 0 -79 -35 -83 -64zM602 258c0 -17 -1 -37 -2 -49h-354c4 -37 48 -60 90 -60s72 19 86 37l164 -83c-46 -75 -139 -123 -256 -123c-153 0 -298 97 -298 283c0 174 131 283 293 283c165 0 277 -122 277 -288zM355 678
c0 54 46 99 101 99c53 0 99 -45 99 -99c0 -55 -46 -98 -99 -98c-55 0 -101 43 -101 98zM106 678c0 54 46 99 101 99c53 0 99 -45 99 -99c0 -55 -46 -98 -99 -98c-55 0 -101 43 -101 98z" />
    <glyph glyph-name="emacron" unicode="&#x113;" horiz-adv-x="630" 
d="M244 333h159c0 37 -30 64 -76 64c-51 0 -79 -35 -83 -64zM602 258c0 -17 -1 -37 -2 -49h-354c4 -37 48 -60 90 -60s72 19 86 37l164 -83c-46 -75 -139 -123 -256 -123c-153 0 -298 97 -298 283c0 174 131 283 293 283c165 0 277 -122 277 -288zM152 611v96h360v-96h-360z
" />
    <glyph glyph-name="ebreve" unicode="&#x115;" horiz-adv-x="630" 
d="M244 333h159c0 37 -30 64 -76 64c-51 0 -79 -35 -83 -64zM602 258c0 -17 -1 -37 -2 -49h-354c4 -37 48 -60 90 -60s72 19 86 37l164 -83c-46 -75 -139 -123 -256 -123c-153 0 -298 97 -298 283c0 174 131 283 293 283c165 0 277 -122 277 -288zM330 584
c-87 0 -172 31 -180 144h110c3 -33 43 -39 70 -39c28 0 67 6 70 39h110c-8 -113 -92 -144 -180 -144z" />
    <glyph glyph-name="edotaccent" unicode="&#x117;" horiz-adv-x="630" 
d="M244 333h159c0 37 -30 64 -76 64c-51 0 -79 -35 -83 -64zM602 258c0 -17 -1 -37 -2 -49h-354c4 -37 48 -60 90 -60s72 19 86 37l164 -83c-46 -75 -139 -123 -256 -123c-153 0 -298 97 -298 283c0 174 131 283 293 283c165 0 277 -122 277 -288zM222 678
c0 58 49 106 109 106c57 0 106 -48 106 -106c0 -59 -49 -105 -106 -105c-60 0 -109 46 -109 105z" />
    <glyph glyph-name="eogonek" unicode="&#x119;" horiz-adv-x="630" 
d="M305 -240c-54 0 -127 19 -127 94c0 55 48 98 95 131c-130 20 -241 115 -241 278c0 174 131 283 293 283c165 0 277 -122 277 -288c0 -17 -1 -37 -2 -49h-354c4 -37 48 -60 90 -60s72 19 86 37l164 -83c-34 -55 -92 -95 -166 -112c-74 -54 -99 -80 -99 -103
c0 -15 8 -20 23 -20c19 0 36 6 56 18l44 -83c-37 -24 -88 -43 -139 -43zM244 333h159c0 37 -30 64 -76 64c-51 0 -79 -35 -83 -64z" />
    <glyph glyph-name="gcircumflex" unicode="&#x11d;" horiz-adv-x="697" 
d="M32 265c0 135 83 275 240 275c55 0 115 -21 149 -67h3v53h217v-472c0 -230 -164 -294 -328 -294c-100 0 -207 27 -281 77l101 153c50 -39 110 -56 160 -56c67 0 124 35 124 99v23h-3c-25 -29 -78 -56 -142 -56c-162 0 -240 123 -240 265zM246 265c0 -50 31 -89 86 -89
c54 0 90 40 90 89c0 46 -36 87 -90 87c-55 0 -86 -41 -86 -87zM427 584l-67 68l-67 -68h-152l137 144h169l134 -144h-154z" />
    <glyph glyph-name="gbreve" unicode="&#x11f;" horiz-adv-x="697" 
d="M32 265c0 135 83 275 240 275c55 0 115 -21 149 -67h3v53h217v-472c0 -230 -164 -294 -328 -294c-100 0 -207 27 -281 77l101 153c50 -39 110 -56 160 -56c67 0 124 35 124 99v23h-3c-25 -29 -78 -56 -142 -56c-162 0 -240 123 -240 265zM246 265c0 -50 31 -89 86 -89
c54 0 90 40 90 89c0 46 -36 87 -90 87c-55 0 -86 -41 -86 -87zM353 584c-87 0 -172 31 -180 144h110c3 -33 43 -39 70 -39c28 0 67 6 70 39h110c-8 -113 -92 -144 -180 -144z" />
    <glyph glyph-name="gdotaccent" unicode="&#x121;" horiz-adv-x="697" 
d="M32 265c0 135 83 275 240 275c55 0 115 -21 149 -67h3v53h217v-472c0 -230 -164 -294 -328 -294c-100 0 -207 27 -281 77l101 153c50 -39 110 -56 160 -56c67 0 124 35 124 99v23h-3c-25 -29 -78 -56 -142 -56c-162 0 -240 123 -240 265zM246 265c0 -50 31 -89 86 -89
c54 0 90 40 90 89c0 46 -36 87 -90 87c-55 0 -86 -41 -86 -87zM251 678c0 58 49 106 109 106c57 0 106 -48 106 -106c0 -59 -49 -105 -106 -105c-60 0 -109 46 -109 105z" />
    <glyph glyph-name="gcommaaccent" unicode="&#x123;" horiz-adv-x="697" 
d="M32 265c0 135 83 275 240 275c55 0 115 -21 149 -67h3v53h217v-472c0 -230 -164 -294 -328 -294c-100 0 -207 27 -281 77l101 153c50 -39 110 -56 160 -56c67 0 124 35 124 99v23h-3c-25 -29 -78 -56 -142 -56c-162 0 -240 123 -240 265zM246 265c0 -50 31 -89 86 -89
c54 0 90 40 90 89c0 46 -36 87 -90 87c-55 0 -86 -41 -86 -87zM425 584h-189l93 195h164z" />
    <glyph glyph-name="hcircumflex" unicode="&#x125;" horiz-adv-x="666" 
d="M430 540c148 0 188 -116 188 -220v-320h-232v280c0 53 -17 72 -50 72c-27 0 -52 -22 -52 -73v-279h-231v756h231v-288h2c26 39 78 72 144 72zM402 796l-67 68l-67 -68h-152l137 144h169l134 -144h-154z" />
    <glyph glyph-name="hbar" unicode="&#x127;" horiz-adv-x="666" 
d="M20 570v110h33v76h231v-76h117v-110h-117v-102h2c26 39 78 72 144 72c148 0 188 -116 188 -220v-320h-232v280c0 53 -17 72 -50 72c-27 0 -52 -22 -52 -73v-279h-231v570h-33z" />
    <glyph glyph-name="dotlessi" unicode="&#x131;" horiz-adv-x="339" 
d="M54 0v526h231v-526h-231z" />
    <glyph glyph-name="igrave" unicode="&#xec;" horiz-adv-x="339" 
d="M54 0v526h231v-526h-231zM114 584l-154 144h212l111 -144h-169z" />
    <glyph glyph-name="iacute" unicode="&#xed;" horiz-adv-x="339" 
d="M54 0v526h231v-526h-231zM231 584h-169l111 144h212z" />
    <glyph glyph-name="icircumflex" unicode="&#xee;" horiz-adv-x="339" 
d="M54 0v526h231v-526h-231zM239 584l-67 68l-67 -68h-152l137 144h169l134 -144h-154z" />
    <glyph glyph-name="itilde" unicode="&#x129;" horiz-adv-x="339" 
d="M54 0v526h231v-526h-231zM358 720c-4 -79 -45 -139 -114 -139c-28 0 -53 8 -81 23c-32 17 -43 22 -63 22c-21 0 -33 -16 -37 -36h-80c4 76 44 136 113 136c30 0 54 -9 83 -24c31 -16 44 -22 65 -22s30 13 35 40h79z" />
    <glyph glyph-name="idieresis" unicode="&#xef;" horiz-adv-x="339" 
d="M54 0v526h231v-526h-231zM197 678c0 54 46 99 101 99c53 0 99 -45 99 -99c0 -55 -46 -98 -99 -98c-55 0 -101 43 -101 98zM-52 678c0 54 46 99 101 99c53 0 99 -45 99 -99c0 -55 -46 -98 -99 -98c-55 0 -101 43 -101 98z" />
    <glyph glyph-name="imacron" unicode="&#x12b;" horiz-adv-x="339" 
d="M54 0v526h231v-526h-231zM-9 611v96h360v-96h-360z" />
    <glyph glyph-name="ibreve" unicode="&#x12d;" horiz-adv-x="339" 
d="M54 0v526h231v-526h-231zM170 584c-87 0 -172 31 -180 144h110c3 -33 43 -39 70 -39c28 0 67 6 70 39h110c-8 -113 -92 -144 -180 -144z" />
    <glyph glyph-name="iogonek" unicode="&#x12f;" horiz-adv-x="339" 
d="M54 0v526h231v-526h-9c-85 -60 -113 -88 -113 -112c0 -15 8 -20 23 -20c19 0 36 6 56 18l44 -83c-37 -24 -88 -43 -139 -43c-54 0 -127 19 -127 94c0 64 65 111 119 146h-85zM50 678c0 64 55 118 121 118c63 0 118 -54 118 -118c0 -66 -55 -117 -118 -117
c-66 0 -121 51 -121 117z" />
    <glyph glyph-name="dotlessj" unicode="&#x237;" horiz-adv-x="346" 
d="M292 12c0 -135 -50 -252 -237 -252c-26 0 -69 4 -96 12l12 188c14 -4 28 -5 37 -5c35 0 53 18 53 64v507h231v-514z" />
    <glyph glyph-name="jcircumflex" unicode="&#x135;" horiz-adv-x="346" 
d="M292 12c0 -135 -50 -252 -237 -252c-26 0 -69 4 -96 12l12 188c14 -4 28 -5 37 -5c35 0 53 18 53 64v507h231v-514zM246 584l-67 68l-67 -68h-152l137 144h169l134 -144h-154z" />
    <glyph glyph-name="kcommaaccent" unicode="&#x137;" horiz-adv-x="674" 
d="M287 229h-3v-229h-231v756h231v-431h3l125 201h268l-170 -237l169 -289h-269zM264 -45h189l-93 -195h-164z" />
    <glyph glyph-name="kgreenlandic" unicode="&#x138;" horiz-adv-x="670" 
d="M287 229h-3v-229h-231v526h231v-201h3l125 201h268l-170 -237l169 -289h-269z" />
    <glyph glyph-name="lacute" unicode="&#x13a;" horiz-adv-x="342" 
d="M53 0v756h236v-756h-236zM222 792h-169l111 144h212z" />
    <glyph glyph-name="lcaron" unicode="&#x13e;" horiz-adv-x="530" 
d="M53 0v756h236v-756h-236zM368 708h189l-87 -177h-164z" />
    <glyph glyph-name="lcommaaccent" unicode="&#x13c;" horiz-adv-x="342" 
d="M53 0v756h236v-756h-236zM88 -46h189l-93 -195h-164z" />
    <glyph glyph-name="lslash" unicode="&#x142;" horiz-adv-x="342" 
d="M289 402v-402h-236v221l-41 -38v194l41 39v340h236v-159l41 38v-194z" />
    <glyph glyph-name="ldot" unicode="&#x140;" horiz-adv-x="534" 
d="M53 0v756h236v-756h-236zM319 488c0 58 49 106 109 106c57 0 106 -48 106 -106c0 -59 -49 -105 -106 -105c-60 0 -109 46 -109 105z" />
    <glyph glyph-name="nacute" unicode="&#x144;" horiz-adv-x="666" 
d="M53 0v526h225v-58h2c26 39 83 72 150 72c148 0 188 -116 188 -220v-320h-232v280c0 53 -17 72 -50 72c-30 0 -52 -26 -52 -72v-280h-231zM392 584h-169l111 144h212z" />
    <glyph glyph-name="ncaron" unicode="&#x148;" horiz-adv-x="666" 
d="M53 0v526h225v-58h2c26 39 83 72 150 72c148 0 188 -116 188 -220v-320h-232v280c0 53 -17 72 -50 72c-30 0 -52 -26 -52 -72v-280h-231zM400 728h154l-134 -144h-169l-137 144h152l67 -68z" />
    <glyph glyph-name="ntilde" unicode="&#xf1;" horiz-adv-x="666" 
d="M53 0v526h225v-58h2c26 39 83 72 150 72c148 0 188 -116 188 -220v-320h-232v280c0 53 -17 72 -50 72c-30 0 -52 -26 -52 -72v-280h-231zM519 720c-4 -79 -45 -139 -114 -139c-28 0 -53 8 -81 23c-32 17 -43 22 -63 22c-21 0 -33 -16 -37 -36h-80c4 76 44 136 113 136
c30 0 54 -9 83 -24c31 -16 44 -22 65 -22s30 13 35 40h79z" />
    <glyph glyph-name="ncommaaccent" unicode="&#x146;" horiz-adv-x="666" 
d="M53 0v526h225v-58h2c26 39 83 72 150 72c148 0 188 -116 188 -220v-320h-232v280c0 53 -17 72 -50 72c-30 0 -52 -26 -52 -72v-280h-231zM248 -45h189l-93 -195h-164z" />
    <glyph glyph-name="eng" unicode="&#x14b;" horiz-adv-x="666" 
d="M618 0c-3 -130 -56 -240 -237 -240c-26 0 -69 4 -96 12l12 188c14 -4 28 -5 37 -5c33 0 52 17 52 57v268c0 53 -17 72 -50 72c-30 0 -52 -26 -52 -72v-280h-231v526h225v-58h2c26 39 83 72 150 72c148 0 188 -116 188 -220v-320z" />
    <glyph glyph-name="ograve" unicode="&#xf2;" horiz-adv-x="664" 
d="M632 265c0 -182 -142 -285 -301 -285c-158 0 -299 103 -299 285c0 180 141 281 299 281c159 0 301 -101 301 -281zM331 352c-50 0 -85 -41 -85 -87c0 -49 36 -89 86 -89s86 40 86 89c0 46 -37 87 -87 87zM272 584l-154 144h212l111 -144h-169z" />
    <glyph glyph-name="oacute" unicode="&#xf3;" horiz-adv-x="664" 
d="M632 265c0 -182 -142 -285 -301 -285c-158 0 -299 103 -299 285c0 180 141 281 299 281c159 0 301 -101 301 -281zM331 352c-50 0 -85 -41 -85 -87c0 -49 36 -89 86 -89s86 40 86 89c0 46 -37 87 -87 87zM393 584h-169l111 144h212z" />
    <glyph glyph-name="ocircumflex" unicode="&#xf4;" horiz-adv-x="664" 
d="M632 265c0 -182 -142 -285 -301 -285c-158 0 -299 103 -299 285c0 180 141 281 299 281c159 0 301 -101 301 -281zM331 352c-50 0 -85 -41 -85 -87c0 -49 36 -89 86 -89s86 40 86 89c0 46 -37 87 -87 87zM399 584l-67 68l-67 -68h-152l137 144h169l134 -144h-154z" />
    <glyph glyph-name="otilde" unicode="&#xf5;" horiz-adv-x="664" 
d="M632 265c0 -182 -142 -285 -301 -285c-158 0 -299 103 -299 285c0 180 141 281 299 281c159 0 301 -101 301 -281zM331 352c-50 0 -85 -41 -85 -87c0 -49 36 -89 86 -89s86 40 86 89c0 46 -37 87 -87 87zM521 720c-4 -79 -45 -139 -114 -139c-28 0 -53 8 -81 23
c-32 17 -43 22 -63 22c-21 0 -33 -16 -37 -36h-80c4 76 44 136 113 136c30 0 54 -9 83 -24c31 -16 44 -22 65 -22s30 13 35 40h79z" />
    <glyph glyph-name="odieresis" unicode="&#xf6;" horiz-adv-x="664" 
d="M632 265c0 -182 -142 -285 -301 -285c-158 0 -299 103 -299 285c0 180 141 281 299 281c159 0 301 -101 301 -281zM331 352c-50 0 -85 -41 -85 -87c0 -49 36 -89 86 -89s86 40 86 89c0 46 -37 87 -87 87zM357 678c0 54 46 99 101 99c53 0 99 -45 99 -99
c0 -55 -46 -98 -99 -98c-55 0 -101 43 -101 98zM108 678c0 54 46 99 101 99c53 0 99 -45 99 -99c0 -55 -46 -98 -99 -98c-55 0 -101 43 -101 98z" />
    <glyph glyph-name="omacron" unicode="&#x14d;" horiz-adv-x="664" 
d="M632 265c0 -182 -142 -285 -301 -285c-158 0 -299 103 -299 285c0 180 141 281 299 281c159 0 301 -101 301 -281zM331 352c-50 0 -85 -41 -85 -87c0 -49 36 -89 86 -89s86 40 86 89c0 46 -37 87 -87 87zM153 611v96h360v-96h-360z" />
    <glyph glyph-name="obreve" unicode="&#x14f;" horiz-adv-x="664" 
d="M632 265c0 -182 -142 -285 -301 -285c-158 0 -299 103 -299 285c0 180 141 281 299 281c159 0 301 -101 301 -281zM331 352c-50 0 -85 -41 -85 -87c0 -49 36 -89 86 -89s86 40 86 89c0 46 -37 87 -87 87zM333 584c-87 0 -172 31 -180 144h110c3 -33 43 -39 70 -39
c28 0 67 6 70 39h110c-8 -113 -92 -144 -180 -144z" />
    <glyph glyph-name="ohungarumlaut" unicode="&#x151;" horiz-adv-x="664" 
d="M632 265c0 -182 -142 -285 -301 -285c-158 0 -299 103 -299 285c0 180 141 281 299 281c159 0 301 -101 301 -281zM331 352c-50 0 -85 -41 -85 -87c0 -49 36 -89 86 -89s86 40 86 89c0 46 -37 87 -87 87zM291 584h-169l111 144h212zM534 584h-169l111 144h212z" />
    <glyph glyph-name="oslash" unicode="&#xf8;" horiz-adv-x="664" 
d="M649 490l-69 -68c36 -40 52 -96 52 -157c0 -173 -137 -285 -301 -285c-56 0 -112 14 -155 43l-80 -80l-86 84l76 75c-33 38 -54 97 -54 162c0 174 135 282 299 282c60 0 117 -15 158 -43l73 71zM334 170c54 0 88 37 88 89c0 8 -1 16 -3 21l-107 -107c4 -2 13 -3 22 -3z
M324 366c-54 0 -88 -38 -88 -90c0 -8 1 -16 2 -20l107 108c-3 1 -12 2 -21 2z" />
    <glyph glyph-name="oe" unicode="&#x153;" horiz-adv-x="995" 
d="M693 546c162 0 274 -122 274 -288c0 -17 -1 -37 -2 -49h-354c4 -37 48 -60 90 -60s72 19 86 37l164 -83c-46 -75 -139 -123 -253 -123c-83 0 -153 34 -187 72c-36 -42 -96 -72 -180 -72c-158 0 -299 103 -299 285c0 180 141 281 299 281c82 0 146 -35 180 -78
c39 43 104 78 182 78zM331 352c-50 0 -85 -41 -85 -87c0 -49 36 -89 86 -89s86 40 86 89c0 46 -37 87 -87 87zM609 333h159c0 37 -30 64 -76 64c-51 0 -79 -35 -83 -64z" />
    <glyph glyph-name="racute" unicode="&#x155;" horiz-adv-x="445" 
d="M53 0v526h222v-60h2c23 42 69 74 129 74c17 0 34 -2 44 -5l-18 -196c-14 4 -34 6 -49 6c-60 0 -99 -40 -99 -90v-255h-231zM277 584h-169l111 144h212z" />
    <glyph glyph-name="rcaron" unicode="&#x159;" horiz-adv-x="445" 
d="M53 0v526h222v-60h2c23 42 69 74 129 74c17 0 34 -2 44 -5l-18 -196c-14 4 -34 6 -49 6c-60 0 -99 -40 -99 -90v-255h-231zM316 728h154l-134 -144h-169l-137 144h152l67 -68z" />
    <glyph glyph-name="rcommaaccent" unicode="&#x157;" horiz-adv-x="445" 
d="M53 0v526h222v-60h2c23 42 69 74 129 74c17 0 34 -2 44 -5l-18 -196c-14 4 -34 6 -49 6c-60 0 -99 -40 -99 -90v-255h-231zM86 -46h189l-93 -195h-164z" />
    <glyph glyph-name="sacute" unicode="&#x15b;" horiz-adv-x="513" 
d="M484 167c0 -141 -135 -187 -233 -187c-90 0 -184 27 -247 75l113 131c32 -29 79 -49 119 -49c16 0 33 5 33 21c0 17 -22 25 -83 39c-66 15 -148 59 -148 160c0 137 135 189 231 189c81 0 165 -25 229 -68l-108 -129c-33 21 -69 34 -102 34c-22 0 -39 -5 -39 -22
c0 -13 10 -18 70 -30c83 -17 165 -63 165 -164zM333 584h-169l111 144h212z" />
    <glyph glyph-name="scircumflex" unicode="&#x15d;" horiz-adv-x="513" 
d="M484 167c0 -141 -135 -187 -233 -187c-90 0 -184 27 -247 75l113 131c32 -29 79 -49 119 -49c16 0 33 5 33 21c0 17 -22 25 -83 39c-66 15 -148 59 -148 160c0 137 135 189 231 189c81 0 165 -25 229 -68l-108 -129c-33 21 -69 34 -102 34c-22 0 -39 -5 -39 -22
c0 -13 10 -18 70 -30c83 -17 165 -63 165 -164zM350 584l-67 68l-67 -68h-152l137 144h169l134 -144h-154z" />
    <glyph glyph-name="scaron" unicode="&#x161;" horiz-adv-x="513" 
d="M484 167c0 -141 -135 -187 -233 -187c-90 0 -184 27 -247 75l113 131c32 -29 79 -49 119 -49c16 0 33 5 33 21c0 17 -22 25 -83 39c-66 15 -148 59 -148 160c0 137 135 189 231 189c81 0 165 -25 229 -68l-108 -129c-33 21 -69 34 -102 34c-22 0 -39 -5 -39 -22
c0 -13 10 -18 70 -30c83 -17 165 -63 165 -164zM342 728h154l-134 -144h-169l-137 144h152l67 -68z" />
    <glyph glyph-name="scedilla" unicode="&#x15f;" horiz-adv-x="513" 
d="M227 -240c-42 0 -98 9 -133 23l34 78c23 -10 60 -16 85 -16c20 0 40 5 40 21c0 14 -19 18 -37 18c-14 0 -29 -2 -41 -6l-44 34l61 72c-71 9 -139 33 -188 71l113 131c32 -29 79 -49 119 -49c16 0 33 5 33 21c0 17 -22 25 -83 39c-66 15 -148 59 -148 160
c0 137 135 189 231 189c81 0 165 -25 229 -68l-108 -129c-33 21 -69 34 -102 34c-22 0 -39 -5 -39 -22c0 -13 10 -18 70 -30c83 -17 165 -63 165 -164c0 -115 -89 -166 -175 -181l-36 -39c5 1 10 1 16 1c45 0 102 -17 102 -85c0 -82 -98 -103 -164 -103z" />
    <glyph glyph-name="scommaaccent" unicode="&#x219;" horiz-adv-x="513" 
d="M484 167c0 -141 -135 -187 -233 -187c-90 0 -184 27 -247 75l113 131c32 -29 79 -49 119 -49c16 0 33 5 33 21c0 17 -22 25 -83 39c-66 15 -148 59 -148 160c0 137 135 189 231 189c81 0 165 -25 229 -68l-108 -129c-33 21 -69 34 -102 34c-22 0 -39 -5 -39 -22
c0 -13 10 -18 70 -30c83 -17 165 -63 165 -164zM167 -45h189l-93 -195h-164z" />
    <glyph glyph-name="germandbls" unicode="&#xdf;" horiz-adv-x="727" 
d="M557 410c78 -20 137 -82 137 -187c0 -162 -114 -239 -271 -239c-35 0 -74 6 -108 14v169c18 -6 44 -10 57 -10c51 0 90 22 90 77c0 60 -46 81 -105 81h-34v169h33c36 0 67 19 67 58c0 33 -27 51 -61 51c-55 0 -78 -42 -78 -93v-500h-231v493c0 172 109 275 319 275
c144 0 284 -61 284 -206c0 -83 -46 -131 -99 -152z" />
    <glyph glyph-name="tcaron" unicode="&#x165;" horiz-adv-x="540" 
d="M282 -14c-140 0 -208 60 -208 187v188h-74v165h73v118h224v-118h114v-165h-114v-140c0 -51 23 -65 62 -65c15 0 33 3 42 6v-158c-24 -10 -71 -18 -119 -18zM378 731h189l-87 -177h-164z" />
    <glyph glyph-name="uni0163" unicode="&#x163;" horiz-adv-x="421" 
d="M282 -14c-140 0 -208 60 -208 187v188h-74v165h73v118h224v-118h114v-165h-114v-140c0 -51 23 -65 62 -65c15 0 33 3 42 6v-158c-24 -10 -71 -18 -119 -18zM163 -45h189l-93 -195h-164z" />
    <glyph glyph-name="uni021B" unicode="&#x21b;" horiz-adv-x="421" 
d="M282 -14c-140 0 -208 60 -208 187v188h-74v165h73v118h224v-118h114v-165h-114v-140c0 -51 23 -65 62 -65c15 0 33 3 42 6v-158c-24 -10 -71 -18 -119 -18zM163 -45h189l-93 -195h-164z" />
    <glyph glyph-name="tbar" unicode="&#x167;" horiz-adv-x="421" 
d="M10 209v110h64v42h-74v165h73v118h224v-118h114v-165h-114v-42h82v-110h-82c4 -41 26 -53 62 -53c15 0 33 3 42 6v-158c-24 -10 -71 -18 -119 -18c-140 0 -208 60 -208 187v36h-64z" />
    <glyph glyph-name="thorn" unicode="&#xfe;" horiz-adv-x="694" 
d="M422 540c157 0 240 -140 240 -275c0 -139 -82 -279 -239 -279c-52 0 -107 20 -139 55h-2v-281h-229v996h229v-271h2c32 35 87 55 138 55zM448 265c0 46 -31 87 -86 87c-54 0 -90 -41 -90 -87c0 -49 36 -89 90 -89c55 0 86 39 86 89z" />
    <glyph glyph-name="ugrave" unicode="&#xf9;" horiz-adv-x="663" 
d="M610 526v-526h-225v58h-2c-26 -39 -83 -72 -150 -72c-148 0 -188 116 -188 220v320h232v-278c0 -53 17 -72 50 -72c30 0 52 26 52 72v278h231zM263 584l-154 144h212l111 -144h-169z" />
    <glyph glyph-name="uacute" unicode="&#xfa;" horiz-adv-x="663" 
d="M610 526v-526h-225v58h-2c-26 -39 -83 -72 -150 -72c-148 0 -188 116 -188 220v320h232v-278c0 -53 17 -72 50 -72c30 0 52 26 52 72v278h231zM401 584h-169l111 144h212z" />
    <glyph glyph-name="ucircumflex" unicode="&#xfb;" horiz-adv-x="663" 
d="M610 526v-526h-225v58h-2c-26 -39 -83 -72 -150 -72c-148 0 -188 116 -188 220v320h232v-278c0 -53 17 -72 50 -72c30 0 52 26 52 72v278h231zM394 584l-67 68l-67 -68h-152l137 144h169l134 -144h-154z" />
    <glyph glyph-name="utilde" unicode="&#x169;" horiz-adv-x="663" 
d="M610 526v-526h-225v58h-2c-26 -39 -83 -72 -150 -72c-148 0 -188 116 -188 220v320h232v-278c0 -53 17 -72 50 -72c30 0 52 26 52 72v278h231zM516 720c-4 -79 -45 -139 -114 -139c-28 0 -53 8 -81 23c-32 17 -43 22 -63 22c-21 0 -33 -16 -37 -36h-80
c4 76 44 136 113 136c30 0 54 -9 83 -24c31 -16 44 -22 65 -22s30 13 35 40h79z" />
    <glyph glyph-name="udieresis" unicode="&#xfc;" horiz-adv-x="663" 
d="M610 526v-526h-225v58h-2c-26 -39 -83 -72 -150 -72c-148 0 -188 116 -188 220v320h232v-278c0 -53 17 -72 50 -72c30 0 52 26 52 72v278h231zM353 678c0 54 46 99 101 99c53 0 99 -45 99 -99c0 -55 -46 -98 -99 -98c-55 0 -101 43 -101 98zM104 678c0 54 46 99 101 99
c53 0 99 -45 99 -99c0 -55 -46 -98 -99 -98c-55 0 -101 43 -101 98z" />
    <glyph glyph-name="umacron" unicode="&#x16b;" horiz-adv-x="663" 
d="M610 526v-526h-225v58h-2c-26 -39 -83 -72 -150 -72c-148 0 -188 116 -188 220v320h232v-278c0 -53 17 -72 50 -72c30 0 52 26 52 72v278h231zM147 611v96h360v-96h-360z" />
    <glyph glyph-name="ubreve" unicode="&#x16d;" horiz-adv-x="663" 
d="M610 526v-526h-225v58h-2c-26 -39 -83 -72 -150 -72c-148 0 -188 116 -188 220v320h232v-278c0 -53 17 -72 50 -72c30 0 52 26 52 72v278h231zM327 584c-87 0 -172 31 -180 144h110c3 -33 43 -39 70 -39c28 0 67 6 70 39h110c-8 -113 -92 -144 -180 -144z" />
    <glyph glyph-name="uring" unicode="&#x16f;" horiz-adv-x="663" 
d="M610 526v-526h-225v58h-2c-26 -39 -83 -72 -150 -72c-148 0 -188 116 -188 220v320h232v-278c0 -53 17 -72 50 -72c30 0 52 26 52 72v278h231zM440 677c0 -65 -53 -114 -115 -114s-115 49 -115 114s53 114 115 114s115 -49 115 -114zM385 677c0 33 -27 59 -60 59
s-60 -26 -60 -59s27 -59 60 -59s60 26 60 59z" />
    <glyph glyph-name="uhungarumlaut" unicode="&#x171;" horiz-adv-x="663" 
d="M610 526v-526h-225v58h-2c-26 -39 -83 -72 -150 -72c-148 0 -188 116 -188 220v320h232v-278c0 -53 17 -72 50 -72c30 0 52 26 52 72v278h231zM288 584h-169l111 144h212zM531 584h-169l111 144h212z" />
    <glyph glyph-name="uogonek" unicode="&#x173;" horiz-adv-x="663" 
d="M397 -240c-54 0 -127 19 -127 94c0 64 65 111 119 146h-4v58h-2c-26 -39 -83 -72 -150 -72c-148 0 -188 116 -188 220v320h232v-278c0 -53 17 -72 50 -72c30 0 52 26 52 72v278h231v-526h-84c-85 -60 -113 -88 -113 -112c0 -15 8 -20 23 -20c19 0 36 6 56 18l44 -83
c-37 -24 -88 -43 -139 -43z" />
    <glyph glyph-name="wcircumflex" unicode="&#x175;" horiz-adv-x="973" 
d="M483 270l-79 -270h-229l-180 526h247l66 -272h4l68 272h222l73 -272h3l64 272h236l-182 -526h-230l-81 270h-2zM559 584l-67 68l-67 -68h-152l137 144h169l134 -144h-154z" />
    <glyph glyph-name="wacute" unicode="&#x1e83;" horiz-adv-x="973" 
d="M483 270l-79 -270h-229l-180 526h247l66 -272h4l68 272h222l73 -272h3l64 272h236l-182 -526h-230l-81 270h-2zM567 584h-169l111 144h212z" />
    <glyph glyph-name="wdieresis" unicode="&#x1e85;" horiz-adv-x="973" 
d="M483 270l-79 -270h-229l-180 526h247l66 -272h4l68 272h222l73 -272h3l64 272h236l-182 -526h-230l-81 270h-2zM509 678c0 54 46 99 101 99c53 0 99 -45 99 -99c0 -55 -46 -98 -99 -98c-55 0 -101 43 -101 98zM260 678c0 54 46 99 101 99c53 0 99 -45 99 -99
c0 -55 -46 -98 -99 -98c-55 0 -101 43 -101 98z" />
    <glyph glyph-name="wgrave" unicode="&#x1e81;" horiz-adv-x="973" 
d="M483 270l-79 -270h-229l-180 526h247l66 -272h4l68 272h222l73 -272h3l64 272h236l-182 -526h-230l-81 270h-2zM415 584l-154 144h212l111 -144h-169z" />
    <glyph glyph-name="yacute" unicode="&#xfd;" horiz-adv-x="638" 
d="M201 9l4 11l-213 506h256l78 -277h4l69 277h247l-216 -558c-51 -131 -121 -208 -276 -208c-48 0 -104 9 -131 16l29 190c17 -6 45 -12 65 -12c51 0 72 23 84 55zM407 584h-169l111 144h212z" />
    <glyph glyph-name="ycircumflex" unicode="&#x177;" horiz-adv-x="638" 
d="M201 9l4 11l-213 506h256l78 -277h4l69 277h247l-216 -558c-51 -131 -121 -208 -276 -208c-48 0 -104 9 -131 16l29 190c17 -6 45 -12 65 -12c51 0 72 23 84 55zM394 584l-67 68l-67 -68h-152l137 144h169l134 -144h-154z" />
    <glyph glyph-name="ydieresis" unicode="&#xff;" horiz-adv-x="638" 
d="M201 9l4 11l-213 506h256l78 -277h4l69 277h247l-216 -558c-51 -131 -121 -208 -276 -208c-48 0 -104 9 -131 16l29 190c17 -6 45 -12 65 -12c51 0 72 23 84 55zM352 678c0 54 46 99 101 99c53 0 99 -45 99 -99c0 -55 -46 -98 -99 -98c-55 0 -101 43 -101 98zM103 678
c0 54 46 99 101 99c53 0 99 -45 99 -99c0 -55 -46 -98 -99 -98c-55 0 -101 43 -101 98z" />
    <glyph glyph-name="ygrave" unicode="&#x1ef3;" horiz-adv-x="638" 
d="M201 9l4 11l-213 506h256l78 -277h4l69 277h247l-216 -558c-51 -131 -121 -208 -276 -208c-48 0 -104 9 -131 16l29 190c17 -6 45 -12 65 -12c51 0 72 23 84 55zM240 584l-154 144h212l111 -144h-169z" />
    <glyph glyph-name="zacute" unicode="&#x17a;" horiz-adv-x="557" 
d="M33 0v161l197 194h-192v171h479v-150l-213 -205h219v-171h-490zM344 584h-169l111 144h212z" />
    <glyph glyph-name="zcaron" unicode="&#x17e;" horiz-adv-x="557" 
d="M33 0v161l197 194h-192v171h479v-150l-213 -205h219v-171h-490zM350 728h154l-134 -144h-169l-137 144h152l67 -68z" />
    <glyph glyph-name="zdotaccent" unicode="&#x17c;" horiz-adv-x="557" 
d="M33 0v161l197 194h-192v171h479v-150l-213 -205h219v-171h-490zM175 678c0 58 49 106 109 106c57 0 106 -48 106 -106c0 -59 -49 -105 -106 -105c-60 0 -109 46 -109 105z" />
    <glyph glyph-name="IJ" unicode="&#x132;" horiz-adv-x="938" 
d="M66 0v708h240v-708h-240zM613 -20c-127 0 -235 78 -263 180l204 78c5 -21 19 -41 43 -41c30 0 39 23 39 55v456h239v-446c0 -127 -46 -282 -262 -282z" />
    <glyph glyph-name="ij" unicode="&#x133;" horiz-adv-x="675" 
d="M54 0v526h231v-526h-231zM50 678c0 64 55 118 121 118c63 0 118 -54 118 -118c0 -66 -55 -117 -118 -117c-66 0 -121 51 -121 117zM621 12c0 -135 -50 -252 -237 -252c-26 0 -69 4 -96 12l12 188c14 -4 28 -5 37 -5c35 0 53 18 53 64v507h231v-514zM386 678
c0 64 55 118 120 118c64 0 119 -54 119 -118c0 -66 -55 -117 -119 -117c-65 0 -120 51 -120 117z" />
    <glyph glyph-name="f_i" unicode="&#xf001;" horiz-adv-x="756" 
d="M426 598c-12 5 -29 9 -45 9c-45 0 -61 -32 -61 -74v-7h111v-165h-111v-361h-230v361h-90v165h90v12c0 132 54 248 246 248c31 0 77 -4 105 -15zM471 0v526h231v-526h-231zM467 678c0 64 55 118 121 118c63 0 118 -54 118 -118c0 -66 -55 -117 -118 -117
c-66 0 -121 51 -121 117z" />
    <glyph glyph-name="f_l" unicode="&#xf002;" horiz-adv-x="759" 
d="M426 598c-12 5 -29 9 -45 9c-45 0 -61 -32 -61 -74v-7h111v-165h-111v-361h-230v361h-90v165h90v12c0 132 54 248 246 248c31 0 77 -4 105 -15zM470 0v756h236v-756h-236z" />
    <glyph glyph-name="grave.cap" 
d="M118 764l-154 144h212l111 -144h-169z" />
    <glyph glyph-name="acute" unicode="&#xb4;" 
d="M242 584h-169l111 144h212z" />
    <glyph glyph-name="acute.cap" 
d="M242 764h-169l111 144h212z" />
    <glyph glyph-name="circumflex" unicode="&#x2c6;" 
d="M246 584l-67 68l-67 -68h-152l137 144h169l134 -144h-154z" />
    <glyph glyph-name="circumflex.cap" 
d="M246 764l-67 68l-67 -68h-152l137 144h169l134 -144h-154z" />
    <glyph glyph-name="caron" unicode="&#x2c7;" 
d="M246 728h154l-134 -144h-169l-137 144h152l67 -68z" />
    <glyph glyph-name="caron.cap" 
d="M246 908h154l-134 -144h-169l-137 144h152l67 -68z" />
    <glyph glyph-name="caron.alt" 
d="M121 708h189l-87 -177h-164z" />
    <glyph glyph-name="tilde" unicode="&#x2dc;" 
d="M367 720c-4 -79 -45 -139 -114 -139c-28 0 -53 8 -81 23c-32 17 -43 22 -63 22c-21 0 -33 -16 -37 -36h-80c4 76 44 136 113 136c30 0 54 -9 83 -24c31 -16 44 -22 65 -22s30 13 35 40h79z" />
    <glyph glyph-name="tilde.cap" 
d="M367 900c-4 -79 -45 -139 -114 -139c-28 0 -53 8 -81 23c-32 17 -43 22 -63 22c-21 0 -33 -16 -37 -36h-80c4 76 44 136 113 136c30 0 54 -9 83 -24c31 -16 44 -22 65 -22s30 13 35 40h79z" />
    <glyph glyph-name="dieresis" unicode="&#xa8;" 
d="M205 678c0 54 46 99 101 99c53 0 99 -45 99 -99c0 -55 -46 -98 -99 -98c-55 0 -101 43 -101 98zM-44 678c0 54 46 99 101 99c53 0 99 -45 99 -99c0 -55 -46 -98 -99 -98c-55 0 -101 43 -101 98z" />
    <glyph glyph-name="dieresis.cap" 
d="M205 858c0 54 46 99 101 99c53 0 99 -45 99 -99c0 -55 -46 -98 -99 -98c-55 0 -101 43 -101 98zM-44 858c0 54 46 99 101 99c53 0 99 -45 99 -99c0 -55 -46 -98 -99 -98c-55 0 -101 43 -101 98z" />
    <glyph glyph-name="macron" unicode="&#xaf;" 
d="M0 611v96h360v-96h-360z" />
    <glyph glyph-name="macron.cap" 
d="M0 791v96h360v-96h-360z" />
    <glyph glyph-name="uni02C9" unicode="&#x2c9;" 
d="M0 791v96h360v-96h-360z" />
    <glyph glyph-name="breve" unicode="&#x2d8;" 
d="M180 584c-87 0 -172 31 -180 144h110c3 -33 43 -39 70 -39c28 0 67 6 70 39h110c-8 -113 -92 -144 -180 -144z" />
    <glyph glyph-name="breve.cap" 
d="M180 764c-87 0 -172 31 -180 144h110c3 -33 43 -39 70 -39c28 0 67 6 70 39h110c-8 -113 -92 -144 -180 -144z" />
    <glyph glyph-name="ring" unicode="&#x2da;" 
d="M295 677c0 -65 -53 -114 -115 -114s-115 49 -115 114s53 114 115 114s115 -49 115 -114zM240 677c0 33 -27 59 -60 59s-60 -26 -60 -59s27 -59 60 -59s60 26 60 59z" />
    <glyph glyph-name="ring.cap" 
d="M295 857c0 -65 -53 -114 -115 -114s-115 49 -115 114s53 114 115 114s115 -49 115 -114zM240 857c0 33 -27 59 -60 59s-60 -26 -60 -59s27 -59 60 -59s60 26 60 59z" />
    <glyph glyph-name="hungarumlaut" unicode="&#x2dd;" 
d="M114 584h-169l111 144h212zM357 584h-169l111 144h212z" />
    <glyph glyph-name="hungarumlaut.cap" 
d="M114 764h-169l111 144h212zM357 764h-169l111 144h212z" />
    <glyph glyph-name="dotaccent" unicode="&#x2d9;" 
d="M72 678c0 58 49 106 109 106c57 0 106 -48 106 -106c0 -59 -49 -105 -106 -105c-60 0 -109 46 -109 105z" />
    <glyph glyph-name="dotaccent.cap" 
d="M72 858c0 58 49 106 109 106c57 0 106 -48 106 -106c0 -59 -49 -105 -106 -105c-60 0 -109 46 -109 105z" />
    <glyph glyph-name="cedilla" unicode="&#xb8;" 
d="M159 -240c-42 0 -98 9 -133 23l34 78c23 -10 60 -16 85 -16c20 0 40 5 40 21c0 14 -19 18 -37 18c-14 0 -29 -2 -41 -6l-44 34l75 88h117l-50 -53c5 1 10 1 16 1c45 0 102 -17 102 -85c0 -82 -98 -103 -164 -103z" />
    <glyph glyph-name="ogonek" unicode="&#x2db;" 
d="M159 -240c-54 0 -127 19 -127 94c0 64 65 111 119 146h137c-85 -60 -113 -88 -113 -112c0 -15 8 -20 23 -20c19 0 36 6 56 18l44 -83c-37 -24 -88 -43 -139 -43z" />
    <glyph glyph-name="commaaccent" 
d="M101 -45h189l-93 -195h-164z" />
    <glyph glyph-name="commaaccent.alt" 
d="M231 584h-189l93 195h164z" />
    <glyph glyph-name="ellipsis" unicode="&#x2026;" horiz-adv-x="1000" 
d="M34 113c0 71 61 130 134 130c70 0 130 -59 130 -130c0 -73 -60 -129 -130 -129c-73 0 -134 56 -134 129zM366 113c0 71 61 130 134 130c70 0 130 -59 130 -130c0 -73 -60 -129 -130 -129c-73 0 -134 56 -134 129zM699 113c0 71 61 130 134 130c70 0 130 -59 130 -130
c0 -73 -60 -129 -130 -129c-73 0 -134 56 -134 129z" />
    <glyph glyph-name="uni00AD" unicode="&#xad;" horiz-adv-x="336" 
d="M30 199v172h276v-172h-276z" />
    <glyph glyph-name="exclamdown" unicode="&#xa1;" horiz-adv-x="448" 
d="M224 546c69 0 124 -53 124 -121c0 -66 -55 -121 -124 -121s-124 55 -124 121c0 68 55 121 124 121zM104 270h240v-448h-240v448z" />
    <glyph glyph-name="questiondown" unicode="&#xbf;" horiz-adv-x="587" 
d="M278 546c69 0 124 -53 124 -121c0 -66 -55 -121 -124 -121s-124 55 -124 121c0 68 55 121 124 121zM136 202c28 17 36 33 36 50v26h213v-37c0 -79 -41 -117 -98 -157l-17 -12c-21 -15 -33 -28 -33 -44c0 -28 19 -38 42 -38c44 0 61 37 61 78l215 -28
c-17 -172 -144 -238 -280 -238c-124 0 -270 52 -270 210c0 92 50 141 131 190z" />
    <glyph glyph-name="quoteleft" unicode="&#x2018;" horiz-adv-x="342" 
d="M231 426h-189l99 282h164z" />
    <glyph glyph-name="quoteright" unicode="&#x2019;" horiz-adv-x="342" 
d="M111 708h189l-99 -282h-164z" />
    <glyph glyph-name="quotedblleft" unicode="&#x201c;" horiz-adv-x="568" 
d="M457 426h-184l94 282h164zM226 426h-184l99 282h164z" />
    <glyph glyph-name="quotedblright" unicode="&#x201d;" horiz-adv-x="568" 
d="M111 708h184l-94 -282h-164zM342 708h184l-99 -282h-164z" />
    <glyph glyph-name="quotesinglbase" unicode="&#x201a;" horiz-adv-x="342" 
d="M111 156h189l-99 -282h-164z" />
    <glyph glyph-name="quotedblbase" unicode="&#x201e;" horiz-adv-x="568" 
d="M111 156h184l-94 -282h-164zM342 156h184l-99 -282h-164z" />
    <glyph glyph-name="guilsinglleft" unicode="&#x2039;" horiz-adv-x="350" 
d="M193 26l-176 248l176 248l129 -83l-115 -165l115 -165z" />
    <glyph glyph-name="guilsinglright" unicode="&#x203a;" horiz-adv-x="350" 
d="M158 26l-130 83l115 165l-115 165l130 83l175 -248z" />
    <glyph glyph-name="guillemotleft" unicode="&#xab;" horiz-adv-x="580" 
d="M422 26l-175 248l175 248l130 -83l-115 -165l115 -165zM193 26l-176 248l176 248l129 -83l-115 -165l115 -165z" />
    <glyph glyph-name="guillemotright" unicode="&#xbb;" horiz-adv-x="580" 
d="M388 26l-130 83l115 165l-115 165l130 83l175 -248zM158 26l-130 83l115 165l-115 165l130 83l175 -248z" />
    <glyph glyph-name="endash" unicode="&#x2013;" horiz-adv-x="400" 
d="M30 225v120h340v-120h-340z" />
    <glyph glyph-name="emdash" unicode="&#x2014;" horiz-adv-x="600" 
d="M30 225v120h540v-120h-540z" />
    <glyph glyph-name="bullet" unicode="&#x2022;" horiz-adv-x="500" 
d="M73 354c0 98 79 177 177 177s177 -79 177 -177s-79 -177 -177 -177s-177 79 -177 177z" />
    <glyph glyph-name="periodcentered" unicode="&#xb7;" 
d="M48 289c0 71 61 130 134 130c70 0 130 -59 130 -130c0 -73 -60 -129 -130 -129c-73 0 -134 56 -134 129z" />
    <glyph glyph-name="uni2219" unicode="&#x2219;" 
d="M48 289c0 71 61 130 134 130c70 0 130 -59 130 -130c0 -73 -60 -129 -130 -129c-73 0 -134 56 -134 129z" />
    <glyph glyph-name="dagger" unicode="&#x2020;" horiz-adv-x="619" 
d="M399 341v-474h-184v474h-181v170h180v197h184v-197h187v-170h-186z" />
    <glyph glyph-name="daggerdbl" unicode="&#x2021;" horiz-adv-x="619" 
d="M401 36v-169h-183v169h-184v164h184v175h-184v164h183v169h183v-169h185v-164h-185v-175h185v-164h-184z" />
    <glyph glyph-name="section" unicode="&#xa7;" horiz-adv-x="650" 
d="M539 158c31 -21 45 -63 45 -102c0 -163 -161 -210 -283 -210c-111 0 -231 48 -291 133l157 130c39 -59 104 -78 145 -78c19 0 38 8 38 21c0 21 -18 29 -101 53c-138 40 -210 80 -210 187c0 60 29 101 71 128c-28 26 -41 65 -41 110c0 145 155 197 261 197
c128 0 224 -47 271 -130l-166 -110c-20 34 -60 56 -91 56c-23 0 -43 -8 -43 -23c0 -17 18 -24 98 -48c130 -39 205 -86 205 -194c0 -50 -21 -93 -65 -120zM332 316l-82 29c-9 -5 -16 -17 -16 -28c0 -29 33 -38 78 -54l81 -28c8 5 13 15 13 26c0 25 -31 40 -74 55z" />
    <glyph glyph-name="paragraph" unicode="&#xb6;" horiz-adv-x="646" 
d="M432 -133v699h-52v-699h-154v463c-132 7 -213 72 -213 185c0 160 127 193 260 193h314v-841h-155z" />
    <glyph glyph-name="brokenbar" unicode="&#xa6;" horiz-adv-x="269" 
d="M49 718h172v-406h-172v406zM49 200h172v-406h-172v406z" />
    <glyph glyph-name="copyright" unicode="&#xa9;" horiz-adv-x="800" 
d="M596 515l-98 -80c-18 25 -48 36 -81 36c-63 0 -98 -58 -98 -117c0 -58 35 -118 104 -118c31 0 61 10 80 33l92 -88c-42 -42 -105 -67 -174 -67c-136 0 -248 87 -248 239c0 146 113 238 248 238c69 0 137 -28 175 -76zM20 353c0 210 171 377 381 377
c209 0 379 -167 379 -377c0 -209 -170 -375 -379 -375c-210 0 -381 166 -381 375zM80 353c0 -176 140 -319 317 -319c176 0 323 143 323 319c0 177 -143 321 -319 321c-177 0 -321 -144 -321 -321z" />
    <glyph glyph-name="registered" unicode="&#xae;" horiz-adv-x="600" 
d="M279 521h26c16 0 28 10 28 23c0 11 -14 18 -28 18h-26v-41zM439 365h-100l-44 94h-16v-94h-88v266h114c57 0 121 -19 121 -86c0 -35 -17 -62 -48 -74zM72 492c0 126 103 227 229 227c125 0 227 -101 227 -227s-102 -225 -227 -225c-126 0 -229 99 -229 225zM108 492
c0 -105 86 -192 193 -192c106 0 191 87 191 192c0 106 -85 192 -191 192c-107 0 -193 -86 -193 -192z" />
    <glyph glyph-name="trademark" unicode="&#x2122;" horiz-adv-x="1000" 
d="M152 296v309h-112v103h346v-103h-112v-309h-122zM446 296v412h164l89 -248l83 248h163v-412h-112v245h-2l-92 -245h-91l-89 245h-2v-245h-111z" />
    <glyph glyph-name="currency" unicode="&#xa4;" horiz-adv-x="1000" 
d="M756 454c23 -39 37 -88 37 -145c0 -58 -14 -108 -39 -150l92 -92l-107 -108l-97 97c-41 -21 -90 -32 -140 -32c-46 0 -90 9 -142 34l-99 -99l-107 108l95 95c-23 40 -36 89 -36 147c0 54 12 101 34 142l-93 93l108 107l96 -95c43 22 92 34 144 34c51 0 100 -11 143 -32
l93 93l108 -107zM502 410c-56 0 -96 -48 -96 -101c0 -57 40 -103 96 -103s96 46 96 103c0 53 -41 101 -96 101z" />
    <glyph glyph-name="Euro" unicode="&#x20ac;" horiz-adv-x="700" 
d="M119 335c-1 9 -1 16 -1 22c0 5 0 10 1 19h-87l47 131h58c50 146 190 221 359 221c48 0 125 -9 167 -24l-66 -167c-27 9 -71 17 -106 17c-47 0 -101 -16 -120 -47h232l-46 -131h-227c-1 -9 -1 -14 -1 -19c0 -6 0 -13 1 -22h217l-43 -129h-145c17 -29 72 -47 122 -47
c47 0 95 11 122 27l30 -173c-35 -18 -96 -33 -175 -33c-164 0 -284 87 -323 226h-105l42 129h47z" />
    <glyph glyph-name="cent" unicode="&#xa2;" horiz-adv-x="700" 
d="M341 -13c-144 21 -243 125 -243 276c0 148 100 252 243 275v64h109v-61c59 -5 117 -27 149 -52l-115 -166c-16 19 -45 29 -69 29c-44 0 -90 -30 -90 -89s46 -87 90 -87c27 0 54 11 70 28l116 -162c-35 -28 -91 -51 -151 -57v-57h-109v59z" />
    <glyph glyph-name="sterling" unicode="&#xa3;" horiz-adv-x="700" 
d="M553 495c-16 18 -45 31 -72 31c-64 0 -80 -36 -80 -75v-9h145v-162h-145v-87h251v-193h-572v193h92v87h-92v162h92v28c0 124 93 258 283 258c108 0 185 -36 232 -81z" />
    <glyph glyph-name="florin" unicode="&#x192;" horiz-adv-x="700" 
d="M597 526c-24 15 -46 21 -60 21c-30 0 -50 -10 -62 -60l-7 -36h132v-147h-162l-52 -254c-23 -111 -88 -189 -234 -189c-51 0 -110 13 -150 35l77 162c20 -14 41 -20 54 -20c32 0 47 25 56 67l41 199h-114v147h139c29 144 66 277 256 277c72 0 132 -17 168 -40z" />
    <glyph glyph-name="yen" unicode="&#xa5;" horiz-adv-x="700" 
d="M544 458h100v-140h-184v-47h184v-140h-184v-131h-216v131h-181v140h181v47h-181v140h100l-158 250h253l98 -217l98 217h247z" />
    <glyph glyph-name="ordfeminine" unicode="&#xaa;" horiz-adv-x="390" 
d="M229 547h-8c-39 0 -64 -6 -64 -27c0 -14 18 -20 30 -20c25 0 42 16 42 38v9zM221 610v1c0 17 -14 25 -35 25c-26 0 -49 -11 -66 -24l-69 61c38 33 94 52 148 52c119 0 150 -65 150 -145v-149h-124v23h-1c-15 -22 -49 -30 -76 -30c-48 0 -109 23 -109 91
c0 78 99 95 182 95z" />
    <glyph glyph-name="ordmasculine" unicode="&#xba;" horiz-adv-x="390" 
d="M357 576c0 -98 -76 -154 -162 -154c-84 0 -160 56 -160 154c0 96 76 150 160 150c86 0 162 -54 162 -150zM195 622c-27 0 -45 -22 -45 -46c0 -27 19 -48 46 -48s46 21 46 48c0 24 -20 46 -47 46z" />
    <glyph glyph-name="fraction" unicode="&#x2044;" horiz-adv-x="100" 
d="M-64 -27l-99 40l346 726l99 -45z" />
    <glyph glyph-name="uni2215" unicode="&#x2215;" horiz-adv-x="100" 
d="M-64 -27l-99 40l346 726l99 -45z" />
    <glyph glyph-name="onequarter" unicode="&#xbc;" horiz-adv-x="1000" 
d="M907 79v-79h-136v79h-215v122l169 245h182v-250h60v-117h-60zM773 309h-2l-75 -113h77v113zM198 262v288l-75 -52l-71 110l158 100h139v-446h-151zM386 -27l-99 40l346 726l99 -45z" />
    <glyph glyph-name="onehalf" unicode="&#xbd;" horiz-adv-x="1000" 
d="M198 262v288l-75 -52l-71 110l158 100h139v-446h-151zM614 117l182 147c10 9 19 19 19 33c0 16 -9 30 -32 30c-24 0 -42 -20 -44 -53l-143 16c11 117 104 168 199 168c88 0 180 -40 180 -145c0 -73 -42 -109 -87 -141l-66 -46h154v-126h-362v117zM386 -27l-99 40l346 726
l99 -45z" />
    <glyph glyph-name="threequarters" unicode="&#xbe;" horiz-adv-x="1000" 
d="M907 79v-79h-136v79h-215v122l169 245h182v-250h60v-117h-60zM773 309h-2l-75 -113h77v113zM349 496c44 -14 67 -55 67 -99c0 -104 -93 -146 -180 -146c-89 0 -176 40 -199 137l136 33c5 -23 24 -45 51 -45c21 0 42 7 42 30c0 27 -25 33 -63 33h-42v103h47
c34 0 51 8 51 31c0 14 -11 27 -35 27c-19 0 -40 -15 -44 -40l-134 31c28 97 116 129 193 129s169 -35 169 -125c0 -54 -26 -85 -59 -99zM386 -27l-99 40l346 726l99 -45z" />
    <glyph glyph-name="perthousand" unicode="&#x2030;" horiz-adv-x="1264" 
d="M212 357c-101 0 -185 81 -185 181c0 102 84 182 185 182s184 -80 184 -182c0 -100 -83 -181 -184 -181zM212 594c-30 0 -56 -25 -56 -56c0 -30 26 -54 56 -54c29 0 55 24 55 54c0 31 -26 56 -55 56zM651 -12c-101 0 -185 81 -185 181c0 102 84 182 185 182
s184 -80 184 -182c0 -100 -83 -181 -184 -181zM651 225c-30 0 -56 -25 -56 -56c0 -30 26 -54 56 -54c29 0 55 24 55 54c0 31 -26 56 -55 56zM1053 -12c-101 0 -185 81 -185 181c0 102 84 182 185 182s184 -80 184 -182c0 -100 -83 -181 -184 -181zM1053 225
c-30 0 -56 -25 -56 -56c0 -30 26 -54 56 -54c29 0 55 24 55 54c0 31 -26 56 -55 56zM307 -27l-99 40l346 726l99 -45z" />
    <glyph glyph-name="minus" unicode="&#x2212;" horiz-adv-x="666" 
d="M74 376h518v-144h-518v144z" />
    <glyph glyph-name="plusminus" unicode="&#xb1;" horiz-adv-x="666" 
d="M251 485v121h164v-121h220v-152h-220v-121h-164v121h-220v152h220zM31 30v152h604v-152h-604z" />
    <glyph glyph-name="multiply" unicode="&#xd7;" horiz-adv-x="666" 
d="M164 575l171 -163l166 162l112 -104l-167 -165c58 -54 115 -110 173 -164l-114 -112c-57 56 -114 109 -171 165l-171 -165c-37 36 -75 69 -112 105l169 168l-172 162z" />
    <glyph glyph-name="divide" unicode="&#xf7;" horiz-adv-x="666" 
d="M235 495c0 51 46 93 99 93s97 -42 97 -93c0 -53 -44 -95 -97 -95s-99 42 -99 95zM235 111c0 51 46 93 99 93s97 -42 97 -93s-44 -95 -97 -95s-99 44 -99 95zM587 230h-508v147h508v-147z" />
    <glyph glyph-name="notequal" unicode="&#x2260;" horiz-adv-x="666" 
d="M597 58h-282l-74 -148c-47 23 -95 44 -142 67l44 81h-74v152h153c15 30 33 60 48 90h-201v152h280l78 147c46 -21 94 -45 140 -66c-15 -27 -28 -54 -43 -81h73v-152h-152c-15 -30 -33 -60 -48 -90h200v-152z" />
    <glyph glyph-name="approxequal" unicode="&#x2248;" horiz-adv-x="666" 
d="M619 485c-13 -157 -92 -212 -173 -212c-80 0 -171 59 -239 59c-19 0 -32 -17 -38 -41h-121c8 98 55 193 178 193c80 0 155 -52 232 -52c21 0 34 12 38 53h123zM619 251c-11 -85 -49 -196 -170 -196c-83 0 -178 61 -242 61c-19 0 -34 -16 -40 -56h-121
c8 100 55 210 170 210c83 0 161 -56 244 -56c17 0 28 12 36 37h123z" />
    <glyph glyph-name="lessequal" unicode="&#x2264;" horiz-adv-x="666" 
d="M588 7h-510v139h510v-139zM588 163l-510 203v134l510 203v-162c-91 -38 -183 -73 -274 -111l274 -103v-164z" />
    <glyph glyph-name="greaterequal" unicode="&#x2265;" horiz-adv-x="666" 
d="M588 7h-510v139h510v-139zM588 366l-510 -203v164l274 103c-91 38 -183 73 -274 111v162l510 -203v-134z" />
    <glyph glyph-name="logicalnot" unicode="&#xac;" horiz-adv-x="666" 
d="M447 143v171h-410v144h568v-315h-158z" />
    <glyph glyph-name="Delta" unicode="&#x2206;" horiz-adv-x="799" 
d="M754 132v-132h-727v132l238 576h253zM388 461l-101 -279h199z" />
    <glyph glyph-name="Omega" unicode="&#x2126;" horiz-adv-x="796" 
d="M626 164h125v-164h-314v279c60 17 82 64 82 118c0 70 -47 113 -112 113c-63 0 -110 -45 -110 -113c0 -54 23 -102 82 -118v-279h-314v164h125v11c-88 21 -145 116 -145 233c0 212 162 320 362 320c201 0 364 -105 364 -320c0 -124 -63 -215 -145 -233v-11z" />
    <glyph glyph-name="mu" unicode="&#xb5;" horiz-adv-x="746" 
d="M716 166v-162c-21 -10 -64 -18 -111 -18c-80 0 -114 30 -135 72h-2c-12 -25 -47 -72 -107 -72c-25 0 -46 7 -59 18h-2v-228h-236v750h236v-277c0 -40 8 -73 48 -73c44 0 54 44 54 73v277h236v-313c0 -44 16 -53 47 -53c7 0 21 3 31 6z" />
    <glyph glyph-name="degree" unicode="&#xb0;" horiz-adv-x="440" 
d="M399 554c0 -103 -76 -179 -179 -179s-179 76 -179 179s76 179 179 179s179 -76 179 -179zM317 554c0 54 -43 97 -97 97s-97 -43 -97 -97s43 -97 97 -97s97 43 97 97z" />
    <glyph glyph-name="afii61289" unicode="&#x2113;" horiz-adv-x="500" 
d="M465 56c-57 -47 -114 -70 -181 -70c-113 0 -173 67 -173 151v25l-54 -45h-2l-54 84l109 86v233c0 112 79 201 192 201c98 0 160 -63 160 -155c0 -103 -62 -195 -196 -303v-101c0 -47 29 -63 57 -63c24 0 54 13 88 37h2zM336 557c0 33 -13 62 -35 62
c-20 0 -35 -29 -35 -69v-157c52 53 70 109 70 164z" />
    <glyph glyph-name="estimated" unicode="&#x212e;" horiz-adv-x="500" 
d="M561 259h-404v-181c39 -39 87 -59 145 -59c83 0 143 36 193 120l35 -21c-61 -95 -123 -135 -228 -135c-157 0 -258 122 -258 276c0 155 101 276 258 276c154 0 258 -114 259 -276zM157 295h291v145c-42 40 -91 60 -147 60c-57 0 -105 -21 -144 -60v-145z" />
    <glyph glyph-name="infinity" unicode="&#x221e;" horiz-adv-x="859" 
d="M814 269c0 -109 -71 -200 -197 -200c-81 0 -141 44 -187 94c-47 -50 -100 -93 -184 -93c-123 0 -201 86 -201 198c0 108 73 195 197 195c87 0 142 -47 188 -99c45 53 102 100 188 100c124 0 196 -87 196 -195zM668 266c0 34 -21 56 -54 56c-34 0 -68 -31 -93 -57
c27 -29 60 -54 96 -54c31 0 51 23 51 55zM338 265c-29 27 -65 56 -96 56c-29 0 -51 -24 -51 -55c0 -33 21 -54 54 -54s65 25 93 53z" />
    <glyph glyph-name="partialdiff" unicode="&#x2202;" horiz-adv-x="776" 
d="M664 360c0 -146 -43 -373 -291 -373c-158 0 -275 95 -275 249c0 131 88 235 261 235c28 0 62 -6 87 -17c-5 43 -33 79 -103 79c-41 0 -97 -15 -155 -63l-95 154c75 66 172 97 263 97c239 0 308 -200 308 -361zM456 303v2c-20 12 -47 16 -67 16c-46 0 -75 -26 -75 -75
c0 -56 40 -77 63 -77c60 0 77 47 79 134z" />
    <glyph glyph-name="integral" unicode="&#x222b;" horiz-adv-x="655" 
d="M552 683c0 -44 -32 -82 -80 -82c-41 0 -55 31 -70 47c-5 -12 -7 -30 -7 -46v-12c0 -22 1 -44 1 -66v-409c0 -35 0 -73 -4 -108c-8 -110 -45 -220 -188 -220c-53 0 -137 29 -137 108c0 14 4 26 10 36c14 24 41 39 71 39c39 0 51 -29 66 -43c5 14 8 33 8 48c1 7 0 13 0 20
c0 13 -1 26 -1 38v486c0 123 30 265 195 265c46 0 136 -24 136 -101z" />
    <glyph glyph-name="radical" unicode="&#x221a;" horiz-adv-x="601" 
d="M609 786l-217 -1000h-146c-45 94 -93 189 -138 283l-51 -23l-67 138c67 29 135 61 202 90c31 -69 64 -136 95 -205l148 717h174z" />
    <glyph glyph-name="summation" unicode="&#x2211;" horiz-adv-x="684" 
d="M664 -214h-637v133c93 125 188 248 281 373c-89 121 -181 240 -270 361v133h615v-163h-382c78 -110 159 -220 237 -330l-253 -344h409v-163z" />
    <glyph glyph-name="product" unicode="&#x220f;" horiz-adv-x="765" 
d="M711 -214h-190v837h-277v-837h-188v1000h655v-1000z" />
    <glyph glyph-name="lozenge" unicode="&#x25ca;" horiz-adv-x="619" 
d="M568 356l-190 -391h-140l-185 391c63 130 124 261 187 391h138zM395 356c-28 65 -59 132 -87 197c-29 -65 -55 -132 -84 -197c29 -65 55 -131 84 -196c28 65 59 131 87 196z" />
    <glyph glyph-name="uniF8FF" unicode="&#xf8ff;" horiz-adv-x="512" 
d="M278 117h-56v67h56v-67zM271 234h-46l-2 17c0 37 4 64 13 81s24 37 46 59c43 41 50 58 50 83c0 48 -35 85 -76 85s-74 -27 -82 -95l-50 8c9 95 63 137 135 137c71 0 124 -52 124 -131c0 -43 -12 -73 -63 -120c-25 -22 -39 -39 -43 -52s-6 -37 -6 -72zM50 50h412v617h-412
v-617zM0 718h512v-718h-512v718z" />
    <glyph glyph-name="uni03A9" unicode="&#x3a9;" horiz-adv-x="816" 
d="M626 164h125v-164h-314v279c60 17 82 64 82 118c0 70 -47 113 -112 113c-63 0 -110 -45 -110 -113c0 -54 23 -102 82 -118v-279h-314v164h125v11c-88 21 -145 116 -145 233c0 212 162 320 362 320c201 0 364 -105 364 -320c0 -124 -63 -215 -145 -233v-11z" />
    <glyph glyph-name="uni03BC" unicode="&#x3bc;" horiz-adv-x="746" 
d="M716 166v-162c-21 -10 -64 -18 -111 -18c-80 0 -114 30 -135 72h-2c-12 -25 -47 -72 -107 -72c-25 0 -46 7 -59 18h-2v-228h-236v750h236v-277c0 -40 8 -73 48 -73c44 0 54 44 54 73v277h236v-313c0 -44 16 -53 47 -53c7 0 21 3 31 6z" />
    <glyph glyph-name="pi" unicode="&#x3c0;" horiz-adv-x="800" 
d="M737 4c-32 -12 -88 -18 -127 -18c-107 0 -163 43 -163 150v217h-105l-36 -353h-209l51 353h-103v173h720v-173h-109v-163c0 -23 10 -34 36 -34c9 0 30 2 45 6v-158z" />
    <glyph glyph-name="uni0394" unicode="&#x394;" horiz-adv-x="782" 
d="M754 132v-132h-727v132l238 576h253zM388 461l-101 -279h199z" />
    <glyph glyph-name="zero.denominator" horiz-adv-x="450" 
d="M425 226c0 -100 -36 -237 -200 -237s-200 137 -200 237c0 101 36 232 200 232s200 -131 200 -232zM271 226c0 47 -9 104 -46 104s-46 -57 -46 -104c0 -49 9 -108 46 -108s46 59 46 108z" />
    <glyph glyph-name="one.denominator" horiz-adv-x="450" 
d="M198 0v288l-75 -52l-71 110l158 100h139v-446h-151z" />
    <glyph glyph-name="two.denominator" horiz-adv-x="450" 
d="M415 0h-362v117l182 147c10 9 19 19 19 33c0 16 -9 30 -32 30c-24 0 -42 -20 -44 -53l-143 16c11 117 104 168 199 168c88 0 180 -40 180 -145c0 -73 -42 -109 -87 -141l-66 -46h154v-126z" />
    <glyph glyph-name="three.denominator" horiz-adv-x="450" 
d="M349 235v-1c45 -15 67 -55 67 -99c0 -104 -93 -146 -180 -146c-89 0 -176 40 -199 137l136 33c5 -23 23 -45 53 -45c21 0 40 8 40 30c0 27 -25 33 -63 33h-42v103h47c34 0 51 8 51 31c0 14 -11 27 -35 27c-19 0 -40 -15 -44 -40l-134 31c28 97 116 129 193 129
s169 -35 169 -125c0 -55 -24 -81 -59 -98z" />
    <glyph glyph-name="four.denominator" horiz-adv-x="450" 
d="M376 0h-136v79h-215v122l169 245h182v-250h60v-117h-60v-79zM242 196v113h-2l-75 -113h77z" />
    <glyph glyph-name="five.denominator" horiz-adv-x="450" 
d="M415 150c0 -124 -98 -161 -184 -161c-91 0 -175 48 -194 135l135 34c5 -24 25 -45 52 -45c21 0 41 9 41 34c0 28 -27 41 -72 41c-27 0 -85 -6 -123 -14l15 272h304v-126h-176l-3 -30c12 2 26 3 35 3c92 0 170 -46 170 -143z" />
    <glyph glyph-name="six.denominator" horiz-adv-x="450" 
d="M420 159c0 -112 -91 -170 -195 -170s-195 54 -195 169c0 56 25 106 55 147l102 141h183l-111 -137l2 -1h7c77 0 152 -54 152 -149zM272 159c0 25 -19 44 -47 44c-27 0 -45 -19 -45 -44c0 -26 18 -46 45 -46c28 0 47 20 47 46z" />
    <glyph glyph-name="seven.denominator" horiz-adv-x="450" 
d="M252 0h-175l169 320h-191v126h356v-107z" />
    <glyph glyph-name="eight.denominator" horiz-adv-x="450" 
d="M410 129c0 -101 -93 -140 -185 -140c-93 0 -185 38 -185 140c0 48 30 85 74 103v1c-37 14 -67 48 -67 94c0 94 88 131 178 131c88 0 178 -37 178 -131c0 -46 -27 -80 -67 -93v-1c42 -16 74 -54 74 -104zM225 348c-23 0 -37 -17 -37 -33c0 -18 14 -35 37 -35s37 17 37 35
c0 16 -14 33 -37 33zM225 176c-26 0 -40 -19 -40 -38s14 -37 40 -37s40 18 40 37s-14 38 -40 38z" />
    <glyph glyph-name="nine.denominator" horiz-adv-x="450" 
d="M420 289c0 -56 -26 -107 -55 -148l-102 -141h-183l109 135l-1 3h-6c-77 0 -152 55 -152 150c0 112 91 170 195 170s195 -54 195 -169zM270 290c0 25 -18 45 -45 45c-28 0 -47 -20 -47 -45s19 -46 47 -46c27 0 45 21 45 46z" />
    <glyph glyph-name="zero.inferior" unicode="&#x2080;" horiz-adv-x="450" 
d="M425 76c0 -100 -36 -237 -200 -237s-200 137 -200 237c0 101 36 232 200 232s200 -131 200 -232zM271 76c0 47 -9 104 -46 104s-46 -57 -46 -104c0 -49 9 -108 46 -108s46 59 46 108z" />
    <glyph glyph-name="one.inferior" unicode="&#x2081;" horiz-adv-x="450" 
d="M198 -150v288l-75 -52l-71 110l158 100h139v-446h-151z" />
    <glyph glyph-name="two.inferior" unicode="&#x2082;" horiz-adv-x="450" 
d="M415 -150h-362v117l182 147c10 9 19 19 19 33c0 16 -9 30 -32 30c-24 0 -42 -20 -44 -53l-143 16c11 117 104 168 199 168c88 0 180 -40 180 -145c0 -73 -42 -109 -87 -141l-66 -46h154v-126z" />
    <glyph glyph-name="three.inferior" unicode="&#x2083;" horiz-adv-x="450" 
d="M349 85v-1c45 -15 67 -55 67 -99c0 -104 -93 -146 -180 -146c-89 0 -176 40 -199 137l136 33c5 -23 23 -45 53 -45c21 0 40 8 40 30c0 27 -25 33 -63 33h-42v103h47c34 0 51 8 51 31c0 14 -11 27 -35 27c-19 0 -40 -15 -44 -40l-134 31c28 97 116 129 193 129
s169 -35 169 -125c0 -55 -24 -81 -59 -98z" />
    <glyph glyph-name="four.inferior" unicode="&#x2084;" horiz-adv-x="450" 
d="M376 -150h-136v79h-215v122l169 245h182v-250h60v-117h-60v-79zM242 46v113h-2l-75 -113h77z" />
    <glyph glyph-name="five.inferior" unicode="&#x2085;" horiz-adv-x="450" 
d="M415 0c0 -124 -98 -161 -184 -161c-91 0 -175 48 -194 135l135 34c5 -24 25 -45 52 -45c21 0 41 9 41 34c0 28 -27 41 -72 41c-27 0 -85 -6 -123 -14l15 272h304v-126h-176l-3 -30c12 2 26 3 35 3c92 0 170 -46 170 -143z" />
    <glyph glyph-name="six.inferior" unicode="&#x2086;" horiz-adv-x="450" 
d="M420 9c0 -112 -91 -170 -195 -170s-195 54 -195 169c0 56 25 106 55 147l102 141h183l-111 -137l2 -1h7c77 0 152 -54 152 -149zM272 9c0 25 -19 44 -47 44c-27 0 -45 -19 -45 -44c0 -26 18 -46 45 -46c28 0 47 20 47 46z" />
    <glyph glyph-name="seven.inferior" unicode="&#x2087;" horiz-adv-x="450" 
d="M252 -150h-175l169 320h-191v126h356v-107z" />
    <glyph glyph-name="eight.inferior" unicode="&#x2088;" horiz-adv-x="450" 
d="M410 -21c0 -101 -93 -140 -185 -140c-93 0 -185 38 -185 140c0 48 30 85 74 103v1c-37 14 -67 48 -67 94c0 94 88 131 178 131c88 0 178 -37 178 -131c0 -46 -27 -80 -67 -93v-1c42 -16 74 -54 74 -104zM225 198c-23 0 -37 -17 -37 -33c0 -18 14 -35 37 -35s37 17 37 35
c0 16 -14 33 -37 33zM225 26c-26 0 -40 -19 -40 -38s14 -37 40 -37s40 18 40 37s-14 38 -40 38z" />
    <glyph glyph-name="nine.inferior" unicode="&#x2089;" horiz-adv-x="450" 
d="M420 139c0 -56 -26 -107 -55 -148l-102 -141h-183l109 135l-1 3h-6c-77 0 -152 55 -152 150c0 112 91 170 195 170s195 -54 195 -169zM270 140c0 25 -18 45 -45 45c-28 0 -47 -20 -47 -45s19 -46 47 -46c27 0 45 21 45 46z" />
    <glyph glyph-name="zero.numerator" horiz-adv-x="450" 
d="M425 488c0 -100 -36 -237 -200 -237s-200 137 -200 237c0 101 36 232 200 232s200 -131 200 -232zM271 488c0 47 -9 104 -46 104s-46 -57 -46 -104c0 -49 9 -108 46 -108s46 59 46 108z" />
    <glyph glyph-name="one.numerator" horiz-adv-x="450" 
d="M198 262v288l-75 -52l-71 110l158 100h139v-446h-151z" />
    <glyph glyph-name="two.numerator" horiz-adv-x="450" 
d="M415 262h-362v117l182 147c10 9 19 19 19 33c0 16 -9 30 -32 30c-24 0 -42 -20 -44 -53l-143 16c11 117 104 168 199 168c88 0 180 -40 180 -145c0 -73 -42 -109 -87 -141l-66 -46h154v-126z" />
    <glyph glyph-name="three.numerator" horiz-adv-x="450" 
d="M349 479v-1c45 -15 67 -55 67 -99c0 -104 -93 -146 -180 -146c-89 0 -176 40 -199 137l136 33c5 -23 23 -45 53 -45c21 0 40 8 40 30c0 27 -25 33 -63 33h-42v103h47c34 0 51 8 51 31c0 14 -11 27 -35 27c-19 0 -40 -15 -44 -40l-134 31c28 97 116 129 193 129
s169 -35 169 -125c0 -55 -24 -81 -59 -98z" />
    <glyph glyph-name="four.numerator" horiz-adv-x="450" 
d="M376 262h-136v79h-215v122l169 245h182v-250h60v-117h-60v-79zM242 458v113h-2l-75 -113h77z" />
    <glyph glyph-name="five.numerator" horiz-adv-x="450" 
d="M415 412c0 -124 -98 -161 -184 -161c-91 0 -175 48 -194 135l135 34c5 -24 25 -45 52 -45c21 0 41 9 41 34c0 28 -27 41 -72 41c-27 0 -85 -6 -123 -14l15 272h304v-126h-176l-3 -30c12 2 26 3 35 3c92 0 170 -46 170 -143z" />
    <glyph glyph-name="six.numerator" horiz-adv-x="450" 
d="M420 421c0 -112 -91 -170 -195 -170s-195 54 -195 169c0 56 25 106 55 147l102 141h183l-111 -137l2 -1h7c77 0 152 -54 152 -149zM272 421c0 25 -19 44 -47 44c-27 0 -45 -19 -45 -44c0 -26 18 -46 45 -46c28 0 47 20 47 46z" />
    <glyph glyph-name="seven.numerator" horiz-adv-x="450" 
d="M252 262h-175l169 320h-191v126h356v-107z" />
    <glyph glyph-name="eight.numerator" horiz-adv-x="450" 
d="M410 391c0 -101 -93 -140 -185 -140c-93 0 -185 38 -185 140c0 48 30 85 74 103v1c-37 14 -67 48 -67 94c0 94 88 131 178 131c88 0 178 -37 178 -131c0 -46 -27 -80 -67 -93v-1c42 -16 74 -54 74 -104zM225 610c-23 0 -37 -17 -37 -33c0 -18 14 -35 37 -35s37 17 37 35
c0 16 -14 33 -37 33zM225 438c-26 0 -40 -19 -40 -38s14 -37 40 -37s40 18 40 37s-14 38 -40 38z" />
    <glyph glyph-name="nine.numerator" horiz-adv-x="450" 
d="M420 551c0 -56 -26 -107 -55 -148l-102 -141h-183l109 135l-1 3h-6c-77 0 -152 55 -152 150c0 112 91 170 195 170s195 -54 195 -169zM270 552c0 25 -18 45 -45 45c-28 0 -47 -20 -47 -45s19 -46 47 -46c27 0 45 21 45 46z" />
    <glyph glyph-name="zero.superior" unicode="&#x2070;" horiz-adv-x="450" 
d="M425 665c0 -100 -36 -237 -200 -237s-200 137 -200 237c0 101 36 232 200 232s200 -131 200 -232zM271 665c0 47 -9 104 -46 104s-46 -57 -46 -104c0 -49 9 -108 46 -108s46 59 46 108z" />
    <glyph glyph-name="onesuperior" unicode="&#xb9;" horiz-adv-x="450" 
d="M198 439v288l-75 -52l-71 110l158 100h139v-446h-151z" />
    <glyph glyph-name="twosuperior" unicode="&#xb2;" horiz-adv-x="450" 
d="M415 439h-362v117l182 147c10 9 19 19 19 33c0 16 -9 30 -32 30c-24 0 -42 -20 -44 -53l-143 16c11 117 104 168 199 168c88 0 180 -40 180 -145c0 -73 -42 -109 -87 -141l-66 -46h154v-126z" />
    <glyph glyph-name="threesuperior" unicode="&#xb3;" horiz-adv-x="450" 
d="M349 674v-1c45 -15 67 -55 67 -99c0 -104 -93 -146 -180 -146c-89 0 -176 40 -199 137l136 33c5 -23 23 -45 53 -45c21 0 40 8 40 30c0 27 -25 33 -63 33h-42v103h47c34 0 51 8 51 31c0 14 -11 27 -35 27c-19 0 -40 -15 -44 -40l-134 31c28 97 116 129 193 129
s169 -35 169 -125c0 -55 -24 -81 -59 -98z" />
    <glyph glyph-name="four.superior" unicode="&#x2074;" horiz-adv-x="450" 
d="M376 439h-136v79h-215v122l169 245h182v-250h60v-117h-60v-79zM242 635v113h-2l-75 -113h77z" />
    <glyph glyph-name="five.superior" unicode="&#x2075;" horiz-adv-x="450" 
d="M415 589c0 -124 -98 -161 -184 -161c-91 0 -175 48 -194 135l135 34c5 -24 25 -45 52 -45c21 0 41 9 41 34c0 28 -27 41 -72 41c-27 0 -85 -6 -123 -14l15 272h304v-126h-176l-3 -30c12 2 26 3 35 3c92 0 170 -46 170 -143z" />
    <glyph glyph-name="six.superior" unicode="&#x2076;" horiz-adv-x="450" 
d="M420 598c0 -112 -91 -170 -195 -170s-195 54 -195 169c0 56 25 106 55 147l102 141h183l-111 -137l2 -1h7c77 0 152 -54 152 -149zM272 598c0 25 -19 44 -47 44c-27 0 -45 -19 -45 -44c0 -26 18 -46 45 -46c28 0 47 20 47 46z" />
    <glyph glyph-name="seven.superior" unicode="&#x2077;" horiz-adv-x="450" 
d="M252 439h-175l169 320h-191v126h356v-107z" />
    <glyph glyph-name="eight.superior" unicode="&#x2078;" horiz-adv-x="450" 
d="M410 568c0 -101 -93 -140 -185 -140c-93 0 -185 38 -185 140c0 48 30 85 74 103v1c-37 14 -67 48 -67 94c0 94 88 131 178 131c88 0 178 -37 178 -131c0 -46 -27 -80 -67 -93v-1c42 -16 74 -54 74 -104zM225 787c-23 0 -37 -17 -37 -33c0 -18 14 -35 37 -35s37 17 37 35
c0 16 -14 33 -37 33zM225 615c-26 0 -40 -19 -40 -38s14 -37 40 -37s40 18 40 37s-14 38 -40 38z" />
    <glyph glyph-name="nine.superior" unicode="&#x2079;" horiz-adv-x="450" 
d="M420 728c0 -56 -26 -107 -55 -148l-102 -141h-183l109 135l-1 3h-6c-77 0 -152 55 -152 150c0 112 91 170 195 170s195 -54 195 -169zM270 729c0 25 -18 45 -45 45c-28 0 -47 -20 -47 -45s19 -46 47 -46c27 0 45 21 45 46z" />
    <glyph glyph-name="interrobang" unicode="&#x203d;" horiz-adv-x="587" 
d="M385 252h-210l-3 243h171l-5 -104l1 -1c33 37 45 61 45 98c0 44 -28 73 -82 73c-46 0 -71 -16 -84 -42l-199 28c22 113 132 181 282 181c159 0 276 -68 276 -216c0 -88 -45 -148 -146 -210c-41 -25 -46 -33 -46 -46v-4zM405 105c0 -68 -55 -121 -124 -121
s-124 53 -124 121c0 66 55 121 124 121s124 -55 124 -121z" />
    <glyph glyph-name="afii61248" unicode="&#x2105;" horiz-adv-x="955" 
d="M245 339c-122 0 -210 76 -210 193s92 194 212 194c49 0 103 -18 130 -39l-78 -113c-11 12 -29 19 -47 19c-33 0 -62 -20 -62 -61c0 -39 31 -58 62 -58c18 0 37 8 48 19l79 -112c-30 -24 -82 -42 -134 -42zM300 -37l-98 53l420 723l97 -55zM920 184
c0 -125 -97 -195 -205 -195c-109 0 -205 70 -205 195c0 123 96 192 205 192c108 0 205 -69 205 -192zM774 184c0 31 -22 59 -59 59s-59 -28 -59 -59c0 -34 22 -61 59 -61c36 0 59 27 59 61z" />
    <glyph glyph-name="published" unicode="&#x2117;" horiz-adv-x="800" 
d="M20 353c0 210 171 377 381 377c209 0 379 -167 379 -377c0 -209 -170 -375 -379 -375c-210 0 -381 166 -381 375zM80 353c0 -176 140 -319 317 -319c176 0 323 143 323 319c0 177 -143 321 -319 321c-177 0 -321 -144 -321 -321zM249 123v448h191c94 0 185 -37 185 -153
c0 -110 -89 -155 -185 -155h-45v-140h-146zM395 372h34c32 0 52 13 52 44s-20 43 -52 43h-34v-87z" />
    <glyph glyph-name="uni0406" unicode="&#x406;" horiz-adv-x="372" 
d="M66 0v708h240v-708h-240z" />
    <glyph glyph-name="uni0456" unicode="&#x456;" horiz-adv-x="339" 
d="M54 0v526h231v-526h-231zM171 561c-66 0 -121 51 -121 117c0 64 55 118 121 118c63 0 118 -54 118 -118c0 -66 -55 -117 -118 -117z" />
    <glyph glyph-name="uni0408" unicode="&#x408;" horiz-adv-x="573" 
d="M248 -20c-127 0 -235 78 -263 180l204 78c5 -21 19 -41 43 -41c30 0 39 23 39 55v456h239v-446c0 -127 -46 -282 -262 -282z" />
    <glyph glyph-name="uni0458" unicode="&#x458;" horiz-adv-x="346" 
d="M55 -240c-26 0 -69 4 -96 12l12 188c14 -4 28 -5 37 -5c35 0 53 18 53 64v507h231v-514c0 -135 -50 -252 -237 -252zM177 561c-65 0 -120 51 -120 117c0 64 55 118 120 118c64 0 119 -54 119 -118c0 -66 -55 -117 -119 -117z" />
    <glyph glyph-name="uni0410" unicode="&#x410;" horiz-adv-x="776" 
d="M-16 0l279 708h253l276 -708h-259l-37 104h-225l-35 -104h-252zM328 286h115l-57 175z" />
    <glyph glyph-name="uni0411" unicode="&#x411;" horiz-adv-x="685" 
d="M66 0v708h541v-189h-311v-62h89c140 0 276 -52 276 -227c0 -166 -139 -230 -276 -230h-319zM296 183h62c33 0 64 14 64 52s-29 49 -64 49h-62v-101z" />
    <glyph glyph-name="uni0412" unicode="&#x412;" horiz-adv-x="693" 
d="M66 0v708h291c115 0 276 -24 276 -188c0 -76 -42 -125 -104 -149v-3c68 -16 133 -73 133 -161c0 -155 -137 -207 -275 -207h-321zM288 187h71c37 0 63 17 63 49c0 38 -44 47 -73 47h-61v-96zM288 436h64c33 0 57 15 57 47c0 27 -25 40 -62 40h-59v-87z" />
    <glyph glyph-name="uni0413" unicode="&#x413;" horiz-adv-x="548" 
d="M66 0v708h475v-201h-237v-507h-238z" />
    <glyph glyph-name="uni0414" unicode="&#x414;" horiz-adv-x="843" 
d="M10 -135v336h65c50 73 76 171 76 335v172h606v-507h76v-336h-206v135h-411v-135h-206zM323 201h196v308h-138v-9c0 -151 -27 -243 -58 -299z" />
    <glyph glyph-name="uni0415" unicode="&#x415;" horiz-adv-x="603" 
d="M66 0v708h487v-198h-263v-61h247v-185h-247v-66h280v-198h-504z" />
    <glyph glyph-name="uni0416" unicode="&#x416;" horiz-adv-x="1120" 
d="M-18 0l244 384l-231 324h270l174 -281h2v281h237v-281h2l174 281h271l-232 -324l245 -384h-283l-174 302h-2v-302h-238v302h-2l-175 -302h-282z" />
    <glyph glyph-name="uni0417" unicode="&#x417;" horiz-adv-x="633" 
d="M310 -20c-164 0 -243 43 -315 107l129 155c33 -36 71 -66 150 -66c45 0 81 16 81 52c0 43 -41 52 -103 52h-68v164h81c51 0 84 11 84 48c0 34 -40 41 -66 41c-49 0 -103 -18 -141 -55l-124 144c73 67 158 106 293 106c169 0 278 -73 278 -192c0 -85 -54 -144 -113 -161
v-4c73 -23 126 -75 126 -170c0 -153 -157 -221 -292 -221z" />
    <glyph glyph-name="uni0418" unicode="&#x418;" horiz-adv-x="817" 
d="M66 0v708h226v-379h4l208 379h247v-708h-226v358h-4l-202 -358h-253z" />
    <glyph glyph-name="uni0419" unicode="&#x419;" horiz-adv-x="817" 
d="M66 0v708h226v-379h4l208 379h247v-708h-226v358h-4l-202 -358h-253zM405 763c-97 0 -174 38 -195 148l113 22c4 -36 33 -57 82 -57s78 21 82 57l113 -22c-21 -110 -98 -148 -195 -148z" />
    <glyph glyph-name="uni041A" unicode="&#x41a;" horiz-adv-x="763" 
d="M66 0v708h232v-261h1l189 261h280l-266 -324l279 -384h-292l-189 282h-2v-282h-232z" />
    <glyph glyph-name="uni041B" unicode="&#x41b;" horiz-adv-x="830" 
d="M123 -7c-43 0 -99 7 -119 12l15 193c12 -4 29 -6 42 -6c46 0 93 17 93 202v314h610v-708h-238v509h-144v-80c0 -345 -89 -436 -259 -436z" />
    <glyph glyph-name="uni041C" unicode="&#x41c;" horiz-adv-x="1008" 
d="M66 0v708h311l128 -381h5l111 381h321v-708h-231l7 398l-6 1l-132 -399h-168l-130 400h-5l11 -400h-222z" />
    <glyph glyph-name="uni041D" unicode="&#x41d;" horiz-adv-x="802" 
d="M66 0v708h238v-240h194v240h238v-708h-238v269h-194v-269h-238z" />
    <glyph glyph-name="uni041E" unicode="&#x41e;" horiz-adv-x="855" 
d="M427 -20c-224 0 -393 151 -393 378s169 370 393 370s394 -143 394 -370s-170 -378 -394 -378zM427 200c80 0 140 66 140 158s-60 152 -140 152c-81 0 -140 -60 -140 -152s59 -158 140 -158z" />
    <glyph glyph-name="uni041F" unicode="&#x41f;" horiz-adv-x="802" 
d="M66 0v708h670v-708h-238v509h-194v-509h-238z" />
    <glyph glyph-name="uni0420" unicode="&#x420;" horiz-adv-x="684" 
d="M66 0v708h304c144 0 290 -55 290 -238c0 -175 -143 -242 -290 -242h-67v-228h-237zM303 409h50c36 0 72 17 72 59c0 45 -36 55 -72 55h-50v-114z" />
    <glyph glyph-name="uni0421" unicode="&#x421;" horiz-adv-x="696" 
d="M419 -20c-214 0 -385 151 -385 374c0 227 171 374 385 374c109 0 212 -38 277 -98l-146 -176c-26 35 -68 53 -117 53c-79 0 -143 -59 -143 -153c0 -92 66 -151 143 -151c54 0 95 26 117 57l146 -175c-63 -63 -159 -105 -277 -105z" />
    <glyph glyph-name="uni0422" unicode="&#x422;" horiz-adv-x="600" 
d="M181 0v507h-174v201h586v-201h-174v-507h-238z" />
    <glyph glyph-name="uni0423" unicode="&#x423;" horiz-adv-x="735" 
d="M186 -15c-64 0 -104 9 -131 16l29 191c17 -6 53 -13 73 -13c49 0 73 20 89 51l2 4l-268 474h276l121 -264l109 264h269l-271 -531c-67 -131 -159 -192 -298 -192z" />
    <glyph glyph-name="uni0424" unicode="&#x424;" horiz-adv-x="975" 
d="M369 -20v87c-92 1 -175 24 -234 71c-68 53 -105 136 -105 227c0 107 37 186 110 237c57 39 137 58 229 61v65h237v-65c91 -3 172 -22 229 -61c73 -51 110 -130 110 -237c0 -91 -37 -174 -105 -227c-59 -47 -143 -70 -234 -71v-87h-237zM374 267v197
c-76 -10 -106 -48 -106 -99c0 -53 30 -88 106 -98zM601 267c76 10 106 45 106 98c0 51 -30 89 -106 99v-197z" />
    <glyph glyph-name="uni0425" unicode="&#x425;" horiz-adv-x="800" 
d="M-12 0l253 369l-240 339h287l112 -186l107 186h280l-236 -336l261 -372h-291l-128 207l-123 -207h-282z" />
    <glyph glyph-name="uni0426" unicode="&#x426;" horiz-adv-x="822" 
d="M606 -135v135h-540v708h238v-507h194v507h238v-507h76v-336h-206z" />
    <glyph glyph-name="uni0427" unicode="&#x427;" horiz-adv-x="749" 
d="M445 0v240c-37 -10 -92 -22 -155 -22c-163 0 -240 62 -240 217v273h234v-205c0 -81 28 -94 87 -94c16 0 56 5 74 15v284h238v-708h-238z" />
    <glyph glyph-name="uni0428" unicode="&#x428;" horiz-adv-x="1154" 
d="M66 0v708h238v-507h154v507h238v-507h154v507h238v-708h-1022z" />
    <glyph glyph-name="uni0429" unicode="&#x429;" horiz-adv-x="1174" 
d="M958 -135v135h-892v708h238v-507h154v507h238v-507h154v507h238v-507h76v-336h-206z" />
    <glyph glyph-name="uni042A" unicode="&#x42a;" horiz-adv-x="750" 
d="M131 0v513h-124v195h362v-228h67c147 0 290 -55 290 -238c0 -175 -146 -242 -290 -242h-305zM369 185h50c36 0 72 16 72 59s-34 55 -72 55h-50v-114z" />
    <glyph glyph-name="uni042B" unicode="&#x42b;" horiz-adv-x="1032" 
d="M66 0v708h238v-228h67c147 0 290 -55 290 -238c0 -175 -146 -242 -290 -242h-305zM304 185h50c36 0 72 16 72 59s-34 55 -72 55h-50v-114zM728 0v708h238v-708h-238z" />
    <glyph glyph-name="uni042C" unicode="&#x42c;" horiz-adv-x="685" 
d="M66 0v708h238v-228h67c147 0 290 -55 290 -238c0 -175 -146 -242 -290 -242h-305zM304 185h50c36 0 72 16 72 59s-34 55 -72 55h-50v-114z" />
    <glyph glyph-name="uni042D" unicode="&#x42d;" horiz-adv-x="696" 
d="M201 264v185h188c-21 41 -68 65 -126 65c-51 0 -95 -19 -123 -56l-132 179c65 56 164 91 269 91c214 0 385 -147 385 -374c0 -223 -174 -374 -388 -374c-118 0 -218 44 -281 107l137 168c23 -30 74 -59 130 -59c61 0 110 25 131 68h-190z" />
    <glyph glyph-name="uni042E" unicode="&#x42e;" horiz-adv-x="1164" 
d="M752 -20c-200 0 -337 122 -370 293h-78v-273h-238v708h238v-244h83c40 157 173 264 365 264c231 0 378 -157 378 -370s-147 -378 -378 -378zM752 197c76 0 126 67 126 161s-50 155 -126 155c-77 0 -127 -61 -127 -155s50 -161 127 -161z" />
    <glyph glyph-name="uni042F" unicode="&#x42f;" horiz-adv-x="722" 
d="M0 0l168 273c-73 37 -115 111 -115 205c0 180 146 230 296 230h307v-708h-237v233h-22l-126 -233h-271zM369 409h55v114h-65c-30 0 -73 -5 -73 -55c0 -51 50 -59 83 -59z" />
    <glyph glyph-name="uni0430" unicode="&#x430;" horiz-adv-x="591" 
d="M209 -14c-82 0 -183 44 -183 169c0 147 167 177 306 177v2c0 32 -24 47 -60 47c-42 0 -82 -21 -111 -45l-115 114c63 61 157 96 250 96c200 0 253 -121 253 -269v-277h-209v42h-2c-26 -40 -83 -56 -129 -56zM274 125c44 0 73 31 73 75v18h-13c-68 0 -113 -12 -113 -52
c0 -29 31 -41 53 -41z" />
    <glyph glyph-name="uni0431" unicode="&#x431;" horiz-adv-x="667" 
d="M340 -20c-76 0 -140 23 -193 59c-80 63 -108 140 -108 267c0 230 30 381 252 411l92 12c74 10 87 19 95 49l153 -42c-24 -120 -79 -165 -174 -177l-127 -17c-63 -9 -128 -25 -141 -125h3c34 45 89 86 188 86c127 0 255 -81 255 -252c0 -174 -133 -271 -295 -271zM340 172
c50 0 86 40 86 89c0 46 -37 87 -87 87s-85 -41 -85 -87c0 -49 36 -89 86 -89z" />
    <glyph glyph-name="uni0432" unicode="&#x432;" horiz-adv-x="638" 
d="M53 0v526h326c86 0 205 -18 205 -140c0 -56 -31 -93 -77 -110v-3c50 -11 99 -54 99 -119c0 -115 -102 -154 -205 -154h-348zM268 132h58c30 0 51 15 51 42c0 33 -35 40 -60 40h-49v-82zM268 320h52c28 0 48 13 48 41c0 23 -21 35 -51 35h-49v-76z" />
    <glyph glyph-name="uni0433" unicode="&#x433;" horiz-adv-x="479" 
d="M53 0v526h411v-171h-179v-355h-232z" />
    <glyph glyph-name="uni0434" unicode="&#x434;" horiz-adv-x="710" 
d="M10 -108v279h42c33 39 53 89 53 218v137h529v-355h66v-279h-185v108h-320v-108h-185zM285 171h117v187h-84v-26c0 -85 -14 -132 -33 -161z" />
    <glyph glyph-name="uni0435" unicode="&#x435;" horiz-adv-x="630" 
d="M330 -20c-153 0 -298 97 -298 283c0 174 131 283 293 283c165 0 277 -122 277 -288c0 -17 -1 -37 -2 -49h-354c4 -37 48 -60 90 -60s72 19 86 37l164 -83c-46 -75 -139 -123 -256 -123zM244 333h159c0 37 -30 64 -76 64c-51 0 -79 -35 -83 -64z" />
    <glyph glyph-name="uni0436" unicode="&#x436;" horiz-adv-x="937" 
d="M-10 0l139 279l-135 247h253l105 -226h3v226h227v-226h3l105 226h253l-135 -247l139 -279h-254l-108 234h-3v-234h-227v234h-3l-108 -234h-254z" />
    <glyph glyph-name="uni0437" unicode="&#x437;" horiz-adv-x="544" 
d="M122 355l-91 120c59 46 131 71 238 71c139 0 228 -55 228 -146c0 -64 -40 -109 -88 -122v-3c59 -16 103 -55 103 -127c0 -116 -130 -168 -240 -168c-154 0 -210 33 -270 81l103 125c27 -23 61 -47 126 -47c37 0 66 11 66 34c0 28 -34 34 -84 34h-50v126h56
c41 0 69 7 69 31c0 22 -34 27 -53 27c-41 0 -81 -11 -113 -36z" />
    <glyph glyph-name="uni0438" unicode="&#x438;" horiz-adv-x="700" 
d="M53 0v526h218v-282h3l130 282h243v-526h-217v266h-3l-126 -266h-248z" />
    <glyph glyph-name="uni0439" unicode="&#x439;" horiz-adv-x="700" 
d="M53 0v526h218v-282h3l130 282h243v-526h-217v266h-3l-126 -266h-248zM350 584c-88 0 -158 34 -177 134l103 20c3 -33 30 -52 74 -52s71 19 74 52l103 -20c-19 -100 -89 -134 -177 -134z" />
    <glyph glyph-name="uni043A" unicode="&#x43a;" horiz-adv-x="671" 
d="M53 0v526h232v-211h3l125 211h268l-170 -247l169 -279h-269l-123 219h-3v-219h-232z" />
    <glyph glyph-name="uni043B" unicode="&#x43b;" horiz-adv-x="700" 
d="M121 -7c-32 0 -104 5 -119 9l11 170c9 -3 22 -4 31 -4c35 0 70 13 70 151v207h533v-526h-232v355h-81v-69c0 -247 -85 -293 -213 -293z" />
    <glyph glyph-name="uni043C" unicode="&#x43c;" horiz-adv-x="869" 
d="M53 0v526h289l95 -283h3l83 283h293v-526h-211v295l-5 1l-98 -296h-144l-97 297h-3v-297h-205z" />
    <glyph glyph-name="uni043D" unicode="&#x43d;" horiz-adv-x="672" 
d="M53 0v526h232v-166h102v166h232v-526h-232v189h-102v-189h-232z" />
    <glyph glyph-name="uni043E" unicode="&#x43e;" horiz-adv-x="664" 
d="M331 -20c-158 0 -299 103 -299 285c0 180 141 281 299 281c159 0 301 -101 301 -281c0 -182 -142 -285 -301 -285zM332 176c50 0 86 40 86 89c0 46 -37 87 -87 87s-85 -41 -85 -87c0 -49 36 -89 86 -89z" />
    <glyph glyph-name="uni043F" unicode="&#x43f;" horiz-adv-x="672" 
d="M53 0v526h566v-526h-232v355h-102v-355h-232z" />
    <glyph glyph-name="uni0440" unicode="&#x440;" horiz-adv-x="694" 
d="M53 -240v766h217v-53h2c39 44 98 67 150 67c157 0 240 -140 240 -275c0 -139 -82 -279 -239 -279c-52 0 -107 20 -139 55h-2v-281h-229zM362 176c55 0 86 39 86 89c0 46 -31 87 -86 87c-54 0 -90 -41 -90 -87c0 -49 36 -89 90 -89z" />
    <glyph glyph-name="uni0441" unicode="&#x441;" horiz-adv-x="526" 
d="M339 -20c-178 0 -307 111 -307 283c0 171 134 283 310 283c72 0 151 -26 191 -57l-115 -166c-16 19 -45 29 -69 29c-44 0 -90 -30 -90 -89s46 -87 90 -87c27 0 54 11 70 28l116 -162c-44 -35 -119 -62 -196 -62z" />
    <glyph glyph-name="uni0442" unicode="&#x442;" horiz-adv-x="540" 
d="M154 0v355h-139v171h510v-171h-139v-355h-232z" />
    <glyph glyph-name="uni0443" unicode="&#x443;" horiz-adv-x="638" 
d="M154 -240c-48 0 -104 9 -131 16l29 190c17 -6 45 -12 65 -12c51 0 72 23 84 55l4 11l-213 506h256l78 -277h4l69 277h247l-216 -558c-51 -131 -121 -208 -276 -208z" />
    <glyph glyph-name="uni0444" unicode="&#x444;" horiz-adv-x="921" 
d="M32 271c0 170 122 256 300 271v214h257v-214c177 -15 300 -101 300 -271c0 -167 -122 -266 -300 -282v-229h-257v229c-178 16 -300 115 -300 282zM582 175c50 0 93 34 93 91c0 55 -43 88 -93 89v-180zM339 175v180c-50 -1 -93 -34 -93 -89c0 -57 43 -91 93 -91z" />
    <glyph glyph-name="uni0445" unicode="&#x445;" horiz-adv-x="675" 
d="M-8 0l203 270l-189 256h262l76 -110l75 110h254l-189 -256l199 -270h-264l-81 119l-86 -119h-260z" />
    <glyph glyph-name="uni0446" unicode="&#x446;" horiz-adv-x="695" 
d="M500 -108v108h-447v526h232v-355h102v355h232v-355h66v-279h-185z" />
    <glyph glyph-name="uni0447" unicode="&#x447;" horiz-adv-x="650" 
d="M365 0v160c-23 -6 -56 -10 -122 -10c-126 0 -200 46 -200 161v215h226v-142c0 -60 21 -70 64 -70c7 0 20 1 32 3v209h232v-526h-232z" />
    <glyph glyph-name="uni0448" unicode="&#x448;" horiz-adv-x="976" 
d="M53 0v526h232v-355h87v355h232v-355h87v355h232v-526h-870z" />
    <glyph glyph-name="uni0449" unicode="&#x449;" horiz-adv-x="999" 
d="M804 -108v108h-751v526h232v-355h87v355h232v-355h87v355h232v-355h66v-279h-185z" />
    <glyph glyph-name="uni044A" unicode="&#x44a;" horiz-adv-x="700" 
d="M125 0v355h-110v171h342v-156h99c113 0 224 -42 224 -183c0 -135 -113 -187 -224 -187h-331zM352 143h51c30 0 60 13 60 49s-28 44 -60 44h-51v-93z" />
    <glyph glyph-name="uni044B" unicode="&#x44b;" horiz-adv-x="937" 
d="M53 0v526h232v-156h89c113 0 224 -42 224 -183c0 -135 -113 -187 -224 -187h-321zM280 143h51c30 0 60 13 60 49s-28 44 -60 44h-51v-93zM652 0v526h232v-526h-232z" />
    <glyph glyph-name="uni044C" unicode="&#x44c;" horiz-adv-x="628" 
d="M53 0v526h232v-156h99c113 0 224 -42 224 -183c0 -135 -113 -187 -224 -187h-331zM280 143h51c30 0 60 13 60 49s-28 44 -60 44h-51v-93z" />
    <glyph glyph-name="uni044D" unicode="&#x44d;" horiz-adv-x="545" 
d="M206 -20c-83 0 -163 27 -210 62l102 142c20 -23 51 -34 96 -34c33 0 74 16 89 52h-139v136h134c-12 26 -45 45 -80 45c-41 0 -78 -11 -99 -36l-101 142c43 31 128 57 205 57c188 0 310 -112 310 -283c0 -172 -116 -283 -307 -283z" />
    <glyph glyph-name="uni044E" unicode="&#x44e;" horiz-adv-x="945" 
d="M619 -20c-132 0 -252 75 -285 209h-49v-189h-232v526h232v-171h54c38 122 153 190 280 190c155 0 294 -101 294 -281c0 -181 -139 -284 -294 -284zM619 176c46 0 80 35 80 88c0 52 -35 87 -80 87c-46 0 -79 -35 -79 -87c0 -55 34 -88 79 -88z" />
    <glyph glyph-name="uni044F" unicode="&#x44f;" horiz-adv-x="643" 
d="M10 0l112 182c-54 26 -92 74 -92 157c0 135 113 187 224 187h336v-526h-232v156h-21l-66 -156h-261zM311 290h59v99h-59c-32 0 -64 -14 -64 -49c0 -40 30 -50 64 -50z" />
    <glyph glyph-name="uni0490" unicode="&#x490;" horiz-adv-x="548" 
d="M66 0v708h289v125h186v-326h-237v-507h-238z" />
    <glyph glyph-name="uni0491" unicode="&#x491;" horiz-adv-x="479" 
d="M53 0v526h241v108h170v-279h-179v-355h-232z" />
    <glyph glyph-name="uni0403" unicode="&#x403;" horiz-adv-x="548" 
d="M66 0v708h475v-201h-237v-507h-238zM339 764h-169l111 144h212z" />
    <glyph glyph-name="uni0453" unicode="&#x453;" horiz-adv-x="479" 
d="M53 0v526h411v-171h-179v-355h-232zM289 584h-169l111 144h212z" />
    <glyph glyph-name="uni0405" unicode="&#x405;" horiz-adv-x="617" 
d="M298 -20c-114 0 -226 43 -298 107l145 158c33 -36 94 -69 152 -69c27 0 53 8 53 33c0 26 -25 36 -125 69c-96 32 -183 83 -183 207c0 176 158 243 297 243c93 0 197 -38 270 -105l-148 -151c-32 40 -85 61 -122 61c-35 0 -58 -9 -58 -32c0 -21 21 -28 70 -44
c102 -33 239 -78 239 -224c0 -171 -149 -253 -292 -253z" />
    <glyph glyph-name="uni0455" unicode="&#x455;" horiz-adv-x="513" 
d="M251 -20c-90 0 -184 27 -247 75l113 131c32 -29 79 -49 119 -49c16 0 33 5 33 21c0 17 -22 25 -83 39c-66 15 -148 59 -148 160c0 137 135 189 231 189c81 0 165 -25 229 -68l-108 -129c-33 21 -69 34 -102 34c-22 0 -39 -5 -39 -22c0 -13 10 -18 70 -30
c83 -17 165 -63 165 -164c0 -141 -135 -187 -233 -187z" />
    <glyph glyph-name="uni040C" unicode="&#x40c;" horiz-adv-x="763" 
d="M66 0v708h232v-261h1l189 261h280l-266 -324l279 -384h-292l-189 282h-2v-282h-232zM449 764h-169l111 144h212z" />
    <glyph glyph-name="uni045C" unicode="&#x45c;" horiz-adv-x="671" 
d="M53 0v526h232v-211h3l125 211h268l-170 -247l169 -279h-269l-123 219h-3v-219h-232zM403 584h-169l111 144h212z" />
    <glyph glyph-name="uni0407" unicode="&#x407;" horiz-adv-x="372" 
d="M66 0v708h240v-708h-240zM213 858c0 54 46 99 101 99c53 0 99 -45 99 -99c0 -55 -46 -98 -99 -98c-55 0 -101 43 -101 98zM-36 858c0 54 46 99 101 99c53 0 99 -45 99 -99c0 -55 -46 -98 -99 -98c-55 0 -101 43 -101 98z" />
    <glyph glyph-name="uni0457" unicode="&#x457;" horiz-adv-x="339" 
d="M194 678c0 54 46 99 101 99c53 0 99 -45 99 -99c0 -55 -46 -98 -99 -98c-55 0 -101 43 -101 98zM-55 678c0 54 46 99 101 99c53 0 99 -45 99 -99c0 -55 -46 -98 -99 -98c-55 0 -101 43 -101 98zM54 0v526h231v-526h-231z" />
    <glyph glyph-name="uni040E" unicode="&#x40e;" horiz-adv-x="735" 
d="M186 -15c-64 0 -104 9 -131 16l29 191c17 -6 53 -13 73 -13c49 0 73 20 89 51l2 4l-268 474h276l121 -264l109 264h269l-271 -531c-67 -131 -159 -192 -298 -192zM372 763c-97 0 -174 38 -195 148l113 22c4 -36 33 -57 82 -57s78 21 82 57l113 -22
c-21 -110 -98 -148 -195 -148z" />
    <glyph glyph-name="uni045E" unicode="&#x45e;" horiz-adv-x="638" 
d="M154 -240c-48 0 -104 9 -131 16l29 190c17 -6 45 -12 65 -12c51 0 72 23 84 55l4 11l-213 506h256l78 -277h4l69 277h247l-216 -558c-51 -131 -121 -208 -276 -208zM326 584c-88 0 -158 34 -177 134l103 20c3 -33 30 -52 74 -52s71 19 74 52l103 -20
c-19 -100 -89 -134 -177 -134z" />
    <glyph glyph-name="uni040F" unicode="&#x40f;" horiz-adv-x="802" 
d="M298 -135v135h-232v708h238v-507h194v507h238v-708h-232v-135h-206z" />
    <glyph glyph-name="uni045F" unicode="&#x45f;" horiz-adv-x="672" 
d="M243 -108v108h-190v526h232v-355h102v355h232v-526h-191v-108h-185z" />
    <glyph glyph-name="uni0409" unicode="&#x409;" horiz-adv-x="1145" 
d="M123 -7c-43 0 -99 7 -119 12l15 193c12 -4 29 -6 42 -6c46 0 93 17 93 202v314h610v-228h67c147 0 290 -55 290 -238c0 -175 -146 -242 -290 -242h-305v509h-144v-80c0 -345 -89 -436 -259 -436zM764 185h50c36 0 72 16 72 59s-34 55 -72 55h-50v-114z" />
    <glyph glyph-name="uni0459" unicode="&#x459;" horiz-adv-x="990" 
d="M121 -7c-32 0 -104 5 -119 9l11 170c9 -3 22 -4 31 -4c35 0 70 13 70 151v207h533v-156h99c113 0 224 -42 224 -183c0 -135 -113 -187 -224 -187h-331v355h-81v-69c0 -247 -85 -293 -213 -293zM647 143h46c30 0 60 13 60 49s-28 44 -60 44h-46v-93z" />
    <glyph glyph-name="uni040A" unicode="&#x40a;" horiz-adv-x="1125" 
d="M66 0v708h238v-240h194v240h238v-240h89c140 0 276 -53 276 -232c0 -170 -139 -236 -276 -236h-327v277h-194v-277h-238zM736 187h62c33 0 64 15 64 54s-29 50 -64 50h-62v-104z" />
    <glyph glyph-name="uni045A" unicode="&#x45a;" horiz-adv-x="962" 
d="M53 0v526h232v-166h102v166h232v-166h99c113 0 224 -41 224 -178c0 -131 -113 -182 -224 -182h-331v201h-102v-201h-232zM619 139h46c30 0 60 13 60 48s-28 43 -60 43h-46v-91z" />
    <glyph glyph-name="uni0404" unicode="&#x404;" horiz-adv-x="696" 
d="M419 -20c-214 0 -385 151 -385 374c0 227 171 374 385 374c109 0 212 -38 277 -98l-140 -172c-28 37 -72 56 -128 56c-60 0 -103 -29 -120 -65h192v-185h-195c18 -42 62 -68 128 -68c56 0 103 27 126 57l137 -168c-63 -63 -159 -105 -277 -105z" />
    <glyph glyph-name="uni0454" unicode="&#x454;" horiz-adv-x="545" 
d="M339 -20c-191 0 -307 111 -307 283c0 171 122 283 310 283c77 0 162 -26 205 -57l-101 -142c-21 25 -58 36 -95 36c-30 0 -70 -16 -84 -45h134v-136h-139c14 -35 51 -52 93 -52c41 0 68 10 92 34l102 -142c-47 -35 -127 -62 -210 -62z" />
    <glyph glyph-name="uni2116" unicode="&#x2116;" horiz-adv-x="1095" 
d="M66 0v708h237l152 -319h4v319h226v-708h-243l-146 298h-4v-298h-226zM763 276v104h292v-104h-292zM903 416c-84 0 -160 56 -160 154c0 96 76 150 160 150c86 0 162 -54 162 -150c0 -98 -76 -154 -162 -154zM904 522c27 0 46 21 46 48c0 24 -20 46 -47 46s-45 -22 -45 -46
c0 -27 19 -48 46 -48z" />
    <glyph glyph-name="uni040B" unicode="&#x40b;" horiz-adv-x="867" 
d="M181 0v514h-174v194h586v-194h-174v-106c37 10 92 22 155 22c163 0 240 -62 240 -217v-213h-238v145c0 81 -24 94 -83 94c-16 0 -56 -5 -74 -15v-224h-238z" />
    <glyph glyph-name="uni0402" unicode="&#x402;" horiz-adv-x="845" 
d="M580 -10c-43 0 -101 6 -121 11l18 172c12 -4 29 -6 42 -6c37 0 61 9 61 41c0 30 -28 46 -87 46c-16 0 -56 -5 -74 -15v-239h-238v514h-174v194h586v-194h-174v-106c37 10 92 22 155 22c163 0 247 -86 247 -229c0 -155 -122 -211 -241 -211z" />
    <glyph glyph-name="uni045B" unicode="&#x45b;" horiz-adv-x="666" 
d="M53 0v560h-53v120h53v76h231v-76h117v-120h-117v-106h2c26 39 78 72 144 72c148 0 188 -116 188 -220v-306h-232v266c0 53 -17 72 -50 72c-27 0 -52 -22 -52 -73v-265h-231z" />
    <glyph glyph-name="uni0452" unicode="&#x452;" horiz-adv-x="666" 
d="M372 -240c-26 0 -62 3 -89 10l15 173c9 -2 19 -4 29 -4c45 0 59 32 59 74v253c0 53 -17 72 -50 72c-27 0 -52 -22 -52 -73v-265h-231v560h-53v120h53v76h231v-76h117v-120h-117v-106h2c26 39 78 72 144 72c148 0 188 -116 188 -220v-298c0 -132 -54 -248 -246 -248z" />
    <glyph glyph-name="uni0401" unicode="&#x401;" horiz-adv-x="603" 
d="M66 0v708h487v-198h-263v-61h247v-185h-247v-66h280v-198h-504zM336 858c0 54 46 99 101 99c53 0 99 -45 99 -99c0 -55 -46 -98 -99 -98c-55 0 -101 43 -101 98zM87 858c0 54 46 99 101 99c53 0 99 -45 99 -99c0 -55 -46 -98 -99 -98c-55 0 -101 43 -101 98z" />
    <glyph glyph-name="uni0451" unicode="&#x451;" horiz-adv-x="630" 
d="M330 -20c-153 0 -298 97 -298 283c0 174 131 283 293 283c165 0 277 -122 277 -288c0 -17 -1 -37 -2 -49h-354c4 -37 48 -60 90 -60s72 19 86 37l164 -83c-46 -75 -139 -123 -256 -123zM244 333h159c0 37 -30 64 -76 64c-51 0 -79 -35 -83 -64zM355 678
c0 54 46 99 101 99c53 0 99 -45 99 -99c0 -55 -46 -98 -99 -98c-55 0 -101 43 -101 98zM106 678c0 54 46 99 101 99c53 0 99 -45 99 -99c0 -55 -46 -98 -99 -98c-55 0 -101 43 -101 98z" />
    <glyph glyph-name="uni0400" unicode="&#x400;" horiz-adv-x="603" 
d="M66 0v708h487v-198h-263v-61h247v-185h-247v-66h280v-198h-504zM264 764l-154 144h212l111 -144h-169z" />
    <glyph glyph-name="uni0450" unicode="&#x450;" horiz-adv-x="630" 
d="M330 -20c-153 0 -298 97 -298 283c0 174 131 283 293 283c165 0 277 -122 277 -288c0 -17 -1 -37 -2 -49h-354c4 -37 48 -60 90 -60s72 19 86 37l164 -83c-46 -75 -139 -123 -256 -123zM244 333h159c0 37 -30 64 -76 64c-51 0 -79 -35 -83 -64zM267 584l-154 144h212
l111 -144h-169z" />
    <glyph glyph-name="uni040D" unicode="&#x40d;" horiz-adv-x="817" 
d="M66 0v708h226v-379h4l208 379h247v-708h-226v358h-4l-202 -358h-253zM314 764l-154 144h212l111 -144h-169z" />
    <glyph glyph-name="uni045D" unicode="&#x45d;" horiz-adv-x="700" 
d="M53 0v526h218v-282h3l130 282h243v-526h-217v266h-3l-126 -266h-248zM282 584l-154 144h212l111 -144h-169z" />
    <glyph glyph-name="uni2010" unicode="&#x2010;" horiz-adv-x="336" 
d="M30 199v172h276v-172h-276z" />
    <glyph glyph-name="cyrbreve" 
d="M180 584c-88 0 -158 34 -177 134l103 20c3 -33 30 -52 74 -52s71 19 74 52l103 -20c-19 -100 -89 -134 -177 -134z" />
    <glyph glyph-name="cyrbreve.cap" 
d="M180 763c-97 0 -174 38 -195 148l113 22c4 -36 33 -57 82 -57s78 21 82 57l113 -22c-21 -110 -98 -148 -195 -148z" />
    <glyph glyph-name="exclam.sc" horiz-adv-x="420" 
d="M210 -17c-69 0 -120 48 -120 115c0 64 51 114 120 114s120 -50 120 -114c0 -67 -51 -115 -120 -115zM93 251v343h234v-343h-234z" />
    <glyph glyph-name="dollar.sc" horiz-adv-x="640" 
d="M279 590v56h97v-53c71 -8 142 -32 198 -70l-115 -136c-35 22 -72 36 -107 36c-23 0 -42 -5 -42 -24c0 -13 10 -20 73 -34c88 -17 176 -63 176 -171c0 -123 -100 -177 -193 -192v-64h-98v62c-80 8 -159 35 -215 78l118 138c34 -31 84 -52 127 -52c16 0 35 5 35 22
c0 18 -23 28 -87 43c-69 16 -157 60 -157 166c0 121 99 179 190 195z" />
    <glyph glyph-name="percent.sc" horiz-adv-x="850" 
d="M203 283c-89 0 -168 66 -168 165s79 164 168 164c91 0 169 -65 169 -164s-78 -165 -169 -165zM203 399c28 0 51 20 51 50s-23 50 -51 50c-27 0 -51 -20 -51 -50s24 -50 51 -50zM648 -17c-89 0 -168 66 -168 165s79 164 168 164c91 0 169 -65 169 -164s-78 -165 -169 -165
zM648 99c28 0 51 20 51 50s-23 50 -51 50c-27 0 -51 -20 -51 -50s24 -50 51 -50zM291 -37l-92 54l344 592l93 -54z" />
    <glyph glyph-name="ampersand.sc" horiz-adv-x="800" 
d="M507 0l-28 28c-45 -31 -112 -48 -173 -48c-159 0 -264 68 -264 192c0 79 50 135 123 160c-34 27 -53 66 -53 109c0 99 91 173 233 173s223 -70 223 -166c0 -74 -48 -122 -123 -153l40 -35l45 52h256l-165 -169l160 -143h-274zM344 478c-23 0 -39 -20 -39 -39
c0 -16 10 -32 31 -47c34 9 47 26 47 45c0 22 -15 41 -39 41zM348 159l-69 67c-17 -5 -32 -21 -32 -40c0 -32 33 -43 52 -43c20 0 38 6 49 16z" />
    <glyph glyph-name="parenleft.sc" horiz-adv-x="327" 
d="M183 295c0 -126 35 -240 107 -342l-147 -54c-86 119 -126 263 -126 396c0 132 40 276 126 395l147 -54c-72 -102 -107 -216 -107 -341z" />
    <glyph glyph-name="parenright.sc" horiz-adv-x="327" 
d="M310 294c0 -132 -40 -276 -126 -395l-147 54c72 102 107 216 107 341c0 126 -35 240 -107 342l147 54c86 -119 126 -263 126 -396z" />
    <glyph glyph-name="bracketleft.sc" horiz-adv-x="327" 
d="M272 -76h-236v741h236v-129h-74v-483h74v-129z" />
    <glyph glyph-name="backslash.sc" horiz-adv-x="402" 
d="M405 -4l-155 -48l-253 651l156 48z" />
    <glyph glyph-name="bracketright.sc" horiz-adv-x="327" 
d="M291 -76h-236v129h74v483h-74v129h236v-741z" />
    <glyph glyph-name="braceleft.sc" horiz-adv-x="327" 
d="M285 -76h-88c-106 0 -138 71 -138 161v81c0 46 -23 62 -57 62v133c34 0 57 16 57 62v81c0 90 32 161 138 161h88v-129h-24c-31 0 -44 -18 -44 -50v-79c0 -65 -38 -105 -88 -112v-1c50 -7 88 -47 88 -112v-79c0 -32 13 -50 44 -50h24v-129z" />
    <glyph glyph-name="slash.sc" horiz-adv-x="402" 
d="M152 -52l-155 48l252 651l156 -48z" />
    <glyph glyph-name="braceright.sc" horiz-adv-x="327" 
d="M130 -76h-88v129h24c31 0 44 18 44 50v79c0 65 38 105 88 112v1c-50 7 -88 47 -88 112v79c0 32 -13 50 -44 50h-24v129h88c106 0 138 -71 138 -161v-81c0 -46 23 -62 57 -62v-133c-34 0 -57 -16 -57 -62v-81c0 -90 -32 -161 -138 -161z" />
    <glyph glyph-name="zero.sc" horiz-adv-x="640" 
d="M320 -20c-234 0 -291 187 -291 320c0 134 57 314 291 314c235 0 291 -180 291 -314c0 -133 -56 -320 -291 -320zM320 440c-53 0 -68 -76 -68 -140c0 -66 15 -144 68 -144c54 0 68 78 68 144c0 64 -14 140 -68 140z" />
    <glyph glyph-name="one.sc" horiz-adv-x="640" 
d="M252 0v367l-103 -66l-105 160l214 133h232v-594h-238z" />
    <glyph glyph-name="two.sc" horiz-adv-x="640" 
d="M70 159l252 187c22 17 28 34 28 48c0 16 -12 34 -34 34c-24 0 -49 -18 -50 -64l-220 27c15 155 156 223 282 223c116 0 266 -53 266 -203c0 -77 -34 -124 -115 -178l-89 -60h204v-173h-524v159z" />
    <glyph glyph-name="three.sc" horiz-adv-x="640" 
d="M489 315v-3c70 -16 106 -71 106 -130c0 -146 -137 -202 -274 -202c-131 0 -251 53 -282 177l211 53c5 -32 32 -52 64 -52c23 0 48 12 48 37c0 34 -31 43 -82 43h-60v132h67c42 0 68 11 68 42c0 22 -19 32 -41 32s-48 -16 -53 -45l-210 48c43 130 162 167 275 167
c130 0 259 -52 259 -180c0 -57 -31 -102 -96 -119z" />
    <glyph glyph-name="four.sc" horiz-adv-x="640" 
d="M538 105v-105h-210v105h-297v178l215 311h292v-333h75v-156h-75zM328 393h-3l-88 -132h91v132z" />
    <glyph glyph-name="five.sc" horiz-adv-x="640" 
d="M584 200c0 -165 -140 -220 -269 -220s-240 53 -275 178l211 55c8 -37 35 -52 58 -52c33 0 48 17 48 37c0 46 -46 55 -102 55c-35 0 -115 -11 -166 -22l25 363h439v-166h-239l-4 -42c16 2 33 4 45 4c122 0 229 -57 229 -190z" />
    <glyph glyph-name="six.sc" horiz-adv-x="640" 
d="M376 408c5 0 11 0 16 -1c123 -7 209 -73 209 -197c0 -141 -111 -230 -278 -230c-164 0 -280 81 -280 228c0 74 25 139 76 207l133 179h273l-141 -176zM323 276c-33 0 -60 -25 -60 -61c0 -35 27 -61 60 -61s60 26 60 61c0 36 -27 61 -60 61z" />
    <glyph glyph-name="seven.sc" horiz-adv-x="640" 
d="M364 0h-260l225 418h-251v176h489v-178z" />
    <glyph glyph-name="eight.sc" horiz-adv-x="640" 
d="M320 468c-32 0 -52 -24 -52 -47c0 -25 20 -49 52 -49c33 0 53 24 53 49c0 23 -20 47 -53 47zM320 244c-36 0 -56 -25 -56 -55c0 -29 20 -52 56 -52c38 0 54 23 54 52c0 30 -16 55 -54 55zM495 312v-3c60 -20 108 -73 108 -139c0 -136 -145 -190 -283 -190
c-139 0 -284 53 -284 189c0 65 46 115 110 139v3c-52 17 -98 63 -98 124c0 125 137 179 272 179c132 0 272 -54 272 -179c0 -61 -40 -107 -97 -123z" />
    <glyph glyph-name="nine.sc" horiz-adv-x="640" 
d="M262 186c-4 0 -10 0 -15 1c-123 7 -209 73 -209 197c0 141 111 230 277 230c163 0 280 -81 280 -228c0 -74 -26 -139 -77 -207l-131 -179h-273l141 176zM315 324c33 0 60 25 60 61c0 35 -27 61 -60 61s-59 -26 -59 -61c0 -36 26 -61 59 -61z" />
    <glyph glyph-name="question.sc" horiz-adv-x="550" 
d="M422 295c-25 -11 -36 -23 -36 -41v-9h-197v20c0 62 36 94 89 123l11 6c16 9 32 21 32 34c0 19 -15 31 -35 31c-39 0 -51 -29 -51 -53l-196 22c16 134 126 186 263 186c109 0 228 -41 228 -171c0 -81 -42 -118 -108 -148zM291 -17c-69 0 -120 48 -120 115
c0 64 51 114 120 114s120 -50 120 -114c0 -67 -51 -115 -120 -115z" />
    <glyph glyph-name="a.sc" horiz-adv-x="686" 
d="M-10 0l232 594h246l228 -594h-245l-27 85h-166l-27 -85h-241zM390 230l-48 154l-49 -154h97z" />
    <glyph glyph-name="b.sc" horiz-adv-x="636" 
d="M61 594h279c113 0 238 -20 238 -158c0 -61 -30 -103 -89 -121v-4c70 -11 115 -58 115 -139c0 -130 -113 -172 -249 -172h-294v594zM276 241v-86h59c27 0 47 15 47 44c0 30 -23 42 -50 42h-56zM276 440v-81h52c21 0 46 13 46 41c0 31 -25 40 -46 40h-52z" />
    <glyph glyph-name="c.sc" horiz-adv-x="579" 
d="M370 -20c-199 0 -340 125 -340 318c0 191 146 316 343 316c81 0 169 -28 214 -63l-122 -176c-20 24 -55 36 -84 36c-57 0 -113 -38 -113 -113c0 -76 56 -113 113 -113c32 0 66 16 85 37l123 -173c-49 -39 -133 -69 -219 -69z" />
    <glyph glyph-name="d.sc" horiz-adv-x="689" 
d="M312 0h-251v594h234c193 0 364 -67 364 -294c0 -209 -163 -300 -347 -300zM283 409v-222h15c80 0 128 30 128 114c0 70 -45 108 -121 108h-22z" />
    <glyph glyph-name="e.sc" horiz-adv-x="543" 
d="M61 0v594h428v-166h-212v-52h199v-153h-199v-56h227v-167h-443z" />
    <glyph glyph-name="f.sc" horiz-adv-x="513" 
d="M287 428v-66h174v-162h-173v-200h-227v594h424v-166h-198z" />
    <glyph glyph-name="g.sc" horiz-adv-x="650" 
d="M364 -20c-193 0 -334 126 -334 317s147 317 331 317c107 0 181 -28 240 -76l-129 -157c-27 25 -61 37 -99 37c-56 0 -115 -41 -115 -124s41 -131 114 -131c10 0 29 3 48 8v43h-95v142h286v-307c-56 -37 -152 -69 -247 -69z" />
    <glyph glyph-name="h.sc" horiz-adv-x="716" 
d="M422 0v219h-128v-219h-233v594h232v-199h128v199h234v-594h-233z" />
    <glyph glyph-name="i.sc" horiz-adv-x="358" 
d="M61 0v594h236v-594h-236z" />
    <glyph glyph-name="j.sc" horiz-adv-x="541" 
d="M245 -20c-132 0 -221 61 -253 167l182 79c5 -25 20 -39 41 -39c26 0 35 21 35 44v363h236v-377c0 -120 -66 -237 -241 -237z" />
    <glyph glyph-name="k.sc" horiz-adv-x="671" 
d="M401 0l-115 234h-1v-234h-224v594h223v-216h2l115 216h269l-186 -271l197 -323h-280z" />
    <glyph glyph-name="l.sc" horiz-adv-x="499" 
d="M61 0v594h234v-410h184v-184h-418z" />
    <glyph glyph-name="m.sc" horiz-adv-x="883" 
d="M354 0l-82 310h-4l4 -310h-211v594h290l88 -300h5l79 300h299v-594h-224l3 310h-4l-82 -310h-161z" />
    <glyph glyph-name="n.sc" horiz-adv-x="710" 
d="M61 0v594h231l140 -271h4l-7 271h220v-594h-235l-135 256h-4l7 -256h-221z" />
    <glyph glyph-name="o.sc" horiz-adv-x="726" 
d="M696 299c0 -204 -155 -319 -333 -319c-177 0 -333 115 -333 319c0 201 156 315 333 315c178 0 333 -114 333 -315zM363 412c-64 0 -107 -53 -107 -112c0 -63 43 -115 107 -115s107 52 107 115c0 59 -44 112 -107 112z" />
    <glyph glyph-name="p.sc" horiz-adv-x="614" 
d="M291 182v-182h-230v594h282c136 0 259 -49 259 -203c0 -147 -119 -209 -259 -209h-52zM291 438v-104h39c23 0 55 11 55 52c0 44 -35 52 -58 52h-36z" />
    <glyph glyph-name="q.sc" horiz-adv-x="734" 
d="M696 312c0 -64 -26 -122 -61 -149v-3l98 7v-167h-376c-181 0 -327 97 -327 298s158 316 335 316c178 0 331 -108 331 -302zM363 412c-64 0 -107 -54 -107 -113c0 -63 43 -116 107 -116s106 53 106 116c0 59 -43 113 -106 113z" />
    <glyph glyph-name="r.sc" horiz-adv-x="642" 
d="M61 0v594h288c142 0 249 -51 249 -193c0 -83 -34 -142 -98 -167l148 -234h-264l-95 202h-7v-202h-221zM282 438v-95h39c32 0 56 17 56 51c0 31 -22 44 -50 44h-45z" />
    <glyph glyph-name="s.sc" horiz-adv-x="571" 
d="M542 189c0 -157 -152 -209 -261 -209c-101 0 -207 31 -277 85l126 147c36 -33 89 -55 134 -55c18 0 37 5 37 23c0 19 -23 30 -91 46c-74 17 -168 63 -168 176c0 154 151 212 259 212c90 0 185 -28 256 -76l-121 -145c-37 24 -77 38 -114 38c-25 0 -44 -5 -44 -24
c0 -15 10 -22 77 -36c93 -19 187 -68 187 -182z" />
    <glyph glyph-name="t.sc" horiz-adv-x="529" 
d="M380 413v-413h-231v413h-142v181h515v-181h-142z" />
    <glyph glyph-name="u.sc" horiz-adv-x="694" 
d="M345 -20c-192 0 -291 114 -291 261v353h236v-332c0 -51 20 -77 58 -77c36 0 58 26 58 77v332h234v-353c0 -147 -96 -261 -295 -261z" />
    <glyph glyph-name="v.sc" horiz-adv-x="630" 
d="M179 0l-197 594h258l79 -334h4l76 334h249l-200 -594h-269z" />
    <glyph glyph-name="w.sc" horiz-adv-x="987" 
d="M490 305l-80 -305h-233l-183 594h251l67 -307h4l69 307h226l74 -307h3l65 307h240l-185 -594h-233l-83 305h-2z" />
    <glyph glyph-name="x.sc" horiz-adv-x="690" 
d="M427 0l-81 138l-87 -138h-263l205 304l-191 289h265l77 -128l75 128h257l-191 -289l201 -304h-267z" />
    <glyph glyph-name="y.sc" horiz-adv-x="632" 
d="M426 208v-208h-231v208l-215 386h262l77 -198l77 198h256z" />
    <glyph glyph-name="z.sc" horiz-adv-x="590" 
d="M38 0v181l216 229h-207v184h507v-169l-232 -241h242v-184h-526z" />
    <glyph glyph-name="agrave.sc" horiz-adv-x="686" 
d="M-10 0l232 594h246l228 -594h-245l-27 85h-166l-27 -85h-241zM390 230l-48 154l-49 -154h97zM283 654l-154 144h212l111 -144h-169z" />
    <glyph glyph-name="aacute.sc" horiz-adv-x="686" 
d="M-10 0l232 594h246l228 -594h-245l-27 85h-166l-27 -85h-241zM390 230l-48 154l-49 -154h97zM406 654h-169l111 144h212z" />
    <glyph glyph-name="acircumflex.sc" horiz-adv-x="686" 
d="M-10 0l232 594h246l228 -594h-245l-27 85h-166l-27 -85h-241zM390 230l-48 154l-49 -154h97zM410 654l-67 68l-67 -68h-152l137 144h169l134 -144h-154z" />
    <glyph glyph-name="atilde.sc" horiz-adv-x="686" 
d="M-10 0l232 594h246l228 -594h-245l-27 85h-166l-27 -85h-241zM390 230l-48 154l-49 -154h97zM530 790c-4 -79 -45 -139 -114 -139c-28 0 -53 8 -81 23c-32 17 -43 22 -63 22c-21 0 -33 -16 -37 -36h-80c4 76 44 136 113 136c30 0 54 -9 83 -24c31 -16 44 -22 65 -22
s30 13 35 40h79z" />
    <glyph glyph-name="adieresis.sc" horiz-adv-x="686" 
d="M-10 0l232 594h246l228 -594h-245l-27 85h-166l-27 -85h-241zM390 230l-48 154l-49 -154h97zM368 748c0 54 46 99 101 99c53 0 99 -45 99 -99c0 -55 -46 -98 -99 -98c-55 0 -101 43 -101 98zM119 748c0 54 46 99 101 99c53 0 99 -45 99 -99c0 -55 -46 -98 -99 -98
c-55 0 -101 43 -101 98z" />
    <glyph glyph-name="amacron.sc" horiz-adv-x="686" 
d="M-10 0l232 594h246l228 -594h-245l-27 85h-166l-27 -85h-241zM390 230l-48 154l-49 -154h97zM163 681v96h360v-96h-360z" />
    <glyph glyph-name="abreve.sc" horiz-adv-x="686" 
d="M-10 0l232 594h246l228 -594h-245l-27 85h-166l-27 -85h-241zM390 230l-48 154l-49 -154h97zM343 654c-87 0 -172 31 -180 144h110c3 -33 43 -39 70 -39c28 0 67 6 70 39h110c-8 -113 -92 -144 -180 -144z" />
    <glyph glyph-name="aring.sc" horiz-adv-x="686" 
d="M-10 0l232 594h246l228 -594h-245l-27 85h-166l-27 -85h-241zM390 230l-48 154l-49 -154h97zM458 747c0 -65 -53 -114 -115 -114s-115 49 -115 114s53 114 115 114s115 -49 115 -114zM403 747c0 33 -27 59 -60 59s-60 -26 -60 -59s27 -59 60 -59s60 26 60 59z" />
    <glyph glyph-name="aogonek.sc" horiz-adv-x="686" 
d="M459 -240c-54 0 -127 19 -127 94c0 64 65 111 119 146l-27 85h-166l-27 -85h-241l232 594h246l228 -594h-108c-85 -60 -113 -88 -113 -112c0 -15 8 -20 23 -20c19 0 36 6 56 18l44 -83c-37 -24 -88 -43 -139 -43zM390 230l-48 154l-49 -154h97z" />
    <glyph glyph-name="ae.sc" horiz-adv-x="888" 
d="M834 594v-166h-212v-52h199v-153h-199v-56h227v-167h-441v95h-149l-44 -95h-253l297 594h575zM401 428l-82 -178h89v178h-7z" />
    <glyph glyph-name="cacute.sc" horiz-adv-x="579" 
d="M370 -20c-199 0 -340 125 -340 318c0 191 146 316 343 316c81 0 169 -28 214 -63l-122 -176c-20 24 -55 36 -84 36c-57 0 -113 -38 -113 -113c0 -76 56 -113 113 -113c32 0 66 16 85 37l123 -173c-49 -39 -133 -69 -219 -69zM413 654h-169l111 144h212z" />
    <glyph glyph-name="ccircumflex.sc" horiz-adv-x="579" 
d="M370 -20c-199 0 -340 125 -340 318c0 191 146 316 343 316c81 0 169 -28 214 -63l-122 -176c-20 24 -55 36 -84 36c-57 0 -113 -38 -113 -113c0 -76 56 -113 113 -113c32 0 66 16 85 37l123 -173c-49 -39 -133 -69 -219 -69zM442 654l-67 68l-67 -68h-152l137 144h169
l134 -144h-154z" />
    <glyph glyph-name="ccaron.sc" horiz-adv-x="579" 
d="M370 -20c-199 0 -340 125 -340 318c0 191 146 316 343 316c81 0 169 -28 214 -63l-122 -176c-20 24 -55 36 -84 36c-57 0 -113 -38 -113 -113c0 -76 56 -113 113 -113c32 0 66 16 85 37l123 -173c-49 -39 -133 -69 -219 -69zM442 798h154l-134 -144h-169l-137 144h152
l67 -68z" />
    <glyph glyph-name="cdotaccent.sc" horiz-adv-x="579" 
d="M370 -20c-199 0 -340 125 -340 318c0 191 146 316 343 316c81 0 169 -28 214 -63l-122 -176c-20 24 -55 36 -84 36c-57 0 -113 -38 -113 -113c0 -76 56 -113 113 -113c32 0 66 16 85 37l123 -173c-49 -39 -133 -69 -219 -69zM267 748c0 58 49 106 109 106
c57 0 106 -48 106 -106c0 -59 -49 -105 -106 -105c-60 0 -109 46 -109 105z" />
    <glyph glyph-name="ccedilla.sc" horiz-adv-x="579" 
d="M327 -240c-42 0 -98 9 -133 23l34 78c23 -10 60 -16 85 -16c20 0 40 5 40 21c0 14 -19 18 -37 18c-14 0 -29 -2 -41 -6l-44 34l63 75c-158 27 -264 143 -264 311c0 191 146 316 343 316c81 0 169 -28 214 -63l-122 -176c-20 24 -55 36 -84 36c-57 0 -113 -38 -113 -113
c0 -76 56 -113 113 -113c32 0 66 16 85 37l123 -173c-42 -34 -110 -60 -183 -67l-33 -35c5 1 10 1 16 1c45 0 102 -17 102 -85c0 -82 -98 -103 -164 -103z" />
    <glyph glyph-name="dcaron.sc" horiz-adv-x="689" 
d="M312 0h-251v594h234c193 0 364 -67 364 -294c0 -209 -163 -300 -347 -300zM283 409v-222h15c80 0 128 30 128 114c0 70 -45 108 -121 108h-22zM394 798h154l-134 -144h-169l-137 144h152l67 -68z" />
    <glyph glyph-name="dcroat.sc" horiz-adv-x="689" 
d="M312 0h-251v231h-54v138h54v225h234c193 0 364 -67 364 -294c0 -209 -163 -300 -347 -300zM350 231h-73v-52h15c85 0 139 32 139 122c0 75 -49 116 -132 116h-22v-48h73v-138z" />
    <glyph glyph-name="eth.sc" horiz-adv-x="689" 
d="M312 0h-251v231h-54v138h54v225h234c193 0 364 -67 364 -294c0 -209 -163 -300 -347 -300zM350 231h-73v-52h15c85 0 139 32 139 122c0 75 -49 116 -132 116h-22v-48h73v-138z" />
    <glyph glyph-name="egrave.sc" horiz-adv-x="543" 
d="M61 0v594h428v-166h-212v-52h199v-153h-199v-56h227v-167h-443zM247 654l-154 144h212l111 -144h-169z" />
    <glyph glyph-name="eacute.sc" horiz-adv-x="543" 
d="M61 0v594h428v-166h-212v-52h199v-153h-199v-56h227v-167h-443zM330 654h-169l111 144h212z" />
    <glyph glyph-name="ecircumflex.sc" horiz-adv-x="543" 
d="M61 0v594h428v-166h-212v-52h199v-153h-199v-56h227v-167h-443zM342 654l-67 68l-67 -68h-152l137 144h169l134 -144h-154z" />
    <glyph glyph-name="ecaron.sc" horiz-adv-x="543" 
d="M61 0v594h428v-166h-212v-52h199v-153h-199v-56h227v-167h-443zM339 798h154l-134 -144h-169l-137 144h152l67 -68z" />
    <glyph glyph-name="edieresis.sc" horiz-adv-x="543" 
d="M61 0v594h428v-166h-212v-52h199v-153h-199v-56h227v-167h-443zM299 748c0 54 46 99 101 99c53 0 99 -45 99 -99c0 -55 -46 -98 -99 -98c-55 0 -101 43 -101 98zM50 748c0 54 46 99 101 99c53 0 99 -45 99 -99c0 -55 -46 -98 -99 -98c-55 0 -101 43 -101 98z" />
    <glyph glyph-name="emacron.sc" horiz-adv-x="543" 
d="M61 0v594h428v-166h-212v-52h199v-153h-199v-56h227v-167h-443zM94 681v96h360v-96h-360z" />
    <glyph glyph-name="ebreve.sc" horiz-adv-x="543" 
d="M61 0v594h428v-166h-212v-52h199v-153h-199v-56h227v-167h-443zM274 654c-87 0 -172 31 -180 144h110c3 -33 43 -39 70 -39c28 0 67 6 70 39h110c-8 -113 -92 -144 -180 -144z" />
    <glyph glyph-name="edotaccent.sc" horiz-adv-x="543" 
d="M61 0v594h428v-166h-212v-52h199v-153h-199v-56h227v-167h-443zM168 748c0 58 49 106 109 106c57 0 106 -48 106 -106c0 -59 -49 -105 -106 -105c-60 0 -109 46 -109 105z" />
    <glyph glyph-name="eogonek.sc" horiz-adv-x="543" 
d="M61 0v594h428v-166h-212v-52h199v-153h-199v-56h227v-167h-26c-85 -60 -113 -88 -113 -112c0 -15 8 -20 23 -20c19 0 36 6 56 18l44 -83c-37 -24 -88 -43 -139 -43c-54 0 -127 19 -127 94c0 64 65 111 119 146h-280z" />
    <glyph glyph-name="gcircumflex.sc" horiz-adv-x="650" 
d="M364 -20c-193 0 -334 126 -334 317s147 317 331 317c107 0 181 -28 240 -76l-129 -157c-27 25 -61 37 -99 37c-56 0 -115 -41 -115 -124s41 -131 114 -131c10 0 29 3 48 8v43h-95v142h286v-307c-56 -37 -152 -69 -247 -69zM432 654l-67 68l-67 -68h-152l137 144h169
l134 -144h-154z" />
    <glyph glyph-name="gbreve.sc" horiz-adv-x="650" 
d="M364 -20c-193 0 -334 126 -334 317s147 317 331 317c107 0 181 -28 240 -76l-129 -157c-27 25 -61 37 -99 37c-56 0 -115 -41 -115 -124s41 -131 114 -131c10 0 29 3 48 8v43h-95v142h286v-307c-56 -37 -152 -69 -247 -69zM365 654c-87 0 -172 31 -180 144h110
c3 -33 43 -39 70 -39c28 0 67 6 70 39h110c-8 -113 -92 -144 -180 -144z" />
    <glyph glyph-name="gdotaccent.sc" horiz-adv-x="650" 
d="M364 -20c-193 0 -334 126 -334 317s147 317 331 317c107 0 181 -28 240 -76l-129 -157c-27 25 -61 37 -99 37c-56 0 -115 -41 -115 -124s41 -131 114 -131c10 0 29 3 48 8v43h-95v142h286v-307c-56 -37 -152 -69 -247 -69zM258 748c0 58 49 106 109 106
c57 0 106 -48 106 -106c0 -59 -49 -105 -106 -105c-60 0 -109 46 -109 105z" />
    <glyph glyph-name="gcommaaccent.sc" horiz-adv-x="650" 
d="M364 -20c-193 0 -334 126 -334 317s147 317 331 317c107 0 181 -28 240 -76l-129 -157c-27 25 -61 37 -99 37c-56 0 -115 -41 -115 -124s41 -131 114 -131c10 0 29 3 48 8v43h-95v142h286v-307c-56 -37 -152 -69 -247 -69zM268 -45h189l-93 -195h-164z" />
    <glyph glyph-name="kgreenlandic.sc" horiz-adv-x="671" 
d="M401 0l-115 234h-1v-234h-224v594h223v-216h2l115 216h269l-186 -271l197 -323h-280z" />
    <glyph glyph-name="hcircumflex.sc" horiz-adv-x="716" 
d="M422 0v219h-128v-219h-233v594h232v-199h128v199h234v-594h-233zM424 654l-67 68l-67 -68h-152l137 144h169l134 -144h-154z" />
    <glyph glyph-name="hbar.sc" horiz-adv-x="716" 
d="M422 0v202h-128v-202h-233v594h232v-69h128v69h234v-594h-233zM293 372h128v63h-128v-63z" />
    <glyph glyph-name="igrave.sc" horiz-adv-x="358" 
d="M61 0v594h236v-594h-236zM111 654l-154 144h212l111 -144h-169z" />
    <glyph glyph-name="iacute.sc" horiz-adv-x="358" 
d="M61 0v594h236v-594h-236zM245 654h-169l111 144h212z" />
    <glyph glyph-name="ibreve.sc" horiz-adv-x="358" 
d="M61 0v594h236v-594h-236zM179 654c-87 0 -172 31 -180 144h110c3 -33 43 -39 70 -39c28 0 67 6 70 39h110c-8 -113 -92 -144 -180 -144z" />
    <glyph glyph-name="icircumflex.sc" horiz-adv-x="358" 
d="M61 0v594h236v-594h-236zM247 654l-67 68l-67 -68h-152l137 144h169l134 -144h-154z" />
    <glyph glyph-name="itilde.sc" horiz-adv-x="358" 
d="M61 0v594h236v-594h-236zM366 790c-4 -79 -45 -139 -114 -139c-28 0 -53 8 -81 23c-32 17 -43 22 -63 22c-21 0 -33 -16 -37 -36h-80c4 76 44 136 113 136c30 0 54 -9 83 -24c31 -16 44 -22 65 -22s30 13 35 40h79z" />
    <glyph glyph-name="idieresis.sc" horiz-adv-x="358" 
d="M61 0v594h236v-594h-236zM204 748c0 54 46 99 101 99c53 0 99 -45 99 -99c0 -55 -46 -98 -99 -98c-55 0 -101 43 -101 98zM-45 748c0 54 46 99 101 99c53 0 99 -45 99 -99c0 -55 -46 -98 -99 -98c-55 0 -101 43 -101 98z" />
    <glyph glyph-name="imacron.sc" horiz-adv-x="358" 
d="M61 0v594h236v-594h-236zM-1 681v96h360v-96h-360z" />
    <glyph glyph-name="idotaccent.sc" horiz-adv-x="358" 
d="M61 0v594h236v-594h-236zM68 748c0 58 49 106 109 106c57 0 106 -48 106 -106c0 -59 -49 -105 -106 -105c-60 0 -109 46 -109 105z" />
    <glyph glyph-name="iogonek.sc" horiz-adv-x="358" 
d="M61 0v594h236v-594c-85 -60 -113 -88 -113 -112c0 -15 8 -20 23 -20c19 0 36 6 56 18l44 -83c-37 -24 -88 -43 -139 -43c-54 0 -127 19 -127 94c0 64 65 111 119 146h-99z" />
    <glyph glyph-name="jcircumflex.sc" horiz-adv-x="541" 
d="M245 -20c-132 0 -221 61 -253 167l182 79c5 -25 20 -39 41 -39c26 0 35 21 35 44v363h236v-377c0 -120 -66 -237 -241 -237zM435 654l-67 68l-67 -68h-152l137 144h169l134 -144h-154z" />
    <glyph glyph-name="kcommaaccent.sc" horiz-adv-x="671" 
d="M401 0l-115 234h-1v-234h-224v594h223v-216h2l115 216h269l-186 -271l197 -323h-280zM262 -45h189l-93 -195h-164z" />
    <glyph glyph-name="lacute.sc" horiz-adv-x="499" 
d="M61 0v594h234v-410h184v-184h-418zM260 654h-169l111 144h212z" />
    <glyph glyph-name="lcaron.sc" horiz-adv-x="539" 
d="M61 0v594h234v-410h184v-184h-418zM384 594h189l-93 -195h-164z" />
    <glyph glyph-name="lcommaaccent.sc" horiz-adv-x="499" 
d="M61 0v594h234v-410h184v-184h-418zM186 -45h189l-93 -195h-164z" />
    <glyph glyph-name="lslash.sc" horiz-adv-x="499" 
d="M61 0v147l-55 -42v190l55 42v257h228v-101l96 73v-189l-96 -73v-120h190v-184h-418z" />
    <glyph glyph-name="ldot.sc" horiz-adv-x="519" 
d="M61 0v594h234v-410h184v-184h-418zM325 388c0 58 49 106 109 106c57 0 106 -48 106 -106c0 -59 -49 -105 -106 -105c-60 0 -109 46 -109 105z" />
    <glyph glyph-name="nacute.sc" horiz-adv-x="710" 
d="M61 0v594h231l140 -271h4l-7 271h220v-594h-235l-135 256h-4l7 -256h-221zM418 654h-169l111 144h212z" />
    <glyph glyph-name="ncaron.sc" horiz-adv-x="710" 
d="M61 0v594h231l140 -271h4l-7 271h220v-594h-235l-135 256h-4l7 -256h-221zM422 798h154l-134 -144h-169l-137 144h152l67 -68z" />
    <glyph glyph-name="ntilde.sc" horiz-adv-x="710" 
d="M61 0v594h231l140 -271h4l-7 271h220v-594h-235l-135 256h-4l7 -256h-221zM544 790c-4 -79 -45 -139 -114 -139c-28 0 -53 8 -81 23c-32 17 -43 22 -63 22c-21 0 -33 -16 -37 -36h-80c4 76 44 136 113 136c30 0 54 -9 83 -24c31 -16 44 -22 65 -22s30 13 35 40h79z" />
    <glyph glyph-name="ncommaaccent.sc" horiz-adv-x="710" 
d="M61 0v594h231l140 -271h4l-7 271h220v-594h-235l-135 256h-4l7 -256h-221zM269 -45h189l-93 -195h-164z" />
    <glyph glyph-name="ograve.sc" horiz-adv-x="726" 
d="M696 299c0 -204 -155 -319 -333 -319c-177 0 -333 115 -333 319c0 201 156 315 333 315c178 0 333 -114 333 -315zM363 412c-64 0 -107 -53 -107 -112c0 -63 43 -115 107 -115s107 52 107 115c0 59 -44 112 -107 112zM302 654l-154 144h212l111 -144h-169z" />
    <glyph glyph-name="oacute.sc" horiz-adv-x="726" 
d="M696 299c0 -204 -155 -319 -333 -319c-177 0 -333 115 -333 319c0 201 156 315 333 315c178 0 333 -114 333 -315zM363 412c-64 0 -107 -53 -107 -112c0 -63 43 -115 107 -115s107 52 107 115c0 59 -44 112 -107 112zM409 654h-169l111 144h212z" />
    <glyph glyph-name="ocircumflex.sc" horiz-adv-x="726" 
d="M696 299c0 -204 -155 -319 -333 -319c-177 0 -333 115 -333 319c0 201 156 315 333 315c178 0 333 -114 333 -315zM363 412c-64 0 -107 -53 -107 -112c0 -63 43 -115 107 -115s107 52 107 115c0 59 -44 112 -107 112zM429 654l-67 68l-67 -68h-152l137 144h169l134 -144
h-154z" />
    <glyph glyph-name="otilde.sc" horiz-adv-x="726" 
d="M696 299c0 -204 -155 -319 -333 -319c-177 0 -333 115 -333 319c0 201 156 315 333 315c178 0 333 -114 333 -315zM363 412c-64 0 -107 -53 -107 -112c0 -63 43 -115 107 -115s107 52 107 115c0 59 -44 112 -107 112zM551 790c-4 -79 -45 -139 -114 -139
c-28 0 -53 8 -81 23c-32 17 -43 22 -63 22c-21 0 -33 -16 -37 -36h-80c4 76 44 136 113 136c30 0 54 -9 83 -24c31 -16 44 -22 65 -22s30 13 35 40h79z" />
    <glyph glyph-name="odieresis.sc" horiz-adv-x="726" 
d="M696 299c0 -204 -155 -319 -333 -319c-177 0 -333 115 -333 319c0 201 156 315 333 315c178 0 333 -114 333 -315zM363 412c-64 0 -107 -53 -107 -112c0 -63 43 -115 107 -115s107 52 107 115c0 59 -44 112 -107 112zM387 748c0 54 46 99 101 99c53 0 99 -45 99 -99
c0 -55 -46 -98 -99 -98c-55 0 -101 43 -101 98zM138 748c0 54 46 99 101 99c53 0 99 -45 99 -99c0 -55 -46 -98 -99 -98c-55 0 -101 43 -101 98z" />
    <glyph glyph-name="omacron.sc" horiz-adv-x="726" 
d="M696 299c0 -204 -155 -319 -333 -319c-177 0 -333 115 -333 319c0 201 156 315 333 315c178 0 333 -114 333 -315zM363 412c-64 0 -107 -53 -107 -112c0 -63 43 -115 107 -115s107 52 107 115c0 59 -44 112 -107 112zM182 681v96h360v-96h-360z" />
    <glyph glyph-name="obreve.sc" horiz-adv-x="726" 
d="M696 299c0 -204 -155 -319 -333 -319c-177 0 -333 115 -333 319c0 201 156 315 333 315c178 0 333 -114 333 -315zM363 412c-64 0 -107 -53 -107 -112c0 -63 43 -115 107 -115s107 52 107 115c0 59 -44 112 -107 112zM362 654c-87 0 -172 31 -180 144h110
c3 -33 43 -39 70 -39c28 0 67 6 70 39h110c-8 -113 -92 -144 -180 -144z" />
    <glyph glyph-name="ohungarumlaut.sc" horiz-adv-x="726" 
d="M696 299c0 -204 -155 -319 -333 -319c-177 0 -333 115 -333 319c0 201 156 315 333 315c178 0 333 -114 333 -315zM363 412c-64 0 -107 -53 -107 -112c0 -63 43 -115 107 -115s107 52 107 115c0 59 -44 112 -107 112zM325 654h-169l111 144h212zM568 654h-169l111 144
h212z" />
    <glyph glyph-name="oslash.sc" horiz-adv-x="726" 
d="M696 299c0 -204 -155 -319 -333 -319c-67 0 -130 16 -184 47l-70 -73l-85 78l68 71c-39 51 -62 117 -62 196c0 201 156 315 333 315c65 0 126 -15 179 -44l80 83l85 -78l-77 -80c41 -50 66 -116 66 -196zM470 300c0 11 -2 22 -5 32l-136 -142c10 -3 22 -5 34 -5
c64 0 107 52 107 115zM363 412c-64 0 -107 -53 -107 -112c0 -11 1 -21 3 -31l134 139c-10 3 -20 4 -30 4z" />
    <glyph glyph-name="oe.sc" horiz-adv-x="901" 
d="M847 594v-166h-212v-52h199v-153h-199v-56h227v-167h-447c-194 0 -364 69 -364 293c0 199 162 301 347 301h449zM284 297c0 -83 58 -119 116 -119h26v238h-26c-58 0 -116 -41 -116 -119z" />
    <glyph glyph-name="racute.sc" horiz-adv-x="642" 
d="M61 0v594h288c142 0 249 -51 249 -193c0 -83 -34 -142 -98 -167l148 -234h-264l-95 202h-7v-202h-221zM282 438v-95h39c32 0 56 17 56 51c0 31 -22 44 -50 44h-45zM368 654h-169l111 144h212z" />
    <glyph glyph-name="rcaron.sc" horiz-adv-x="642" 
d="M61 0v594h288c142 0 249 -51 249 -193c0 -83 -34 -142 -98 -167l148 -234h-264l-95 202h-7v-202h-221zM282 438v-95h39c32 0 56 17 56 51c0 31 -22 44 -50 44h-45zM385 798h154l-134 -144h-169l-137 144h152l67 -68z" />
    <glyph glyph-name="rcommaaccent.sc" horiz-adv-x="642" 
d="M61 0v594h288c142 0 249 -51 249 -193c0 -83 -34 -142 -98 -167l148 -234h-264l-95 202h-7v-202h-221zM282 438v-95h39c32 0 56 17 56 51c0 31 -22 44 -50 44h-45zM249 -45h189l-93 -195h-164z" />
    <glyph glyph-name="sacute.sc" horiz-adv-x="571" 
d="M542 189c0 -157 -152 -209 -261 -209c-101 0 -207 31 -277 85l126 147c36 -33 89 -55 134 -55c18 0 37 5 37 23c0 19 -23 30 -91 46c-74 17 -168 63 -168 176c0 154 151 212 259 212c90 0 185 -28 256 -76l-121 -145c-37 24 -77 38 -114 38c-25 0 -44 -5 -44 -24
c0 -15 10 -22 77 -36c93 -19 187 -68 187 -182zM355 654h-169l111 144h212z" />
    <glyph glyph-name="scircumflex.sc" horiz-adv-x="571" 
d="M542 189c0 -157 -152 -209 -261 -209c-101 0 -207 31 -277 85l126 147c36 -33 89 -55 134 -55c18 0 37 5 37 23c0 19 -23 30 -91 46c-74 17 -168 63 -168 176c0 154 151 212 259 212c90 0 185 -28 256 -76l-121 -145c-37 24 -77 38 -114 38c-25 0 -44 -5 -44 -24
c0 -15 10 -22 77 -36c93 -19 187 -68 187 -182zM367 654l-67 68l-67 -68h-152l137 144h169l134 -144h-154z" />
    <glyph glyph-name="scaron.sc" horiz-adv-x="571" 
d="M542 189c0 -157 -152 -209 -261 -209c-101 0 -207 31 -277 85l126 147c36 -33 89 -55 134 -55c18 0 37 5 37 23c0 19 -23 30 -91 46c-74 17 -168 63 -168 176c0 154 151 212 259 212c90 0 185 -28 256 -76l-121 -145c-37 24 -77 38 -114 38c-25 0 -44 -5 -44 -24
c0 -15 10 -22 77 -36c93 -19 187 -68 187 -182zM368 798h154l-134 -144h-169l-137 144h152l67 -68z" />
    <glyph glyph-name="scedilla.sc" horiz-adv-x="571" 
d="M248 -240c-42 0 -98 9 -133 23l34 78c23 -10 60 -16 85 -16c20 0 40 5 40 21c0 14 -19 18 -37 18c-14 0 -29 -2 -41 -6l-44 34l61 73c-79 10 -155 38 -209 80l126 147c36 -33 89 -55 134 -55c18 0 37 5 37 23c0 19 -23 30 -91 46c-74 17 -168 63 -168 176
c0 154 151 212 259 212c90 0 185 -28 256 -76l-121 -145c-37 24 -77 38 -114 38c-25 0 -44 -5 -44 -24c0 -15 10 -22 77 -36c93 -19 187 -68 187 -182c0 -136 -113 -193 -214 -206l-34 -36c5 1 10 1 16 1c45 0 102 -17 102 -85c0 -82 -98 -103 -164 -103z" />
    <glyph glyph-name="scommaaccent.sc" horiz-adv-x="571" 
d="M542 189c0 -157 -152 -209 -261 -209c-101 0 -207 31 -277 85l126 147c36 -33 89 -55 134 -55c18 0 37 5 37 23c0 19 -23 30 -91 46c-74 17 -168 63 -168 176c0 154 151 212 259 212c90 0 185 -28 256 -76l-121 -145c-37 24 -77 38 -114 38c-25 0 -44 -5 -44 -24
c0 -15 10 -22 77 -36c93 -19 187 -68 187 -182zM197 -45h189l-93 -195h-164z" />
    <glyph glyph-name="tcaron.sc" horiz-adv-x="529" 
d="M380 413v-413h-231v413h-142v181h515v-181h-142zM332 798h154l-134 -144h-169l-137 144h152l67 -68z" />
    <glyph glyph-name="tcommaaccent.sc" horiz-adv-x="529" 
d="M380 413v-413h-231v413h-142v181h515v-181h-142zM181 -45h189l-93 -195h-164z" />
    <glyph glyph-name="tbar.sc" horiz-adv-x="529" 
d="M57 235v100h92v78h-142v181h515v-181h-142v-78h92v-100h-92v-235h-231v235h-92z" />
    <glyph glyph-name="thorn.sc" horiz-adv-x="614" 
d="M356 112h-70v-112h-225v594h225v-67h76c168 0 240 -80 240 -199c0 -134 -94 -216 -246 -216zM286 371v-95h40c43 0 62 21 62 49c0 25 -19 46 -60 46h-42z" />
    <glyph glyph-name="ugrave.sc" horiz-adv-x="694" 
d="M345 -20c-192 0 -291 114 -291 261v353h236v-332c0 -51 20 -77 58 -77c36 0 58 26 58 77v332h234v-353c0 -147 -96 -261 -295 -261zM293 654l-154 144h212l111 -144h-169z" />
    <glyph glyph-name="uacute.sc" horiz-adv-x="694" 
d="M345 -20c-192 0 -291 114 -291 261v353h236v-332c0 -51 20 -77 58 -77c36 0 58 26 58 77v332h234v-353c0 -147 -96 -261 -295 -261zM419 654h-169l111 144h212z" />
    <glyph glyph-name="ucircumflex.sc" horiz-adv-x="694" 
d="M345 -20c-192 0 -291 114 -291 261v353h236v-332c0 -51 20 -77 58 -77c36 0 58 26 58 77v332h234v-353c0 -147 -96 -261 -295 -261zM413 654l-67 68l-67 -68h-152l137 144h169l134 -144h-154z" />
    <glyph glyph-name="utilde.sc" horiz-adv-x="694" 
d="M345 -20c-192 0 -291 114 -291 261v353h236v-332c0 -51 20 -77 58 -77c36 0 58 26 58 77v332h234v-353c0 -147 -96 -261 -295 -261zM537 790c-4 -79 -45 -139 -114 -139c-28 0 -53 8 -81 23c-32 17 -43 22 -63 22c-21 0 -33 -16 -37 -36h-80c4 76 44 136 113 136
c30 0 54 -9 83 -24c31 -16 44 -22 65 -22s30 13 35 40h79z" />
    <glyph glyph-name="udieresis.sc" horiz-adv-x="694" 
d="M345 -20c-192 0 -291 114 -291 261v353h236v-332c0 -51 20 -77 58 -77c36 0 58 26 58 77v332h234v-353c0 -147 -96 -261 -295 -261zM373 748c0 54 46 99 101 99c53 0 99 -45 99 -99c0 -55 -46 -98 -99 -98c-55 0 -101 43 -101 98zM124 748c0 54 46 99 101 99
c53 0 99 -45 99 -99c0 -55 -46 -98 -99 -98c-55 0 -101 43 -101 98z" />
    <glyph glyph-name="umacron.sc" horiz-adv-x="694" 
d="M345 -20c-192 0 -291 114 -291 261v353h236v-332c0 -51 20 -77 58 -77c36 0 58 26 58 77v332h234v-353c0 -147 -96 -261 -295 -261zM167 681v96h360v-96h-360z" />
    <glyph glyph-name="ubreve.sc" horiz-adv-x="694" 
d="M345 -20c-192 0 -291 114 -291 261v353h236v-332c0 -51 20 -77 58 -77c36 0 58 26 58 77v332h234v-353c0 -147 -96 -261 -295 -261zM348 654c-87 0 -172 31 -180 144h110c3 -33 43 -39 70 -39c28 0 67 6 70 39h110c-8 -113 -92 -144 -180 -144z" />
    <glyph glyph-name="uring.sc" horiz-adv-x="694" 
d="M345 -20c-192 0 -291 114 -291 261v353h236v-332c0 -51 20 -77 58 -77c36 0 58 26 58 77v332h234v-353c0 -147 -96 -261 -295 -261zM463 747c0 -65 -53 -114 -115 -114s-115 49 -115 114s53 114 115 114s115 -49 115 -114zM408 747c0 33 -27 59 -60 59s-60 -26 -60 -59
s27 -59 60 -59s60 26 60 59z" />
    <glyph glyph-name="uhungarumlaut.sc" horiz-adv-x="694" 
d="M345 -20c-192 0 -291 114 -291 261v353h236v-332c0 -51 20 -77 58 -77c36 0 58 26 58 77v332h234v-353c0 -147 -96 -261 -295 -261zM311 654h-169l111 144h212zM554 654h-169l111 144h212z" />
    <glyph glyph-name="uogonek.sc" horiz-adv-x="694" 
d="M344 -240c-54 0 -127 19 -127 94c0 54 45 95 91 128c-168 13 -254 121 -254 259v353h236v-332c0 -51 20 -77 58 -77c36 0 58 26 58 77v332h234v-353c0 -112 -55 -204 -169 -242c-84 -59 -111 -87 -111 -111c0 -15 8 -20 23 -20c19 0 36 6 56 18l44 -83
c-37 -24 -88 -43 -139 -43z" />
    <glyph glyph-name="wacute.sc" horiz-adv-x="987" 
d="M490 305l-80 -305h-233l-183 594h251l67 -307h4l69 307h226l74 -307h3l65 307h240l-185 -594h-233l-83 305h-2zM572 654h-169l111 144h212z" />
    <glyph glyph-name="wcircumflex.sc" horiz-adv-x="987" 
d="M490 305l-80 -305h-233l-183 594h251l67 -307h4l69 307h226l74 -307h3l65 307h240l-185 -594h-233l-83 305h-2zM562 654l-67 68l-67 -68h-152l137 144h169l134 -144h-154z" />
    <glyph glyph-name="wdieresis.sc" horiz-adv-x="987" 
d="M490 305l-80 -305h-233l-183 594h251l67 -307h4l69 307h226l74 -307h3l65 307h240l-185 -594h-233l-83 305h-2zM516 748c0 54 46 99 101 99c53 0 99 -45 99 -99c0 -55 -46 -98 -99 -98c-55 0 -101 43 -101 98zM267 748c0 54 46 99 101 99c53 0 99 -45 99 -99
c0 -55 -46 -98 -99 -98c-55 0 -101 43 -101 98z" />
    <glyph glyph-name="wgrave.sc" horiz-adv-x="987" 
d="M490 305l-80 -305h-233l-183 594h251l67 -307h4l69 307h226l74 -307h3l65 307h240l-185 -594h-233l-83 305h-2zM424 654l-154 144h212l111 -144h-169z" />
    <glyph glyph-name="yacute.sc" horiz-adv-x="632" 
d="M426 208v-208h-231v208l-215 386h262l77 -198l77 198h256zM378 654h-169l111 144h212z" />
    <glyph glyph-name="ycircumflex.sc" horiz-adv-x="632" 
d="M426 208v-208h-231v208l-215 386h262l77 -198l77 198h256zM385 654l-67 68l-67 -68h-152l137 144h169l134 -144h-154z" />
    <glyph glyph-name="ydieresis.sc" horiz-adv-x="632" 
d="M426 208v-208h-231v208l-215 386h262l77 -198l77 198h256zM345 748c0 54 46 99 101 99c53 0 99 -45 99 -99c0 -55 -46 -98 -99 -98c-55 0 -101 43 -101 98zM96 748c0 54 46 99 101 99c53 0 99 -45 99 -99c0 -55 -46 -98 -99 -98c-55 0 -101 43 -101 98z" />
    <glyph glyph-name="ygrave.sc" horiz-adv-x="632" 
d="M426 208v-208h-231v208l-215 386h262l77 -198l77 198h256zM255 654l-154 144h212l111 -144h-169z" />
    <glyph glyph-name="zacute.sc" horiz-adv-x="590" 
d="M38 0v181l216 229h-207v184h507v-169l-232 -241h242v-184h-526zM352 654h-169l111 144h212z" />
    <glyph glyph-name="zcaron.sc" horiz-adv-x="590" 
d="M38 0v181l216 229h-207v184h507v-169l-232 -241h242v-184h-526zM373 798h154l-134 -144h-169l-137 144h152l67 -68z" />
    <glyph glyph-name="zdotaccent.sc" horiz-adv-x="590" 
d="M38 0v181l216 229h-207v184h507v-169l-232 -241h242v-184h-526zM194 748c0 58 49 106 109 106c57 0 106 -48 106 -106c0 -59 -49 -105 -106 -105c-60 0 -109 46 -109 105z" />
    <glyph glyph-name="ij.sc" horiz-adv-x="900" 
d="M61 0v594h236v-594h-236zM604 -20c-132 0 -221 61 -253 167l182 79c5 -25 20 -39 41 -39c26 0 35 21 35 44v363h236v-377c0 -120 -66 -237 -241 -237z" />
    <glyph glyph-name="germandbls.sc" horiz-adv-x="1142" 
d="M542 189c0 -157 -152 -209 -261 -209c-101 0 -207 31 -277 85l126 147c36 -33 89 -55 134 -55c18 0 37 5 37 23c0 19 -23 30 -91 46c-74 17 -168 63 -168 176c0 154 151 212 259 212c90 0 185 -28 256 -76l-121 -145c-37 24 -77 38 -114 38c-25 0 -44 -5 -44 -24
c0 -15 10 -22 77 -36c93 -19 187 -68 187 -182zM1113 189c0 -157 -152 -209 -261 -209c-101 0 -207 31 -277 85l126 147c36 -33 89 -55 134 -55c18 0 37 5 37 23c0 19 -23 30 -91 46c-74 17 -168 63 -168 176c0 154 151 212 259 212c90 0 185 -28 256 -76l-121 -145
c-37 24 -77 38 -114 38c-25 0 -44 -5 -44 -24c0 -15 10 -22 77 -36c93 -19 187 -68 187 -182z" />
    <glyph glyph-name="eng.sc" horiz-adv-x="666" 
d="M61 0v594h231l140 -270h4l-7 270h220v-582c0 -135 -50 -252 -237 -252c-26 0 -69 4 -96 12l12 188c14 -4 28 -5 37 -5c29 0 47 13 52 45l-138 256h-4l7 -256h-221z" />
    <glyph glyph-name="grave.sc" 
d="M118 654l-154 144h212l111 -144h-169z" />
    <glyph glyph-name="acute.sc" 
d="M242 654h-169l111 144h212z" />
    <glyph glyph-name="circumflex.sc" 
d="M246 654l-67 68l-67 -68h-152l137 144h169l134 -144h-154z" />
    <glyph glyph-name="caron.sc" 
d="M246 798h154l-134 -144h-169l-137 144h152l67 -68z" />
    <glyph glyph-name="tilde.sc" 
d="M367 790c-4 -79 -45 -139 -114 -139c-28 0 -53 8 -81 23c-32 17 -43 22 -63 22c-21 0 -33 -16 -37 -36h-80c4 76 44 136 113 136c30 0 54 -9 83 -24c31 -16 44 -22 65 -22s30 13 35 40h79z" />
    <glyph glyph-name="dieresis.sc" 
d="M205 748c0 54 46 99 101 99c53 0 99 -45 99 -99c0 -55 -46 -98 -99 -98c-55 0 -101 43 -101 98zM-44 748c0 54 46 99 101 99c53 0 99 -45 99 -99c0 -55 -46 -98 -99 -98c-55 0 -101 43 -101 98z" />
    <glyph glyph-name="macron.sc" 
d="M0 681v96h360v-96h-360z" />
    <glyph glyph-name="breve.sc" 
d="M180 654c-87 0 -172 31 -180 144h110c3 -33 43 -39 70 -39c28 0 67 6 70 39h110c-8 -113 -92 -144 -180 -144z" />
    <glyph glyph-name="ring.sc" 
d="M295 747c0 -65 -53 -114 -115 -114s-115 49 -115 114s53 114 115 114s115 -49 115 -114zM240 747c0 33 -27 59 -60 59s-60 -26 -60 -59s27 -59 60 -59s60 26 60 59z" />
    <glyph glyph-name="hungarumlaut.sc" 
d="M114 654h-169l111 144h212zM357 654h-169l111 144h212z" />
    <glyph glyph-name="dotaccent.sc" 
d="M72 748c0 58 49 106 109 106c57 0 106 -48 106 -106c0 -59 -49 -105 -106 -105c-60 0 -109 46 -109 105z" />
    <glyph glyph-name="exclamdown.sc" horiz-adv-x="420" 
d="M210 611c69 0 120 -48 120 -115c0 -64 -51 -114 -120 -114s-120 50 -120 114c0 67 51 115 120 115zM93 343h234v-343h-234v343z" />
    <glyph glyph-name="questiondown.sc" horiz-adv-x="550" 
d="M148 299c25 11 36 23 36 41v9h197v-20c0 -62 -36 -94 -89 -123l-11 -6c-16 -9 -32 -21 -32 -34c0 -19 15 -31 35 -31c39 0 51 29 51 53l196 -22c-16 -134 -126 -186 -263 -186c-109 0 -228 41 -228 171c0 81 42 118 108 148zM279 611c69 0 120 -48 120 -115
c0 -64 -51 -114 -120 -114s-120 50 -120 114c0 67 51 115 120 115z" />
    <glyph glyph-name="Euro.sc" horiz-adv-x="640" 
d="M124 279c-1 9 -1 13 -1 19c0 5 0 7 1 16h-80l37 100h54c39 136 165 200 313 200c48 0 102 -8 145 -22l-58 -148c-19 9 -53 17 -88 17c-40 0 -75 -16 -91 -47h173l-35 -100h-162c-1 -6 -1 -11 -1 -16c0 -6 0 -12 1 -19h152l-34 -98h-95c15 -28 54 -39 86 -39
c39 0 73 9 101 24l27 -156c-36 -18 -90 -30 -155 -30c-147 0 -248 78 -280 201h-87l33 98h44z" />
    <glyph glyph-name="cent.sc" horiz-adv-x="640" 
d="M321 -13c-144 21 -243 125 -243 276c0 148 100 252 243 275v64h109v-61c59 -5 117 -27 149 -52l-115 -166c-16 19 -45 29 -69 29c-44 0 -90 -30 -90 -89s46 -87 90 -87c27 0 54 11 70 28l116 -162c-35 -28 -91 -51 -151 -57v-57h-109v59z" />
    <glyph glyph-name="sterling.sc" horiz-adv-x="640" 
d="M464 425c-15 17 -34 26 -53 26c-29 0 -51 -16 -51 -46v-23h122v-138h-122v-77h211v-167h-481v167h77v77h-77v138h77v28c0 119 85 204 225 204c77 0 139 -28 178 -65z" />
    <glyph glyph-name="florin.sc" horiz-adv-x="640" 
d="M511 424c-14 13 -29 16 -43 16c-16 0 -32 -8 -38 -41l-7 -40h103v-138h-128l-27 -140c-18 -92 -67 -167 -208 -167c-42 0 -99 11 -131 33l60 155c16 -13 33 -15 43 -15c21 0 35 11 42 46l17 88h-67v138h92l17 84c26 130 112 169 212 169c57 0 104 -13 140 -35z" />
    <glyph glyph-name="yen.sc" horiz-adv-x="640" 
d="M494 367h86v-100h-154v-57h154v-100h-154v-110h-214v110h-151v100h151v57h-151v100h86l-145 227h229l91 -182l92 182h224z" />
    <glyph glyph-name="perthousand.sc" horiz-adv-x="1200" 
d="M203 283c-89 0 -168 66 -168 165s79 164 168 164c91 0 169 -65 169 -164s-78 -165 -169 -165zM203 399c28 0 51 20 51 50s-23 50 -51 50c-27 0 -51 -20 -51 -50s24 -50 51 -50zM648 -17c-89 0 -168 66 -168 165s79 164 168 164c91 0 169 -65 169 -164s-78 -165 -169 -165
zM648 99c28 0 51 20 51 50s-23 50 -51 50c-27 0 -51 -20 -51 -50s24 -50 51 -50zM1009 -17c-89 0 -168 66 -168 165s79 164 168 164c91 0 169 -65 169 -164s-78 -165 -169 -165zM1009 99c28 0 51 20 51 50s-23 50 -51 50c-27 0 -51 -20 -51 -50s24 -50 51 -50zM291 -37
l-92 54l344 592l93 -54z" />
    <glyph glyph-name="zero.onum" horiz-adv-x="746" 
d="M706 299c0 -204 -155 -319 -333 -319c-177 0 -333 115 -333 319c0 201 156 315 333 315c178 0 333 -114 333 -315zM373 412c-64 0 -107 -53 -107 -112c0 -63 43 -115 107 -115s107 52 107 115c0 59 -44 112 -107 112z" />
    <glyph glyph-name="one.onum" horiz-adv-x="550" 
d="M212 0v367l-103 -66l-105 160l214 133h232v-594h-238z" />
    <glyph glyph-name="two.onum" horiz-adv-x="660" 
d="M53 169l49 23c177 83 256 129 256 182c0 34 -24 52 -54 52c-37 0 -64 -28 -75 -61l-196 59c39 109 130 190 289 190c117 0 279 -39 279 -211c0 -119 -99 -180 -170 -213l-17 -8v-2h199v-180h-560v169z" />
    <glyph glyph-name="three.onum" horiz-adv-x="600" 
d="M535 400c-62 -37 -144 -83 -192 -106v-3c7 1 14 2 23 2c101 0 200 -67 200 -204c0 -207 -197 -259 -348 -259c-43 0 -109 6 -167 16l34 199c39 -7 85 -11 112 -11c56 0 128 9 128 61c0 43 -65 54 -119 54c-27 0 -73 -4 -118 -14l-39 158c54 25 150 72 222 109v4h-219v188
h483v-194z" />
    <glyph glyph-name="four.onum" horiz-adv-x="700" 
d="M505 614l-249 -428h120v179h219v-179h88v-186h-87v-170h-223v170h-342v194l232 420h242z" />
    <glyph glyph-name="five.onum" horiz-adv-x="600" 
d="M549 100c0 -220 -198 -270 -344 -270c-41 0 -94 3 -164 15l33 198c38 -5 81 -8 104 -8c66 0 130 10 130 66c0 51 -58 63 -110 63c-39 0 -88 -6 -144 -17l30 447h450v-198h-243l-9 -75c12 3 23 3 32 3c135 0 235 -72 235 -224z" />
    <glyph glyph-name="six.onum" horiz-adv-x="700" 
d="M350 320c-43 0 -73 -31 -73 -71c0 -41 30 -73 73 -73c45 0 75 32 75 73c0 40 -30 71 -75 71zM588 669c-78 -61 -164 -138 -204 -185l1 -2c9 3 23 4 34 4c122 0 241 -85 241 -236c0 -178 -145 -270 -310 -270c-162 0 -310 71 -310 279c0 206 196 387 321 497z" />
    <glyph glyph-name="seven.onum" horiz-adv-x="620" 
d="M587 425c-103 -210 -217 -462 -275 -603l-245 48c67 141 191 392 260 526h-287v198h547v-169z" />
    <glyph glyph-name="eight.onum" horiz-adv-x="700" 
d="M350 551c-36 0 -58 -27 -58 -52c0 -27 22 -54 58 -54s58 27 58 54c0 25 -22 52 -58 52zM350 277c-41 0 -62 -28 -62 -59s21 -58 62 -58s62 27 62 58s-21 59 -62 59zM526 371v-3c67 -25 118 -85 118 -164c0 -161 -148 -224 -294 -224c-147 0 -294 62 -294 223
c0 77 48 135 118 164v3c-58 22 -106 76 -106 149c0 148 140 209 282 209c140 0 282 -61 282 -209c0 -73 -43 -127 -106 -148z" />
    <glyph glyph-name="nine.onum" horiz-adv-x="700" 
d="M350 274c43 0 73 31 73 71c0 41 -30 73 -73 73c-45 0 -75 -32 -75 -73c0 -40 30 -71 75 -71zM105 -97c90 78 174 161 211 207l-1 2c-9 -3 -23 -4 -34 -4c-122 0 -241 85 -241 236c0 178 145 270 310 270s310 -82 310 -282c0 -198 -196 -401 -328 -516z" />
    <glyph glyph-name="napostrophe.sc" horiz-adv-x="914" 
d="M265 0v594h231l140 -271h4l-7 271h220v-594h-235l-135 256h-4l7 -256h-221zM55 594h189l-93 -195h-164z" />
    <glyph glyph-name="ordfeminine.sc" horiz-adv-x="390" 
d="M15 431l113 291h138l111 -291h-128l-13 42h-81l-14 -42h-126zM220 544l-24 75l-25 -75h49z" />
    <glyph glyph-name="fi.sc" horiz-adv-x="871" 
d="M287 428v-66h174v-162h-173v-200h-227v594h424v-166h-198zM574 0v594h236v-594h-236z" />
    <glyph glyph-name="fl.sc" horiz-adv-x="1022" 
d="M297 428v-66h174v-162h-173v-200h-227v594h424v-166h-198zM584 0v594h234v-410h184v-184h-418z" />
    </font>
</defs>
</svg>
